<svg xmlns="http://www.w3.org/2000/svg" width="19" height="19" viewBox="0 0 19 19">
  <g fill="none" fill-rule="evenodd">
    <g fill="#45C1C5" fill-rule="nonzero">
      <path d="M34.997 23.386v8.112c-.006 1.38-1.123 2.496-2.502 2.502H18.502c-1.38-.006-2.496-1.123-2.502-2.502v-8.112h18.997zM22 29.44h-1.007c-.132 0-.258.055-.347.152-.094.09-.145.216-.14.347v.996c-.006.134.045.263.14.357.093.098.223.153.358.152H22c.13-.01.252-.063.347-.152.098-.093.153-.222.151-.357v-.996c.007-.134-.044-.265-.139-.36-.094-.094-.225-.145-.359-.139zm3.997 0h-1.008c-.131 0-.257.055-.346.152-.095.09-.146.216-.14.347v.996c0 .132.05.26.14.357.094.096.223.15.357.152h.997c.132-.012.257-.065.357-.152.09-.097.14-.225.14-.357v-.996c.004-.134-.047-.262-.14-.358-.098-.088-.225-.138-.357-.14zm3.996 0h-.996c-.134-.006-.265.045-.36.14-.094.094-.145.225-.138.359v.996c0 .132.05.26.14.357.095.096.223.15.358.152h.996c.279-.006.504-.23.51-.51v-.995c-.002-.135-.057-.263-.152-.358-.098-.09-.225-.14-.358-.14zM22 25.444h-.996c-.134-.005-.264.046-.358.14-.092.096-.143.225-.14.358v.996c-.003.134.048.262.14.358.098.09.225.14.358.14H22c.27-.01.487-.227.498-.498v-.996c-.002-.132-.052-.259-.14-.357-.096-.093-.225-.144-.358-.141zm3.997 0H25c-.133-.003-.262.048-.357.14-.088.1-.138.226-.14.358v.996c-.007.134.043.265.138.36.095.094.225.145.36.139h.996c.134-.002.263-.056.357-.152.09-.093.14-.217.14-.347v-.996c.007-.134-.043-.264-.138-.36-.095-.094-.225-.144-.36-.138zm3.996 0h-.996c-.133-.003-.262.048-.358.14-.088.1-.138.226-.14.358v.996c-.007.134.044.265.139.36.094.094.225.145.359.139h.996c.135 0 .265-.054.358-.152.089-.095.142-.217.151-.347v-.996c-.001-.134-.056-.263-.151-.357-.094-.095-.224-.146-.358-.141zM31.748 15c.134 0 .263.055.357.151.09.093.14.217.141.347v1.505h.25c.664-.003 1.302.26 1.771.73.47.47.733 1.108.73 1.772v2.253H16v-2.253c-.003-.664.26-1.302.73-1.772s1.108-.733 1.772-.73h.26v-1.505c0-.13.05-.254.14-.347.094-.096.223-.151.358-.151.135 0 .264.055.357.151.09.093.141.217.141.347v1.505H31.25v-1.505c0-.13.05-.254.14-.347.094-.096.223-.151.358-.151z" transform="translate(-16 -15)"/>
    </g>
  </g>
</svg>
