<svg xmlns="http://www.w3.org/2000/svg" width="40" height="40" viewBox="0 0 40 40">
    <g fill="none" fill-rule="evenodd">
        <g>
            <g transform="translate(-5 -5) translate(5 5)">
                <circle cx="20" cy="20" r="20" fill="#45C1C5"/>
                <g stroke="#FFF" stroke-linecap="round" stroke-linejoin="round" stroke-width="1.5">
                    <path d="M23.143 0H.857C.384 0 0 .448 0 1v14c0 .552.384 1 .857 1h22.286c.473 0 .857-.448.857-1V1c0-.552-.384-1-.857-1zm-6 0L24 7m-6.857 9L24 9M6.857 0L0 7m6.857 9L0 9" transform="translate(8 13)"/>
                    <path d="M12 12c2.21 0 4-1.79 4-4s-1.79-4-4-4-4 1.79-4 4 1.79 4 4 4z" transform="translate(8 13)"/>
                </g>
            </g>
        </g>
    </g>
</svg>
