<svg xmlns="http://www.w3.org/2000/svg" width="14" height="14" viewBox="0 0 14 14">
    <g fill="none" fill-rule="evenodd">
        <g fill="#D92A27" fill-rule="nonzero">
            <path d="M25 16c.648 0 1.174.526 1.174 1.174l-.001 6.652h6.653c.605 0 1.103.458 1.167 1.046L34 25c0 .648-.526 1.174-1.174 1.174l-6.653-.001v6.653c0 .605-.457 1.103-1.045 1.167L25 34c-.648 0-1.174-.526-1.174-1.174v-6.653h-6.652c-.605 0-1.103-.457-1.167-1.045L16 25c0-.648.526-1.174 1.174-1.174h6.652v-6.652c0-.605.458-1.103 1.046-1.167z" transform="translate(-18 -18) rotate(45 25 25)"/>
        </g>
    </g>
</svg>
