<svg xmlns="http://www.w3.org/2000/svg" width="18" height="18" viewBox="0 0 18 18">
    <g fill="none" fill-rule="evenodd">
        <g>
            <g transform="translate(-16 -16) translate(16 16)">
                <circle cx="9" cy="9" r="9" fill="#1A3E6F"/>
                <path fill="#FFF" fill-rule="nonzero" d="M9 5.625c-2.557 0-4.74 1.458-5.625 3.516.885 2.057 3.068 3.515 5.625 3.515s4.74-1.458 5.625-3.515C13.74 7.083 11.557 5.625 9 5.625zm0 5.86c-1.411 0-2.557-1.05-2.557-2.344C6.443 7.847 7.59 6.797 9 6.797s2.557 1.05 2.557 2.344c0 1.293-1.146 2.343-2.557 2.343zm0-3.75c-.849 0-1.534.628-1.534 1.406 0 .778.685 1.406 1.534 1.406s1.534-.628 1.534-1.406c0-.778-.685-1.407-1.534-1.407z"/>
            </g>
        </g>
    </g>
</svg>
