<svg xmlns="http://www.w3.org/2000/svg" width="18" height="12" viewBox="0 0 18 12">
    <g fill="none" fill-rule="evenodd">
        <g fill="#45C1C5" fill-rule="nonzero">
            <path d="M25 19c-4.09 0-7.585 2.332-9 5.625 1.415 3.293 4.91 5.625 9 5.625s7.585-2.332 9-5.625C32.585 21.332 29.09 19 25 19zm0 9.375c-2.258 0-4.09-1.68-4.09-3.75 0-2.07 1.832-3.75 4.09-3.75s4.09 1.68 4.09 3.75c0 2.07-1.832 3.75-4.09 3.75zm0-6c-1.358 0-2.455 1.005-2.455 2.25s1.097 2.25 2.455 2.25 2.455-1.005 2.455-2.25-1.097-2.25-2.455-2.25z" transform="translate(-16 -19)"/>
        </g>
    </g>
</svg>
