<svg xmlns="http://www.w3.org/2000/svg" xmlns:xlink="http://www.w3.org/1999/xlink" width="671" height="421" viewBox="0 0 671 421">
    <defs>
        <linearGradient id="cyjgua4x7i" x1="50%" x2="50%" y1="100.302%" y2="13.595%">
            <stop offset="0%" stop-color="#918F90"/>
            <stop offset="100%"/>
        </linearGradient>
        <linearGradient id="ianbggy0uj" x1="46.085%" x2="30.568%" y1="60%" y2="51.902%">
            <stop offset="56%" stop-color="#FFF"/>
            <stop offset="60%" stop-color="#FBF9F8"/>
            <stop offset="65%" stop-color="#EFE9E5"/>
            <stop offset="72%" stop-color="#DDCFC6"/>
            <stop offset="79%" stop-color="#C3AA9B"/>
            <stop offset="87%" stop-color="#A27B65"/>
            <stop offset="91%" stop-color="#8F6146"/>
            <stop offset="95%" stop-color="#78401F"/>
        </linearGradient>
        <linearGradient id="hm2ctqed9k" x1="50%" x2="50%" y1="34.897%" y2="127.701%">
            <stop offset="0%" stop-color="#918F90"/>
            <stop offset="100%"/>
        </linearGradient>
        <linearGradient id="mj4rttnr6l" x1="41.872%" x2="32.121%" y1="54.543%" y2="49.582%">
            <stop offset="56%" stop-color="#FFF"/>
            <stop offset="60%" stop-color="#FBF9F8"/>
            <stop offset="65%" stop-color="#EFE9E5"/>
            <stop offset="72%" stop-color="#DDCFC6"/>
            <stop offset="79%" stop-color="#C3AA9B"/>
            <stop offset="87%" stop-color="#A27B65"/>
            <stop offset="91%" stop-color="#8F6146"/>
            <stop offset="95%" stop-color="#78401F"/>
        </linearGradient>
        <linearGradient id="l870i603nm" x1="58.116%" x2="67.873%" y1="54.193%" y2="49.234%">
            <stop offset="56%" stop-color="#FFF"/>
            <stop offset="60%" stop-color="#FBF9F8"/>
            <stop offset="65%" stop-color="#EFE9E5"/>
            <stop offset="72%" stop-color="#DDCFC6"/>
            <stop offset="79%" stop-color="#C3AA9B"/>
            <stop offset="87%" stop-color="#A27B65"/>
            <stop offset="91%" stop-color="#8F6146"/>
            <stop offset="95%" stop-color="#78401F"/>
        </linearGradient>
        <linearGradient id="izgx6pojbn" x1="50.003%" x2="50.003%" y1="48.851%" y2="87.484%">
            <stop offset="0%" stop-color="#D1D3D4"/>
            <stop offset="100%"/>
        </linearGradient>
        <linearGradient id="zdu1kzxrjo" x1="50%" x2="50%" y1="96.667%" y2="2.083%">
            <stop offset="0%" stop-color="#FFF"/>
            <stop offset="100%" stop-color="#231F20"/>
        </linearGradient>
        <path id="npigockbta" d="M32.042 51.976c-1.82 1.311-8.477-2.319-10.137-3.163-2.86-1.454-5.73-3.1-7.718-5.608-2.053-2.59-2.957-5.85-3.132-9.18-.063-1.161-.035-2.332.063-3.487.022-.277.05-.554.081-.828.21-1.833.569-3.643.978-5.442.343-1.513.72-3.02 1.074-4.53.305-1.298.59-2.599.82-3.91.03-.178.058-.361.08-.548.097-.882.03-1.81-.633-2.354-.332-.273-.75-.382-1.183-.39-.117-.002-.234.003-.352.016-.258.026-.516.082-.758.157-1.028.317-1.931.897-2.821 1.512-.665.46-1.322.938-2.017 1.341-1.627.942-3.854 1.401-5.286.188C-.686 14.24-.006 11.36 1.09 9.3c1.25-2.352 2.86-4.63 4.8-6.343C7.223 1.777 8.715.867 10.354.383c2.057-.606 4.345-.537 6.847.526 1.035.44 1.895 1.037 2.607 1.756 1.154 1.16 1.923 2.633 2.427 4.25.977 3.141.952 6.828.78 9.831-.016.293-.036.586-.057.878-.118 1.607-.302 3.21-.494 4.812-.294 2.475-.607 4.948-.718 7.43-.04.925-.053 1.852-.028 2.781.025.908.095 1.81.213 2.698.655 4.95 2.805 9.47 7.129 12.388 1.02.687 5.116 2.702 2.98 4.243"/>
        <path id="w1ka05l5zc" d="M32.042 51.976c-1.82 1.311-8.477-2.319-10.137-3.163-2.86-1.454-5.73-3.1-7.718-5.608-2.053-2.59-2.957-5.85-3.132-9.18-.063-1.161-.035-2.332.063-3.487.022-.277.05-.554.081-.828.21-1.833.569-3.643.978-5.442.343-1.513.72-3.02 1.074-4.53.305-1.298.59-2.599.82-3.91.03-.178.058-.361.08-.548.097-.882.03-1.81-.633-2.354-.332-.273-.75-.382-1.183-.39-.117-.002-.234.003-.352.016-.258.026-.516.082-.758.157-1.028.317-1.931.897-2.821 1.512-.665.46-1.322.938-2.017 1.341-1.627.942-3.854 1.401-5.286.188C-.686 14.24-.006 11.36 1.09 9.3c1.25-2.352 2.86-4.63 4.8-6.343C7.223 1.777 8.715.867 10.354.383c2.057-.606 4.345-.537 6.847.526 1.035.44 1.895 1.037 2.607 1.756 1.154 1.16 1.923 2.633 2.427 4.25.977 3.141.952 6.828.78 9.831-.016.293-.036.586-.057.878-.118 1.607-.302 3.21-.494 4.812-.294 2.475-.607 4.948-.718 7.43-.04.925-.053 1.852-.028 2.781.025.908.095 1.81.213 2.698.655 4.95 2.805 9.47 7.129 12.388 1.02.687 5.116 2.702 2.98 4.243"/>
        <path id="evk8b8kaue" d="M32.042 51.976c-1.82 1.311-8.477-2.319-10.137-3.163-2.86-1.454-5.73-3.1-7.718-5.608-2.053-2.59-2.957-5.85-3.132-9.18-.063-1.161-.035-2.332.063-3.487.022-.277.05-.554.081-.828.21-1.833.569-3.643.978-5.442.343-1.513.72-3.02 1.074-4.53.305-1.298.59-2.599.82-3.91.03-.178.058-.361.08-.548.097-.882.03-1.81-.633-2.354-.332-.273-.75-.382-1.183-.39-.117-.002-.234.003-.352.016-.258.026-.516.082-.758.157-1.028.317-1.931.897-2.821 1.512-.665.46-1.322.938-2.017 1.341-1.627.942-3.854 1.401-5.286.188C-.686 14.24-.006 11.36 1.09 9.3c1.25-2.352 2.86-4.63 4.8-6.343C7.223 1.777 8.715.867 10.354.383c2.057-.606 4.345-.537 6.847.526 1.035.44 1.895 1.037 2.607 1.756 1.154 1.16 1.923 2.633 2.427 4.25.977 3.141.952 6.828.78 9.831-.016.293-.036.586-.057.878-.118 1.607-.302 3.21-.494 4.812-.294 2.475-.607 4.948-.718 7.43-.04.925-.053 1.852-.028 2.781.025.908.095 1.81.213 2.698.655 4.95 2.805 9.47 7.129 12.388 1.02.687 5.116 2.702 2.98 4.243"/>
        <path id="lgyx7e7cpg" d="M32.042 51.976c-1.82 1.311-8.477-2.319-10.137-3.163-2.86-1.454-5.73-3.1-7.718-5.608-2.053-2.59-2.957-5.85-3.132-9.18-.063-1.161-.035-2.332.063-3.487.022-.277.05-.554.081-.828.21-1.833.569-3.643.978-5.442.343-1.513.72-3.02 1.074-4.53.305-1.298.59-2.599.82-3.91.03-.178.058-.361.08-.548.097-.882.03-1.81-.633-2.354-.332-.273-.75-.382-1.183-.39-.117-.002-.234.003-.352.016-.258.026-.516.082-.758.157-1.028.317-1.931.897-2.821 1.512-.665.46-1.322.938-2.017 1.341-1.627.942-3.854 1.401-5.286.188C-.686 14.24-.006 11.36 1.09 9.3c1.25-2.352 2.86-4.63 4.8-6.343C7.223 1.777 8.715.867 10.354.383c2.057-.606 4.345-.537 6.847.526 1.035.44 1.895 1.037 2.607 1.756 1.154 1.16 1.923 2.633 2.427 4.25.977 3.141.952 6.828.78 9.831-.016.293-.036.586-.057.878-.118 1.607-.302 3.21-.494 4.812-.294 2.475-.607 4.948-.718 7.43-.04.925-.053 1.852-.028 2.781.025.908.095 1.81.213 2.698.655 4.95 2.805 9.47 7.129 12.388 1.02.687 5.116 2.702 2.98 4.243"/>
        <path id="11wgaqrltp" d="M36.318 62.774L0 62.774 0 0 36.318 0z"/>
    </defs>
    <g fill="none" fill-rule="evenodd">
        <g>
            <g transform="translate(-15 -139) translate(16 140)">
                <g>
                    <path fill="#FACCC9" fill-rule="nonzero" d="M75.436 364.268c-19.282-10.207-60.246-24.172-73.438-79.796-12.03-50.722 33.988-68.27 38.774-114.796 1.2-11.665.348-23.465 1.36-35.147C45.554 95.08 59.508 58.177 91.296 32.635c26.67-21.43 77.982-24.946 109.934-15.692 21.518 6.232 42.479 13.99 64.9 16.887 30.134 3.894 39.95-1.577 70.568-8.332 42.259-9.325 87.263-15.641 125.76 8.688 7.693 4.862 16.383 13.655 21.814 20.697 14.305 18.544 35.783 106.275 52.2 121.487 46.305 42.904 48.432 134.604-32.823 187.898H75.436z" opacity=".154" transform="translate(50.07)"/>
                    <g stroke="#FFFCF8" stroke-linecap="square" stroke-width="2">
                        <path d="M.5 0L.5 367.438M58.715 0L58.715 367.438M116.93 0L116.93 367.438M175.145 0L175.145 367.438M233.359 0L233.359 367.438M291.574 0L291.574 367.438M349.789 0L349.789 367.438M408.004 0L408.004 367.438M466.219 0L466.219 367.438" transform="translate(50.07) translate(71.682)"/>
                    </g>
                </g>
                <path fill="#1A3E6F" fill-rule="nonzero" d="M193.409 106.876c-5.549-8-14.588-10.777-20.82-5.408-6.808 5.866-7.513 18.302-2.266 25 9.4 12.006 36.229-.288 27.731-15.652-1.515-2.741-4.291-4.215-7.469-4.793"/>
                <path fill="#1A3E6F" fill-rule="nonzero" d="M178.59 125.645c1.813-15.685 11.32-39.62 40.5-32.796.293.067.58.137.866.209 19.045 4.748 29.396 25.393 22.02 43.616-3.839 9.483-13.894 13.792-14.735 20.11-.815 6.124-32.273 4.532-44.503-13.005-3.375-4.842-4.46-15.442-4.148-18.134"/>
                <path fill="#E73C3A" fill-rule="nonzero" d="M228.131 173.508c13.146.598 27.666 2.895 36.6 26.278 4.098 10.724 24.535 64.412 27.157 70.736 2.622 6.323-37.992 17.617-37.992 17.617s-33.526-66.502-37.457-75.217c-3.933-8.717 11.089-19.35 11.089-19.35l.603-20.064z"/>
                <path fill="#0B264B" fill-rule="nonzero" d="M124.166 367.482c0-37.401 21.498-62.97 26.437-62.137 5.037.85 10.144 1.963 15.254 2.7.715.103 1.432.2 2.149.29 22.945 2.887 45.183-1.703 67.783-.512 7.957.42 8.364 2.042 12.114 9.86 1.949 4.061 3.328 8.133 4.722 12.398 3.47 10.614 19.56 26.458 21.372 37.4H124.166z"/>
                <path fill="#5A4B54" fill-rule="nonzero" d="M251.55 319.076c-.043-.024-.093-.05-.135-.077-3.762-2.247-6.951-5.39-9.557-9.392-.352-.542-.695-1.102-1.031-1.68h-.004c-2.58-4.482-4.502-9.924-5.75-16.298.771-.09 1.487-.173 2.147-.255 1.228 6.282 3.115 11.607 5.657 15.94.329.576.682 1.138 1.043 1.68 2.051 3.098 4.474 5.622 7.26 7.555.019.085.033.178.045.264.092.623.187 1.255.273 1.883.02.125.034.251.051.38"/>
                <path stroke="#1A3E6F" stroke-linecap="round" stroke-linejoin="round" d="M141.093 339.273s5.956.258 11.643-2.333c5.687-2.59 11.643-11.427 11.643-11.427"/>
                <path fill="#5A4B54" fill-rule="nonzero" d="M242.402 296.953c-1.333.429-2.767.87-4.294 1.31-.591.169-1.195.343-1.814.508-8.865 2.441-20.385 4.702-32.558 4.684-.466-.007-.933-.007-1.4-.014-11.03-.143-22.105-1.765-31.18-3.585-.647-.132-1.289-.258-1.917-.395-3.828-.8-7.25-1.621-10.095-2.351.225-.62.446-1.202.659-1.749 2.915.747 6.438 1.59 10.376 2.402.621.124 1.251.255 1.889.385 9.255 1.826 20.533 3.431 31.673 3.442 11.878.016 23.125-2.167 31.826-4.542v.002c.618-.17 1.215-.337 1.801-.51 1.573-.449 3.049-.905 4.417-1.347.197.547.407 1.136.617 1.76"/>
                <path stroke="#1A3E6F" stroke-linecap="round" stroke-linejoin="round" d="M201.425 306.461L201.425 354.103"/>
                <path fill="#FEFEFE" fill-rule="nonzero" d="M165.058 282.588l3.206 24.559c14.37.353 31.45.052 44.835-5.198 0 0 16.324 7.474 25.18 5.712l-4.483-17.881-68.738-7.192z"/>
                <path fill="#E73C3A" fill-rule="nonzero" stroke="#0B264B" d="M238.924 262.83c-.113-1.655-.185-3.114-.216-4.34-.01-.322-.013-.627-.014-.912 0-.112.304-.339.827-.77 2.265-1.867 11-10.842 12.537-17.926 1.697-7.823-2.803-14.132-5.72-27.155-.479-2.122 9.65-3.99 9.279-6.183-.33-1.958 2.456-15.274 2.44-15.472 0-10.373-15.171-16.161-20.696-17.269-4.591-.92-25.909-4.69-25.909-4.69s-24.043-5.321-28.942-5.321c-4.9 0-38.068 1.826-42.739 6.678-2.875 2.986-4.549 6.225-5.374 10.23-1.64 7.952-.297 16.685 2.137 24.415 4.018 12.762 12.866 25.262 14.015 38.699.41 4.796-1.339 25.151-2.332 31.771-1.773 11.82-14.141 40.07-19.016 50.987 0 0 51.247 8.817 71.654-12.253 1.921-1.983 3.137-1.069 6.694 2.576 3.556 3.645 18.325 16.517 41.839 10.937 0 0-10.032-40.462-9.62-47.313-.51-4.994-.84-10.572-.844-16.69z"/>
                <path fill="#1A3E6F" fill-rule="nonzero" d="M217.739 214.82c-.112 1.075-1.077 1.86-2.15 1.746-1.076-.11-1.859-1.077-1.746-2.154.112-1.08 1.076-1.861 2.152-1.748 1.076.11 1.856 1.077 1.744 2.156M218.834 232.413c-.113 1.08-1.074 1.86-2.152 1.748-1.074-.113-1.857-1.077-1.745-2.156.113-1.08 1.077-1.86 2.153-1.749 1.077.113 1.857 1.078 1.744 2.157M218.747 250.176c-.114 1.074-1.078 1.86-2.153 1.745-1.075-.11-1.857-1.077-1.743-2.153.111-1.08 1.074-1.863 2.15-1.749 1.076.111 1.857 1.078 1.746 2.157M217.61 268.333c-.113 1.077-1.076 1.861-2.153 1.748-1.075-.11-1.857-1.08-1.746-2.156.114-1.08 1.079-1.862 2.154-1.749 1.075.114 1.858 1.078 1.744 2.157M215.561 287.13c-.112 1.076-1.077 1.86-2.151 1.746-1.078-.114-1.86-1.078-1.747-2.154.112-1.08 1.076-1.863 2.153-1.75 1.074.112 1.858 1.078 1.745 2.158"/>
                <path fill="#FFE163" fill-rule="nonzero" d="M214.242 208.643s.412-18.18-3.087-38.079c0 0-16.71 2.303-28.081-7.071 0 0 6.162 19.367 31.168 45.15z"/>
                <path fill="#F6B0AC" fill-rule="nonzero" d="M212.511 164.72l.373 4.71c.695 8.776-5.535 11.268-14.608 6.618-7.169-3.674-13.253-9.164-14.25-12.561l28.485 1.234z"/>
                <path fill="#DA2526" fill-rule="nonzero" d="M189.71 257.607c.132.016.273-.003.405-.061.139-.062 13.942-6.055 29.532-1.277 7.918 2.428 14.806 2.986 20.27 2.346-.007-.318-.013-.623-.01-.91v-.112s.29-.231.787-.662c-5.359.782-12.37.308-20.575-2.206-16.182-4.957-30.074 1.088-30.656 1.346-.407.182-.59.658-.41 1.064.12.272.374.443.656.472z"/>
                <path fill="#1A3E6F" fill-rule="nonzero" d="M241.951 122.064s-.708 16.329-3.973 18.227c-3.269 1.898-5.208-4.883-5.208-4.883s6.063-13.62 9.181-13.344"/>
                <path fill="#E4938F" fill-rule="nonzero" d="M231.656 140.858s5.407-3.515 6.239 1.882c.833 5.4-3.775 14.423-9.37 11.028l3.131-12.91z"/>
                <path fill="#F6B0AC" fill-rule="nonzero" d="M214.3 162.024l-3.915 13.008s-10.228 9.163-26.564-10.62c5.172-3.158 7.81-11.49 7.747-16.95 0 0 1.191 1.462 3.338 3.317.436.376.91.778 1.413 1.197 4.46 3.69 11.366 8.597 17.981 10.048"/>
                <path fill="#E4938F" fill-rule="nonzero" d="M214.3 162.024l-1.834 6.09c-5.18-2.917-14.005-8.897-17.56-17.335.436.376.91.778 1.413 1.197 4.46 3.69 11.366 8.597 17.981 10.048"/>
                <path fill="#F6B0AC" fill-rule="nonzero" d="M226.685 161.124c-14.316 8.007-34.47-12.803-35.115-13.477-.007-.009-.015-.015-.015-.015.08-1.082.182-2.146.3-3.192.988-8.879 3.247-16.719 6.334-23.882 1.948-7.947 8.793-13.83 16.949-14.293 8.456-.478 11.593 4.446 15.316 6.954 1.767 1.19 4.572 4.644 5.68 6.715 3.196 5.961 3.028 10.354.693 18.194-4.18 14.036-6.589 21.005-10.142 22.996"/>
                <path stroke="#0B264B" stroke-linecap="round" stroke-linejoin="round" d="M214.867 140.737s1.184 3.835 5.066 6.457c3.882 2.622 7.635.952 7.635.952"/>
                <path fill="#0B264B" fill-rule="nonzero" d="M222.492 122.461s2.198.908.775 2.746c-1.42 1.839-5.271-1.824-9.674 1.024 0 0 .116-5.404 8.9-3.77M232.752 125.561s-2.33-.46-2.163 1.859c.17 2.319 5.404 1.402 7.5 6.213 0 0 2.883-4.568-5.337-8.072M218.687 132.647c-.438 1.454-1.45 2.433-2.26 2.19-.814-.247-1.117-1.626-.68-3.08.439-1.453 1.45-2.433 2.264-2.187.81.246 1.113 1.623.676 3.077M233.04 136.982c-.437 1.456-1.448 2.435-2.262 2.189-.812-.245-1.114-1.621-.677-3.076.439-1.453 1.451-2.435 2.264-2.188.811.245 1.114 1.624.675 3.075"/>
                <path stroke="#0B264B" stroke-linecap="round" stroke-linejoin="round" d="M226.51 132.269v8.468s-3.134-.705-4.759-3.027"/>
                <path fill="#E4938F" fill-rule="nonzero" d="M198.066 143.178c-.118.143-3.36 3.998-6.496 4.47l-.003.001-.01-.017c.079-1.08.181-2.146.297-3.19.11.012 3.023.363 6.212-1.264"/>
                <path fill="#1A3E6F" fill-rule="nonzero" d="M233.342 111.668s-13.172 21.813-34.199 20.752l-7.22-3.062-.608-11.87s.256-9.623 1.831-10.47c1.576-.847 17.041-5.433 17.041-5.433l12.15.583 12.02 5.395 2.862 2.189-3.877 1.916z"/>
                <path fill="#FEFEFE" fill-rule="nonzero" d="M227.56 135.635l-2.934-.317-.202 1.016.006.002 2.944.318c.112.013.246-.207.297-.488.052-.28.01-.526-.112-.53M223.486 135.747c.825-4.166-1.888-8.23-6.047-9.055-4.16-.828-8.21 1.892-9.036 6.059-.823 4.166 1.886 8.227 6.045 9.052 4.16.826 8.213-1.893 9.038-6.056m1.014.2c-.937 4.725-5.535 7.807-10.252 6.87-4.716-.936-7.793-5.544-6.859-10.27.936-4.726 5.535-7.807 10.25-6.87 4.717.938 7.796 5.543 6.86 10.27"/>
                <path fill="#FEFEFE" fill-rule="nonzero" d="M243.69 139.758c.826-4.163-1.887-8.227-6.047-9.055-4.158-.826-8.212 1.893-9.036 6.062-.823 4.16 1.887 8.224 6.046 9.052 4.16.825 8.214-1.893 9.037-6.059m1.013.202c-.934 4.726-5.536 7.808-10.25 6.87-4.718-.936-7.796-5.544-6.86-10.269.936-4.726 5.535-7.807 10.251-6.87 4.716.938 7.794 5.541 6.86 10.27M194.395 132.991c-.064-.005-.125-.016-.185-.04-.26-.116-.379-.42-.268-.686 2.582-5.902 13.951-1.154 14.04-1.117.264.109.398.405.288.673-.103.263-.403.393-.67.288-.082-.034-10.532-4.416-12.712.574-.087.2-.286.32-.493.308"/>
                <path fill="#F6B0AC" fill-rule="nonzero" d="M198.447 132.281s-3.452-9.556-9.546-4.708c-5.023 3.998-2.481 19.45 6.089 16.675l3.457-11.967z"/>
                <path stroke="#0B264B" stroke-linecap="round" stroke-linejoin="round" d="M191.58 130.152s1.992 2.346 3.176 4.763c1.183 2.417.718 5.681.718 5.681M149.243 172.49s3.329 9.813 4.483 27.715c1.154 17.902-2.367 31.558-2.367 31.558"/>
                <path stroke="#0B264B" stroke-linecap="round" stroke-linejoin="round" d="M226.386 213.765s14.858-6.036 31.858-13.003" transform="rotate(-70 242.315 207.264)"/>
                <path stroke="#1A3E6F" stroke-linecap="round" stroke-linejoin="round" d="M196.873 317.453v14.158s-.435 8.078-6.16 8.078c-5.725 0-8.745-2.456-9.741-3.327"/>
                <path stroke="#0B264B" stroke-linecap="round" d="M190.522 136.503s1.15-1.059 2.117-1.059h2.117"/>
                <g transform="translate(300.38 71.138)">
                    <path fill="#0B264B" fill-rule="nonzero" d="M121.079 258.533l-5.416 37.945H271.76c0-2.809-2.657-34.065-11.972-37.945h-138.71z"/>
                    <path stroke="#1A3E6F" stroke-linecap="round" stroke-linejoin="round" d="M152.638 264.354v25.403s1.41 3.08 4.866 3.08M157.931 264.354L157.931 289.757"/>
                    <g>
                        <path fill="#FEFEFE" fill-rule="nonzero" d="M1.21 0c-1.935 3.079-1.412 7.512.596 10.256" transform="translate(113.531 27.88)"/>
                        <path stroke="#231F20" d="M1.21 0c-1.935 3.079-1.412 7.512.596 10.256" transform="translate(113.531 27.88)"/>
                    </g>
                    <g>
                        <path fill="#193F6F" fill-rule="nonzero" d="M.274 20.601c-1.329-5.812 2.3-11.599 8.1-12.932.49-.113.977-.18 1.466-.22C14.418 2.276 18.307.046 27.55 0c1.741-.008 8.082 2.347 14.374 4.57.193.07.39.137.585.21.115.042 4.541 1.542 9.714 2.67 5.172 1.127 5.325 5.76 5.476 6.637 3.611 2.158 6.305 6.723 5.545 11.057 0 0 1.187 7.95 1.928 14.033.74 6.084-1.928 9.636-1.928 14.899 0 2.259 1.13 8.821.5 11.143-.63 2.323-6.045 3.145-6.045 3.145-.312-.037-1.464-4.349-1.667-9.433-.204-5.085 2.106-16.207 1.667-16.147 0 0-4.68 5.642-5.476 6.1-.795.458-33.252-4.116-39.215-3.319-5.962.8-11.44-3.394-12.235-9.364-.49-3.614.865-7.046 3.324-9.372-.149-.153-.282-.32-.388-.507-1.663-1.446-2.901-3.407-3.435-5.72z" transform="translate(109.535)"/>
                        <path fill="#FACCC8" fill-rule="nonzero" d="M38.05 23.992c2.238-.365 4.143-2.27 4.498-4.51-.57 9.73 3.389 20.703 9.524 28.21.608 0 1.465.44 1.939-1.368.185-.708-.538-2.198-.583-3.231-.044-1.033-.247-2.08.583-3.27.893-1.28 2.678-1.635 4.376-1.046 1.61.558 1.985 1.645 2.123 4.545.028.59-.89 3.165 0 6.497.89 3.333.738 5.626 0 6.482-1.438 1.667-2.94.912-3.32 0-.379-.912-.276-2.338-.31-2.127-.489 3.009 1.956 16.203 3.63 21.383.804 2.49 3.01 6.873 10.182 6.873 7.173 0 10.964-1.43 10.964-1.43 1.919 8.888-15.902 55.021-24.776 56.943 0 0-5.23-5.193-5.235-5.2-.354-.353-4.33-.911-5.295-1.468-2.52-1.458-4.465-4.328-6.109-6.642-3.778-5.337-12.762-7.638-14.8-13.854-.957-2.939 2.564-9.085 2.24-12.403-.286-3.018.28-7.514 0-11.148.087-4.434-9.88 2.525-12.634-3.978-2.225-5.261-4.492-15.153-5.176-20.908-1.82-15.317-1.295-19.954-2.53-29.171-.204-1.567-.153-3.101.106-4.577.78.342 1.595.606 2.424.772 5.436 1.09 11.07-1.072 15.57-4.31 1.038-.745 2.066-1.565 3.294-1.916 3.028-.867 6.206 1.352 9.315.852z" transform="translate(109.535)"/>
                        <path fill="#F0B6B5" fill-rule="nonzero" d="M27.569 86.405c1.723-.491 16.22-1.877 19.441-9.223 0 0-2.905 10.558-18.792 16.651l-.65-7.428z" transform="translate(109.535)"/>
                        <path stroke="#0B264B" stroke-linecap="round" d="M57.937 44.41s-3.14.019-2.996 3.14c.146 3.119 3.556 2.704 3.556 2.704M22.978 46.888l-.382 9.27c-.044 1.016.365 1.992 1.113 2.68.75.684 1.763.999 2.767.866l2.654-.476M35.378 68.816c-4.422 2.973-11.04 3.784-15.083-.169" transform="translate(109.535)"/>
                        <path stroke="#0B264B" d="M26.687 50.784c1.093 3.85 5.1 6.09 8.946 4.995 3.846-1.095 6.08-5.11 4.987-8.961-1.093-3.853-5.102-6.087-8.947-4.994-3.846 1.095-6.08 5.107-4.986 8.96z" transform="translate(109.535)"/>
                        <path d="M14.86 55.416c3.847-1.094 6.08-5.108 4.99-8.958-1.095-3.852-5.102-6.09-8.95-4.993-3.845 1.093-6.078 5.107-4.985 8.958 1.095 3.85 5.1 6.089 8.945 4.993z" transform="translate(109.535)"/>
                        <path stroke="#0B264B" d="M5.915 50.423c1.095 3.85 5.1 6.089 8.945 4.993 3.847-1.094 6.08-5.108 4.99-8.958-1.095-3.852-5.102-6.09-8.95-4.993-3.845 1.093-6.078 5.107-4.985 8.958z" transform="translate(109.535)"/>
                        <g>
                            <path fill="#FEFEFE" fill-rule="nonzero" d="M8.707 0L0 2.478" transform="translate(109.535) translate(41.199 44.478)"/>
                            <path stroke="#0B264B" d="M8.707 0L0 2.478" transform="translate(109.535) translate(41.199 44.478)"/>
                        </g>
                        <path fill="#FEFEFE" fill-rule="nonzero" d="M26.193 48.725L20.234 48.624" transform="translate(109.535)"/>
                        <path stroke="#0B264B" d="M26.193 48.725L20.234 48.624" transform="translate(109.535)"/>
                        <path stroke="#FEFEFE" stroke-linecap="round" stroke-linejoin="round" d="M8.2 20.476c3.562.88 4.334-4.852-.11-5.81-4.446-.962-4.673 4.1-4.673 4.1-.012 4.209 2.375 6.356 5.354 7.314 5.501 1.766 13.959.318 19.801-2.44" transform="translate(109.535)"/>
                        <path stroke="#FEFEFE" stroke-linecap="round" d="M46.88 27.178c-.16 3.142 1.16 6.714 2.634 9.285M56.986 17.474c2.338 1.15 3.304 3.11 2.455 5.383" transform="translate(109.535)"/>
                        <path fill="#231F20" fill-rule="nonzero" d="M32.278 47.93c1.115-.237 2.21.478 2.443 1.597.243 1.118-.475 2.215-1.588 2.451-1.116.238-2.213-.48-2.45-1.598-.234-1.117.482-2.215 1.595-2.45m-19.985.42c1.04.049 1.844.933 1.8 1.978-.053 1.045-.934 1.848-1.975 1.803-1.042-.047-1.848-.934-1.798-1.979.047-1.046.93-1.848 1.973-1.803M34.58 31.693c3.146.52 5.272 2.193 5.95 3.52.734 1.372.212 2.302-.673 2.515-.921.23-2.015-.055-3.086-.273-1.075-.243-2.162-.457-3.112-.614-.952-.155-2.052-.295-3.15-.408-1.086-.136-2.22-.21-3.008-.719-.759-.478-.934-1.525.236-2.585 1.102-1.041 3.688-1.944 6.843-1.436m-16.13 2.684c1.067.674 1.164 1.55.718 2.062-.455.54-1.258.785-2.02 1.071-.764.267-1.53.56-2.181.843-.65.28-1.389.629-2.118 1.002-.721.349-1.454.762-2.166.722-.683-.031-1.26-.7-1.03-1.93.21-1.19 1.386-2.892 3.545-3.825 2.169-.919 4.234-.608 5.251.055" transform="translate(109.535)"/>
                    </g>
                    <path fill="#45C1C5" fill-rule="nonzero" d="M0 147.342c7.378 12.337 42.984 48.42 52.754 54.863 7.928 5.228 26.013 14.832 32.752 5.173 2.862-4.099 32.009-37.638 32.476-41.607.519 5.493 7.547 19.109 7.547 48.83 0 29.72-3.353 47.241 3.84 47.117 20.636-.356 134.968 0 134.968 0 1.206-3.914 6.622-18.675-5.925-39.57-12.546-20.896-14.065-51.352-14.065-51.352-6.209-10.971-4.472-61.597-12.23-72.095-12.588-17.026-33.565-10.915-33.565-10.915s-7.76-2.238-15.699-1.621c-.19 1.787-6.453 22.733-29.246 25.971-22.793 3.235-15.346-12.83-15.793-18.844-6.064.595-27.933-1.648-41.778 10.882-12.96 11.727-31.206 57.656-33.21 56.293-5.082-3.465-24.071-18.004-40.5-36.747L0 147.342z"/>
                    <circle cx="224.084" cy="102.94" r="3.175" fill="#FFF" fill-rule="nonzero"/>
                    <path stroke="#0B264B" stroke-linecap="round" stroke-linejoin="round" d="M152.638 117.229L152.638 262.237"/>
                </g>
                <path stroke="#1A3E6F" stroke-linecap="square" d="M546.162 256.108L554.63 260.342"/>
                <path stroke="#1A3E6F" stroke-linecap="round" stroke-linejoin="round" d="M0 367.245L668.976 367.245"/>
                <g fill-rule="nonzero">
                    <g>
                        <path fill="#1A3E6F" d="M203.223 7.06v101.462c0 3.9-3.166 7.06-7.072 7.06H23.584c-3.906 0-7.072-3.16-7.072-7.06V7.06c0-3.9 3.166-7.061 7.072-7.061h172.567c3.906 0 7.072 3.161 7.072 7.06" transform="translate(223.863 280.982)"/>
                        <path fill="#FAF3F2" d="M195.602 12.147v84.939c0 2.498-2.158 4.525-4.822 4.525H30.227c-1.423 0-2.704-.579-3.588-1.502-.77-.8-1.236-1.862-1.236-3.023v-84.94c0-2.498 2.16-4.525 4.824-4.525H190.78c.89 0 1.724.226 2.44.622 1.425.786 2.382 2.24 2.382 3.904" transform="translate(223.863 280.982)"/>
                        <path fill="#1A3E6F" d="M221.005 111.773v.641c0 3.193-1.025 6.146-2.765 8.547-2.654 3.667-6.973 6.053-11.85 6.053H14.615c-4.876 0-9.195-2.386-11.849-6.053C1.025 118.56 0 115.607 0 112.414v-.641h221.005z" transform="translate(223.863 280.982)"/>
                        <path fill="#FFF" d="M26.673 118.758c0 1.052-.853 1.906-1.905 1.906s-1.905-.854-1.905-1.906.853-1.905 1.905-1.905 1.905.853 1.905 1.905M34.294 118.758c0 1.052-.853 1.906-1.905 1.906-1.053 0-1.906-.854-1.906-1.906s.853-1.905 1.906-1.905c1.052 0 1.905.853 1.905 1.905" transform="translate(223.863 280.982)"/>
                        <path fill="#E53F3E" d="M193.062 118.758c0 1.052-.853 1.906-1.906 1.906-1.051 0-1.905-.854-1.905-1.906s.854-1.905 1.905-1.905c1.053 0 1.906.853 1.906 1.905" transform="translate(223.863 280.982)"/>
                        <path fill="#FFD93B" d="M200.682 118.758c0 1.052-.852 1.906-1.905 1.906-1.052 0-1.905-.854-1.905-1.906s.853-1.905 1.905-1.905c1.053 0 1.905.853 1.905 1.905" transform="translate(223.863 280.982)"/>
                        <path fill="#47C068" d="M186.71 118.758c0 1.052-.852 1.906-1.904 1.906s-1.906-.854-1.906-1.906.854-1.905 1.906-1.905 1.905.853 1.905 1.905" transform="translate(223.863 280.982)"/>
                        <path fill="#FFF" d="M85.1 118.123v.166c0 1.312.77 2.375 1.72 2.375h44.825c.95 0 1.72-1.063 1.72-2.375v-.166H85.1zM195.602 12.443v5.339h-170.2v-5.339c0-1.028.321-1.978.87-2.759.871-1.248 2.317-2.063 3.955-2.063H190.78c1.637 0 3.084.815 3.952 2.063.55.78.87 1.731.87 2.759" transform="translate(223.863 280.982)"/>
                        <path fill="#302922" d="M181.63 12.701c0 .702-.569 1.27-1.27 1.27-.701 0-1.27-.568-1.27-1.27 0-.701.569-1.27 1.27-1.27.701 0 1.27.569 1.27 1.27" transform="translate(223.863 280.982)"/>
                        <path fill="#43777B" d="M185.44 12.701c0 .702-.568 1.27-1.27 1.27-.7 0-1.27-.568-1.27-1.27 0-.701.57-1.27 1.27-1.27.702 0 1.27.569 1.27 1.27" transform="translate(223.863 280.982)"/>
                        <path fill="#DF644C" d="M189.251 12.701c0 .702-.569 1.27-1.27 1.27-.702 0-1.27-.568-1.27-1.27 0-.701.568-1.27 1.27-1.27.701 0 1.27.569 1.27 1.27" transform="translate(223.863 280.982)"/>
                        <path fill="#F3EAE1" d="M172.72 13.972H43.204c-.71 0-1.29-.547-1.29-1.215v-.11c0-.67.58-1.216 1.29-1.216h129.514c.71 0 1.29.547 1.29 1.215v.11c0 .669-.58 1.216-1.29 1.216" transform="translate(223.863 280.982)"/>
                        <path fill="#302922" d="M33.024 12.701v1.073c0 .152-.185.247-.333.17l-1.048-.535-1.049-.537c-.148-.076-.148-.265 0-.341l1.049-.536 1.048-.537c.148-.076.333.019.333.17v1.073zM35.564 12.701v1.073c0 .152.185.247.333.17l1.048-.535 1.048-.537c.148-.076.148-.265 0-.341l-1.048-.536-1.048-.537c-.148-.076-.333.019-.333.17v1.073z" transform="translate(223.863 280.982)"/>
                    </g>
                    <g>
                        <path fill="#003B70" d="M5.836 14.125c1.212 0 2.241.289 3.09.866.847.577 1.475 1.389 1.88 2.434.407 1.047.55 2.277.428 3.69H3.13c.091.701.308 1.27.65 1.705.466.595 1.152.893 2.057.893.57 0 1.059-.127 1.465-.38.406-.252.716-.616.93-1.092l2.907.844c-.435 1.068-1.12 1.897-2.058 2.489-.937.591-1.961.887-3.073.887-1.183 0-2.225-.258-3.126-.774-.902-.515-1.607-1.226-2.117-2.131C.254 22.65 0 21.613 0 20.445c0-1.277.25-2.388.748-3.333.499-.945 1.187-1.68 2.063-2.202.877-.523 1.885-.785 3.025-.785zm11.306.062c1.014 0 1.914.158 2.7.473.788.316 1.384.861 1.787 1.636.227.431.362.862.405 1.293.042.43.063.911.063 1.442v7.106h-2.53v-1.43c-.457.544-.94.956-1.452 1.23-.649.349-1.47.523-2.462.523-.822 0-1.519-.16-2.09-.48-.57-.319-1.003-.746-1.297-1.28-.294-.535-.441-1.126-.441-1.772 0-.538.081-1.03.244-1.475.163-.445.427-.838.792-1.179.366-.34.857-.626 1.473-.855.426-.158.933-.298 1.521-.42.588-.122 1.255-.239 2-.35.436-.065.901-.135 1.39-.21-.056-.478-.21-.845-.465-1.098-.327-.323-.872-.485-1.638-.485-.426 0-.869.105-1.33.312-.46.209-.783.579-.967 1.11l-2.616-.84c.29-.962.836-1.744 1.637-2.347.802-.603 1.893-.904 3.276-.904zm10.336 0c.9 0 1.698.14 2.393.42.695.28 1.256.678 1.685 1.194.43.517.693 1.127.793 1.83l-2.957.539c-.05-.43-.233-.772-.553-1.023-.319-.251-.751-.398-1.297-.441-.532-.036-.959.036-1.281.215-.323.18-.484.438-.484.775 0 .201.069.37.207.506.138.136.425.276.862.42.436.144 1.1.33 1.993.56.872.23 1.573.497 2.1.802.529.305.914.671 1.154 1.098.242.427.362.942.362 1.545 0 1.191-.425 2.128-1.276 2.81-.85.682-2.028 1.023-3.53 1.023-1.447 0-2.615-.333-3.505-.996-.89-.664-1.43-1.603-1.621-2.816l2.956-.452c.12.546.388.973.803 1.281.415.309.941.463 1.58.463.524 0 .928-.102 1.211-.307.284-.204.426-.49.426-.856 0-.229-.057-.414-.17-.554-.114-.14-.367-.278-.76-.414-.394-.137-1.006-.316-1.835-.539-.936-.244-1.684-.516-2.244-.818-.56-.301-.964-.662-1.212-1.082-.249-.42-.373-.927-.373-1.523 0-.746.188-1.394.564-1.943.376-.55.906-.973 1.59-1.27.684-.298 1.49-.447 2.42-.447zm19.971 0c1.156 0 2.171.261 3.047.785.875.524 1.558 1.248 2.047 2.17.49.922.734 1.982.734 3.181 0 1.206-.247 2.27-.74 3.192-.492.922-1.176 1.644-2.051 2.164-.876.52-1.888.78-3.037.78-1.155 0-2.17-.262-3.041-.785-.872-.524-1.551-1.247-2.037-2.17-.486-.922-.728-1.982-.728-3.181 0-1.213.248-2.28.744-3.203.496-.922 1.18-1.642 2.053-2.158.872-.517 1.875-.775 3.009-.775zm11.145 0c1.014 0 1.914.158 2.701.473.787.316 1.383.861 1.787 1.636.227.431.361.862.404 1.293.042.43.064.911.064 1.442v7.106h-2.531v-1.43c-.457.544-.94.956-1.452 1.23-.649.349-1.47.523-2.462.523-.822 0-1.519-.16-2.09-.48-.57-.319-1.003-.746-1.297-1.28-.294-.535-.441-1.126-.441-1.772 0-.538.081-1.03.244-1.475.163-.445.427-.838.793-1.179.365-.34.856-.626 1.473-.855.425-.158.932-.298 1.52-.42.589-.122 1.255-.239 2-.35.436-.065.902-.135 1.39-.21-.056-.478-.21-.845-.465-1.098-.327-.323-.872-.485-1.638-.485-.425 0-.869.105-1.33.312-.46.209-.783.579-.967 1.11l-2.616-.84c.29-.962.836-1.744 1.638-2.347.8-.603 1.893-.904 3.275-.904zM40.792 10.31v15.826H37.9V10.31h2.892zm30.095 3.854c.9 0 1.634.154 2.201.463.567.308 1.009.7 1.324 1.173.315.474.54.967.676 1.48.134.514.216.982.244 1.406.028.423.043.732.043.925v6.525H72.44v-5.491c0-.266-.015-.605-.043-1.018-.028-.412-.117-.827-.266-1.243-.149-.416-.392-.764-.728-1.044-.337-.28-.814-.42-1.43-.42-.249 0-.515.04-.798.119-.284.078-.55.23-.798.457-.248.226-.452.558-.611.996-.16.438-.24 1.019-.24 1.744v5.9h-2.935V14.509h2.574v1.2c.266-.3.571-.568.92-.801.74-.496 1.675-.743 2.802-.743zM19.22 20.813c-.473.08-.887.153-1.227.215-.532.097-.961.185-1.287.264-.326.08-.614.165-.862.258-.283.115-.512.239-.685.372-.174.133-.302.278-.383.436-.082.158-.123.333-.123.527 0 .266.066.494.197.684.131.19.317.335.558.436.241.1.529.15.862.15.532 0 .98-.094 1.345-.285.365-.19.656-.407.872-.65.216-.245.363-.45.441-.615.15-.315.236-.683.26-1.103.016-.257.026-.485.032-.69zm41.452 0c-.473.08-.887.153-1.227.215-.532.097-.96.185-1.287.264-.326.08-.613.165-.861.258-.284.115-.513.239-.686.372-.174.133-.302.278-.383.436-.082.158-.122.333-.122.527 0 .266.065.494.196.684.131.19.318.335.559.436.24.1.528.15.861.15.532 0 .98-.094 1.345-.285.365-.19.656-.407.872-.65.216-.245.364-.45.442-.615.148-.315.235-.683.26-1.103.015-.257.025-.485.03-.69zM47.449 16.92c-.631 0-1.148.144-1.552.43-.405.288-.704.686-.9 1.196-.194.51-.291 1.101-.291 1.776 0 1.04.231 1.868.696 2.481.464.614 1.147.92 2.047.92.929 0 1.622-.317 2.08-.952.456-.635.685-1.451.685-2.449 0-1.034-.232-1.859-.697-2.476-.464-.617-1.154-.926-2.068-.926zm-41.484-.242c-.991 0-1.72.305-2.186.914-.268.35-.46.795-.573 1.336l5.087-.001c-.084-.633-.25-1.12-.495-1.465-.374-.523-.985-.784-1.833-.784zM39.223.763l11.573 10.918c.404.408-8.543-5.831-8.543-5.831-3.431-2.356-6.129-2.256-9.13 0 0 0-2.006 1.401-4.076 2.832l-.477.33c-1.194.824-2.358 1.623-3.121 2.133l-.283.188c-.433.286-.665.428-.586.348L36.05.763c1.13-1.005 2.085-1.03 3.173 0z" transform="translate(223.863 280.982) translate(73.033 50.806)"/>
                        <path fill="#D9261C" d="M36.23 16.118v10.343h-2.645V16.153l2.645-.035zm-1.35-4.892c1.108 0 2.005.958 2.005 2.14 0 1.183-.897 2.141-2.004 2.141s-2.005-.958-2.005-2.14c0-1.183.898-2.141 2.005-2.141z" transform="translate(223.863 280.982) translate(73.033 50.806)"/>
                    </g>
                </g>
                <g>
                    <path stroke="#1E1A19" stroke-linecap="round" stroke-linejoin="round" stroke-width=".252" d="M107.147 22.28c.204-.267.446-.506.716-.709" transform="translate(462.067 315.91)"/>
                    <path fill="#F17574" fill-rule="nonzero" d="M4.318 41.988c1.892 1.497 4.647 1.195 6.776.088 2.129-1.106 3.851-2.88 5.776-4.334 1.75-1.321 4.119-2.396 6.013-1.307 1.584.912 2.13 3.323 1.1 4.867-1.388 2.086-4.379 1.927-6.572 3.05-2.277 1.164-3.64 3.713-5.873 4.967-2.48 1.393-5.508.932-8.289.434-.896-.16-2.054-.687-1.867-1.609l2.936-6.156" transform="translate(462.067 315.91) matrix(-1 0 0 1 25.87 0)"/>
                    <path fill="#F17574" fill-rule="nonzero" d="M14.624 73.517c1.343-.23 2.687-.458 4.03-.686 1.239-.21 2.651-.382 3.632.384 1.15.898 1.074 2.731.21 3.894-.864 1.163-2.277 1.8-3.652 2.319-4.064 1.531-8.368 2.456-12.717 2.73l8.497-8.641" transform="translate(462.067 315.91) matrix(-1 0 0 1 29.274 0)"/>
                    <path fill="#E53F3E" fill-rule="nonzero" d="M48.111 12.831c1.69 1.324.592 6.131.09 7.836-.85 2.894-2.532 5.56-4.872 7.496-.508.42-1.054.813-1.677 1.034L32.678 18.76c1.77-2.332 4.229-4.119 6.963-5.182 1.873-.728 6.64-2.181 8.47-.747zM19.693 1.603c1.69 1.8 2.855 4.078 3.275 6.494.576 3.309-.255 6.832-2.255 9.557l-11.07-2.832c-.606-4.884 1.29-9.987 4.89-13.4 2.075-1.968 3.228-1.88 5.16.18z" transform="translate(462.067 315.91)"/>
                    <path fill="#F6B0AC" fill-rule="nonzero" d="M29.026 29.197l-4.35 6.166c-5.098 7.224-10.32 14.736-11.975 23.393-1.655 8.657 1.269 18.828 9.123 22.976 3.499 1.848 7.564 2.327 11.528 2.44 4.672.131 9.49-.238 13.694-2.259 4.204-2.02 7.698-5.973 8.064-10.584.405-5.088-2.86-9.633-5.368-14.094-4.32-7.683-6.699-16.426-6.863-25.218l-13.853-2.82" transform="translate(462.067 315.91) matrix(-1 0 0 1 67.399 0)"/>
                    <path fill="#FFD93B" fill-rule="nonzero" d="M25.512 43.73c3.409 2.013 7.516 2.668 11.475 2.375 2.368-.175 5.016-.89 6.11-2.973 1.19-2.263-.04-5.06-1.723-6.991-4.125-4.734-11.43-6.782-17.47-4.882-7.585 2.385-3.425 9.5 1.608 12.472" transform="translate(462.067 315.91) matrix(-1 0 0 1 63.314 0)"/>
                    <path fill="#F6B0AC" fill-rule="nonzero" d="M40.98 35.054c-1.58 2.104-3.675 3.7-5.864 5.009-6.798 4.064-15.223 5.517-22.085 2.184C6.169 38.913 1.664 30.099 4.049 22.18c1.288-4.28 3.53-7.585 6.33-10.014 4.278-3.717 9.857-5.39 15.323-5.376 14.283.035 27.792 11.579 15.277 28.264" transform="translate(462.067 315.91) matrix(-1 0 0 1 49.33 0)"/>
                    <g>
                        <g fill="#F17574" fill-rule="nonzero">
                            <path d="M32.042 51.976c-1.82 1.311-8.477-2.319-10.137-3.163-2.86-1.454-5.73-3.1-7.718-5.608-2.053-2.59-2.957-5.85-3.132-9.18-.063-1.161-.035-2.332.063-3.487.022-.277.05-.554.081-.828.21-1.833.569-3.643.978-5.442.343-1.513.72-3.02 1.074-4.53.305-1.298.59-2.599.82-3.91.03-.178.058-.361.08-.548.097-.882.03-1.81-.633-2.354-.332-.273-.75-.382-1.183-.39-.117-.002-.234.003-.352.016-.258.026-.516.082-.758.157-1.028.317-1.931.897-2.821 1.512-.665.46-1.322.938-2.017 1.341-1.627.942-3.854 1.401-5.286.188C-.686 14.24-.006 11.36 1.09 9.3c1.25-2.352 2.86-4.63 4.8-6.343C7.223 1.777 8.715.867 10.354.383c2.057-.606 4.345-.537 6.847.526 1.035.44 1.895 1.037 2.607 1.756 1.154 1.16 1.923 2.633 2.427 4.25.977 3.141.952 6.828.78 9.831-.016.293-.036.586-.057.878-.118 1.607-.302 3.21-.494 4.812-.294 2.475-.607 4.948-.718 7.43-.04.925-.053 1.852-.028 2.781.025.908.095 1.81.213 2.698.655 4.95 2.805 9.47 7.129 12.388 1.02.687 5.116 2.702 2.98 4.243" transform="translate(462.067 315.91) translate(46.323 27.993) matrix(-1 0 0 1 32.65 0)"/>
                        </g>
                        <g transform="translate(462.067 315.91) translate(46.323 27.993)">
                            <mask id="95tsou0qrb" fill="#fff">
                                <use xlink:href="#npigockbta"/>
                            </mask>
                            <path fill="#F6B0AC" fill-rule="nonzero" d="M26.433 12.514c-.256.028-.511.085-.752.162-1.018.327-1.913.925-2.795 1.559-.022-.627-.078-1.26-.151-1.879-.15-1.274-.527-2.837-.883-4.182-.423-1.594-.866-3.183-1.27-4.781-.063-.254-.126-.51-.187-.765 1.323-1.215 2.8-2.154 4.425-2.652 0 .016.004.032.006.048.137.859.308 1.711.489 2.56.353 1.654.742 3.29.97 4.969.225 1.667.322 3.289.148 4.961" mask="url(#95tsou0qrb)" transform="matrix(-1 0 0 1 46.917 0)"/>
                        </g>
                        <g transform="translate(462.067 315.91) translate(46.323 27.993)">
                            <mask id="vat0kxooqd" fill="#fff">
                                <use xlink:href="#w1ka05l5zc"/>
                            </mask>
                            <path fill="#F6B0AC" fill-rule="nonzero" d="M20.395 6.359l-.085.079c-1.046.986-2.067 2.007-3.05 3.061-1.005 1.079-1.96 2.208-2.92 3.329-.581.68-1.128 1.412-1.728 2.086.094-.902.03-1.852-.609-2.408-.32-.28-.721-.39-1.14-.398.275-.535.569-1.056.851-1.566.725-1.302 1.56-2.529 2.428-3.728 1.22-1.686 2.525-3.285 3.917-4.801 1.11 1.186 1.851 2.692 2.336 4.346" mask="url(#vat0kxooqd)" transform="matrix(-1 0 0 1 31.259 0)"/>
                        </g>
                        <g transform="translate(462.067 315.91) translate(46.323 27.993)">
                            <mask id="css9bryqgf" fill="#fff">
                                <use xlink:href="#evk8b8kaue"/>
                            </mask>
                            <path fill="#F6B0AC" fill-rule="nonzero" d="M20.395 16.95c-.119 1.601-.305 3.197-.498 4.793-.688.417-1.423.76-2.17 1.038-1.66.622-3.522.87-5.288.948-.843.037-1.687-.016-2.525-.115l-.412-.047c.347-1.506.729-3.007 1.086-4.512.09.012.18.025.19.028.131.015.264.027.395.039.421.037.844.06 1.266.078 1.452.057 2.607-.023 3.887-.326.595-.142 1.181-.301 1.756-.508l.059-.02.003-.001.003-.002c.147-.065.292-.132.434-.204.25-.129.495-.268.73-.42.472-.305.737-.47 1.084-.768" mask="url(#css9bryqgf)" transform="matrix(-1 0 0 1 29.897 0)"/>
                        </g>
                        <g transform="translate(462.067 315.91) translate(46.323 27.993)">
                            <mask id="nuxnm1kufh" fill="#fff">
                                <use xlink:href="#lgyx7e7cpg"/>
                            </mask>
                            <path fill="#F6B0AC" fill-rule="nonzero" d="M21.757 34.83c-1.945 1.02-4.275 1.331-6.387 1.013-1.524-.23-2.91-1.041-4.087-2.034-.129-.108-.257-.221-.386-.34-.062-1.2-.034-2.41.063-3.601.633.448 1.223.968 1.95 1.267.524.214 1.076.346 1.626.465l.157.029.03.003c.13.013.26.021.392.034.266.026.53.057.797.067.31.011.617-.002.926-.022.067-.004.131-.01.16-.014h.01l.008-.002c.129-.023.254-.05.381-.08.27-.06.534-.135.796-.223.132-.043.261-.09.391-.14.09-.033.241-.1.262-.107h.002c.49-.233.96-.51 1.4-.832.015-.01.098-.074.161-.122.006-.003.011-.008.016-.013l.01-.007.17-.146c.235-.206.47-.415.698-.63.086-.082.177-.156.269-.222-.04.956-.054 1.913-.028 2.872.025.938.095 1.87.213 2.786" mask="url(#nuxnm1kufh)" transform="matrix(-1 0 0 1 32.62 0)"/>
                        </g>
                    </g>
                    <path fill="#E53F3E" fill-rule="nonzero" d="M14.095 28.995c.94 1.685 1.003 3.89.16 5.634-1.216-.038-2.262-1.332-2.118-2.62.156-1.395.3-2.766.326-4.17 1.062.52.57.636 1.632 1.156" transform="translate(462.067 315.91) matrix(-1 0 0 1 26.97 0)"/>
                    <path fill="#0B264B" fill-rule="nonzero" d="M15.2 23.843c1.219.033 3.852 1.455 2.582 2.837-.478.52-1.221.59-1.857.342-.11.226-.233.453-.369.673-.259.98-.288 2.014.188 2.908.537 1.01 1.907 1.83 3.064 1.279.708-.337 1.33.665.624 1.03-1.678.871-3.706.066-4.636-1.467-.443-.731-.565-1.525-.468-2.308-.358.289-.754.509-1.183.624-1.429.386-3.12-.208-3.579-1.715-.267-.88 1.067-1.237 1.355-.378.337 1.004 1.608 1.104 2.454.784.717-.271 1.222-.788 1.681-1.356.085-.145.175-.286.27-.422-.61-.47-1.021-1.176-1.257-1.864-.14-.408.167-.785.56-.92l.57-.047zm17.708-.486c1.486.615 2.271 2.14 1.529 3.455-.446.79-1.83.094-1.364-.693.424-.716-.409-1.53-1.168-1.729-1.246-.328-2.355.359-3.483.667-.308.084-.654-.26-.446-.505 1.044-1.228 3.312-1.866 4.932-1.195zm-19.877-8.746c1.417.786 1.553 2.33.857 3.612-.123.227-.511.07-.43-.176.251-.764-.342-1.82-1.097-2.141-.723-.308-1.602.022-2.015.641-.558.838-1.882.1-1.387-.783.763-1.36 2.665-1.933 4.072-1.153z" transform="translate(462.067 315.91)"/>
                    <path fill="#F17574" fill-rule="nonzero" d="M37.178 11.536c-.045.767-.55 1.56-1.294 1.665-1.104.158-1.816-1.094-2.503-1.993-.77-1.01-1.872-1.75-3.082-2.072-.054 1.153.86 2.072 1.589 2.951.73.88 1.33 2.2.659 3.127-.7.964-2.243.661-3.124-.133-.88-.795-1.416-1.932-2.31-2.71-.985-.858-2.26-1.174-3.573-1.259 3.234-2.898 7.453-4.202 11.585-4.192.575.739 1.052 1.579 1.457 2.418.331.69.64 1.43.596 2.198" transform="translate(462.067 315.91) matrix(-1 0 0 1 60.722 0)"/>
                    <path fill="#0B264B" fill-rule="nonzero" d="M26.92 31.631c.603.287 1.181.615 1.765.93 1.209.653 2.406 1.32 3.601 1.993.915.516.059 1.842-.845 1.308-1.219-.719-2.432-1.443-3.636-2.182-.603-.37-1.213-.732-1.79-1.136-.434-.306-.758-.533-.824-1.045-.013-.096.083-.18.175-.208.588-.18 1.041.095 1.555.34zm1.962-1.407c.701.183 1.397.387 2.084.618 1.337.45 2.62 1.012 3.919 1.56 1.018.43.375 1.98-.584 1.432-1.21-.69-2.507-1.243-3.8-1.74-.64-.245-1.283-.48-1.932-.695-.6-.199-1.256-.316-1.8-.652-.4-.246-.206-.835.227-.866.63-.044 1.28.185 1.886.343zM1.296 20.46l1.24.506 2.466 1.03c1.207.5 2.57.966 3.637 1.669.405.266.2.9-.375.758-1.283-.315-2.508-.916-3.738-1.36-1.28-.461-2.59-.852-3.907-1.23-1.193-.34-.494-1.842.677-1.373zm.217-3.994c1.371.961 2.756 1.902 4.106 2.894.64.471 1.276.95 1.906 1.436.638.493 1.407.974 1.915 1.608.218.273.024.802-.371.657-.719-.264-1.366-.763-2.02-1.164-.71-.435-1.425-.86-2.145-1.278C3.459 19.784 2 18.971.5 18.25c-1.167-.562-.067-2.54 1.013-1.783z" transform="translate(462.067 315.91)"/>
                    <path fill="#F17574" fill-rule="nonzero" d="M29.672 50.771c-.787 3.02-2.33 5.857-4.212 8.375.762.278 1.499.628 2.194 1.033 3.625 2.109 6.077 5.637 8.317 9.048.475.725-.697 1.395-1.17.676-1.845-2.802-3.802-5.679-6.545-7.707-2.46-1.82-5.717-2.975-8.792-2.232-2.667.645-4.704 2.718-5.778 5.151-1.137 2.574-1.155 5.387-.317 8.05 1.024 3.257 3.271 6.086 5.9 8.248.033.029-.01.085-.047.06-5.208-3.506-9.28-9.809-7.001-16.156.966-2.691 2.923-5.091 5.625-6.224 2.163-.907 4.528-.874 6.736-.236l-.328.389c2.222-2.575 3.888-5.462 5.344-8.5.022-.044.087-.023.074.025z" transform="translate(462.067 315.91)"/>
                </g>
                <g>
                    <g fill="#000" fill-rule="nonzero">
                        <path d="M213.343 47.246C212.597 22.226 193.65 1.513 169.277.08c-18.372-1.083-34.858 9.08-43.34 24.76-7.847-8.265-18.529-13.645-30.528-14.352-21.115-1.245-39.74 12.366-46.575 32.132-1.165-.232-2.343-.417-3.558-.486-14.829-.875-27.528 10.976-28.365 26.469-.206 3.808.334 7.48 1.47 10.87C8.096 84.703.743 95.423.053 108.203c-1.015 18.795 12.748 34.89 30.735 35.949 3.355.198 6.62-.143 9.717-.95 6.527 17.082 22.05 29.577 40.786 30.682 16.745.985 39.51-7.559 48.487-20.916 8.005 10.156 16.564 18.535 30.155 19.096 24.073.992 36.54-8.94 40.908-29.796 3.886 1.363 7.998 2.224 12.292 2.478 25.765 1.517 47.836-19.076 49.288-45.996 1.452-26.92-18.26-49.976-44.03-51.493-1.701-.099-3.383-.097-5.048-.01z" transform="translate(202.694 156.084)"/>
                    </g>
                    <g fill="#FFF">
                        <path d="M213.343 47.246C212.597 22.226 193.65 1.513 169.277.08c-18.372-1.083-34.858 9.08-43.34 24.76-7.847-8.265-18.529-13.645-30.528-14.352-21.115-1.245-39.74 12.366-46.575 32.132-1.165-.232-2.343-.417-3.558-.486-14.829-.875-27.528 10.976-28.365 26.469-.206 3.808.334 7.48 1.47 10.87C8.096 84.703.743 95.423.053 108.203c-1.015 18.795 12.748 34.89 30.735 35.949 3.355.198 6.62-.143 9.717-.95 6.527 17.082 22.05 29.577 40.786 30.682 16.745.985 39.51-7.559 48.487-20.916 8.005 10.156 16.564 18.535 30.155 19.096 24.073.992 36.54-8.94 40.908-29.796 3.886 1.363 7.998 2.224 12.292 2.478 25.765 1.517 47.836-19.076 49.288-45.996 1.452-26.92-18.26-49.976-44.03-51.493-1.701-.099-3.383-.097-5.048-.01z" transform="translate(202.694 156.084)"/>
                    </g>
                </g>
                <g transform="translate(268.318 202.656)">
                    <path fill="#FFBE3B" fill-rule="nonzero" d="M39.218 24.437L47.556 19.887 47.556 10.899 39.218 10.899z"/>
                    <path fill="#D92A27" fill-rule="nonzero" d="M38.209 7.122H48.559000000000005V11.106H38.209z"/>
                    <path fill="#8C0000" fill-rule="nonzero" d="M66.384 15.78H97.024V17.634999999999998H66.384z"/>
                    <path fill="url(#cyjgua4x7i)" fill-rule="nonzero" style="mix-blend-mode:overlay" d="M66.384 15.78H97.024V17.634999999999998H66.384z"/>
                    <path fill="#FFBE3B" fill-rule="nonzero" d="M95.192 31.173L95.192 13.74 81.979 2.617 68.844 13.74 68.844 31.173z"/>
                    <path fill="#ED1C24" fill-rule="nonzero" d="M82.018 3.754L96.744 17.634 99.983 17.634 82.018 0 64.053 17.634 67.292 17.634z"/>
                    <path fill="#ED1C24" fill-rule="nonzero" d="M82.018 3.754L96.744 17.634 99.983 17.634 82.018 0 64.053 17.634 67.292 17.634z"/>
                    <path fill="url(#ianbggy0uj)" fill-rule="nonzero" style="mix-blend-mode:multiply" d="M95.192 17.634L99.983 17.634 82.018 0 64.053 17.634 68.844 17.634z"/>
                    <path fill="#D92A27" fill-rule="nonzero" d="M82.018 5.66L95.192 17.634 99.983 17.634 82.018 0 64.053 17.634 68.844 17.634z"/>
                    <path fill="#F4F8FB" fill-rule="nonzero" d="M82.948 11.93c-3.381.015-6.113 2.764-6.108 6.145.006 3.382 2.745 6.121 6.127 6.127 3.381.005 6.13-2.727 6.145-6.108 0-1.635-.65-3.203-1.805-4.359-1.156-1.156-2.724-1.805-4.359-1.805zm0 10.372c-2.34 0-4.236-1.897-4.236-4.236 0-2.34 1.897-4.236 4.236-4.236 2.34 0 4.236 1.896 4.236 4.236-.003 2.338-1.898 4.233-4.236 4.236z"/>
                    <circle cx="82.921" cy="18.071" r="4.976" fill="#80D8DB" fill-rule="nonzero" transform="rotate(-13.33 82.921 18.071)"/>
                    <path fill="#EDF4F9" fill-rule="nonzero" d="M82.702 12.843H83.702V23.294H82.702z"/>
                    <g>
                        <path fill="#71BF59" fill-rule="nonzero" d="M27.323 10.922s-1.562 3.83-2.652 5.94c-1.09 2.108-3.204 4.998-5.602 5.932-2.398.934-3.342 1.086-4.091 1.127-.749.042-2.175-.134-2.175-.134s-.238-1.054 1.011-3.152c1.25-2.099 3.012-3.445 3.645-3.818 1.5-.881 3.18-1.705 4.665-2.629 1.622-1.008 5.2-3.266 5.2-3.266" transform="scale(-1 1) rotate(26 -132.441 -29.683) rotate(-25 20.054 17.425)"/>
                        <path fill="#71BF59" fill-rule="nonzero" d="M14.837 2.925s.344 5.164.274 8.134c-.07 2.969-.861 7.378-3.045 9.743-2.185 2.366-3.163 3.054-3.983 3.511-.819.458-2.52 1.043-2.52 1.043s-.845-1.055-.59-4.1c.253-3.045 1.496-5.525 2.004-6.292 1.203-1.813 2.64-3.662 3.804-5.515 1.27-2.022 4.056-6.524 4.056-6.524" transform="scale(-1 1) rotate(26 -132.441 -29.683) rotate(-30 10.023 14.14)"/>
                        <path fill="#71BF59" fill-rule="nonzero" d="M18.353 2.334s.874 2.555-.355 4.465c-.07.269-.199.744-.224.849-.022.094-.046.187-.07.28.126-.119.312-.31.529-.582.423-.533.851-1.492 2.564-1.944-.653 1.212-1.195 1.728-1.853 2.11-.504.294-1.044.545-1.317.693-.165.585-.366 1.158-.6 1.717.234-.078.658-.24 1.077-.502.628-.393 1.793-.851 2.818-.702-.809.983-1.9 1.246-2.221 1.29-.49.067-1.377.091-1.79.174-.078.189-.164.375-.254.559-.227.466-.477.92-.75 1.36.377-.016.788-.227 1.52-.363.494-.091 1.634-.006 2.426.192-1.191.907-2.648.736-3.375.549-.323-.083-.613-.076-.773-.062-.243.373-.503.735-.779 1.084-.454.576-.95 1.11-1.477 1.612.147-.034.374-.09.666-.185.565-.181 1.807-1.1 3.078-.435-.416.37-1.512.839-2.297.936-.53.066-1.386.005-1.762-.027l-.254.228-.374.32c-.241.2-.485.395-.731.587.323-.118.727-.253 1-.257.489-.006 1.37-.07 2.324.562-1.155.733-2.629.082-3.188.07-.351-.007-.567.02-.68.041-.532.408-1.072.807-1.605 1.216-.318.244-.633.492-.943.748 2.015-.485 3.537.8 3.537.8-1.748.604-2.71-.196-3.12-.356-.236-.092-.567-.113-.807-.114-.485.42-.952.863-1.385 1.34-.049.055-.142.042-.188-.01-.051-.06-.039-.138.01-.193.1-.115.203-.229.307-.34.411-.443.853-.853 1.311-1.243.035-.155.056-.411-.047-.697-.29-.81-.776-2.483-.634-3.284.629.344 1.132 2.033 1.08 2.561-.038.376-.085.905-.11 1.18.364-.302.736-.59 1.11-.875.351-.268.705-.532 1.057-.798-.01-.127-.038-.326-.105-.607-.133-.56-1.072-1.9-.631-3.223.807.82.94 1.722 1.04 2.215.08.389-.03 1.094-.068 1.437.531-.404 1.056-.814 1.562-1.249.101-.087.202-.175.3-.264-.057-.23-.168-.663-.334-1.247-.348-1.229-.252-2.545.039-3.259.704 1.459.856 2.46.704 3.248-.09.463-.138.812-.163 1.032.51-.477.99-.985 1.431-1.53l.3-.384-.007-.066c-.02-.169-.08-.414-.271-.709-.358-.553-1.4-1.4-1.534-2.988 1.093.76 1.638 1.641 1.82 2.111.133.346.132 1.072.135 1.457.448-.614.85-1.264 1.202-1.942-.043-.161-.158-.435-.483-.799-.541-.606-1.444-1.625-1.576-3.068 1.055.726 1.598 1.84 1.784 2.503.127.45.307.874.41 1.1l.196-.416c.201-.44.414-1.01.61-1.6-.082-.123-.249-.333-.584-.688-.7-.74-1.249-1.145-1.572-3.249 1.214 1.159 1.578 1.908 1.99 2.942.113.353.193.596.245.752.176-.553.335-1.11.452-1.584l.035-.154-.027-.11c-.087-.36-.178-.92-.163-1.66.029-1.372.812-2.555.812-2.555z" transform="scale(-1 1) rotate(26 -132.441 -29.683) rotate(-30 13.805 11.478)"/>
                        <path stroke="#1A3E6F" stroke-linecap="round" stroke-linejoin="round" stroke-width=".5" d="M16.054 20.804c-.64 1.506-1.48 2.987-2.492 4.323-1.527 2.017-3.78 3.58-5.017 5.772-.254.45-.504.93-.526 1.457 0 0-.133 1.297.21 1.87" transform="scale(-1 1) rotate(26 -132.441 -29.683)"/>
                        <path stroke="#FFF" stroke-linecap="round" stroke-linejoin="round" stroke-width=".5" d="M10.518 10.459c.633 1.947 1.055 4.035 1.196 6.128.213 3.157-.63 6.483 0 9.568.13.633.288 1.292.7 1.807 0 0 .939 1.334 1.732 1.594" transform="scale(-1 1) rotate(26 -132.441 -29.683)"/>
                    </g>
                    <path fill="#EDF4F9" fill-rule="nonzero" d="M77.698 17.847H88.149V18.847H77.698z"/>
                    <path fill="#009A8C" fill-rule="nonzero" d="M10.29 80.565c-7.545-2.51-11.602 5.166-7.304 6.995h28.89s1.34-1.725.523-3.22c-.817-1.495-2.23-1.495-3.148-1.298.993-1.365.35-3.606-1.213-4.228-1.563-.623-3.554.57-3.757 2.25-.164-.768-.797-1.413-1.557-1.588-.76-.175-1.607.128-2.087.747-.54-2.257-2.558-3.882-5.465-4.1-2.907-.217-4.881 3.178-4.881 4.442z" transform="matrix(-1 0 0 1 33.897 0)"/>
                    <path fill="#8C0000" fill-rule="nonzero" d="M100.386 38.048L20.782 38.048 15.711 41.388 108.747 41.388z"/>
                    <path fill="#F0D770" fill-rule="nonzero" d="M97.786 84.849L26.677 84.849 26.677 36.866 62.125 9.604 97.786 36.866z"/>
                    <path fill="url(#hm2ctqed9k)" fill-rule="nonzero" style="mix-blend-mode:overlay" d="M97.786 84.406L26.677 84.406 26.677 36.423 62.125 10.815 97.786 36.423z"/>
                    <path fill="#FFF" fill-rule="nonzero" d="M26.677 60.031H97.786V61.031H26.677z" opacity=".4"/>
                    <path fill="#F08F45" fill-rule="nonzero" d="M26.677 60.3H97.786V61.3H26.677z" opacity=".2"/>
                    <path fill="#FFF" fill-rule="nonzero" d="M26.677 73.944H97.786V74.944H26.677z" opacity=".4"/>
                    <path fill="#F08F45" fill-rule="nonzero" d="M26.677 74.213H97.786V75.213H26.677z" opacity=".2"/>
                    <path fill="#FFF" fill-rule="nonzero" d="M26.677 69.305H97.786V70.305H26.677z" opacity=".4"/>
                    <path fill="#F08F45" fill-rule="nonzero" d="M26.677 69.574H97.786V70.574H26.677z" opacity=".2"/>
                    <path fill="#FFF" fill-rule="nonzero" d="M26.677 83.218H97.786V84.218H26.677z" opacity=".4"/>
                    <path fill="#F08F45" fill-rule="nonzero" d="M26.677 83.487H97.786V84.487H26.677z" opacity=".2"/>
                    <path fill="#FFF" fill-rule="nonzero" d="M26.677 78.578H97.786V79.578H26.677z" opacity=".4"/>
                    <path fill="#F08F45" fill-rule="nonzero" d="M26.677 78.853H97.786V79.853H26.677z" opacity=".2"/>
                    <path fill="#FFF" fill-rule="nonzero" d="M26.677 64.665H97.786V65.665H26.677z" opacity=".4"/>
                    <path fill="#F08F45" fill-rule="nonzero" d="M26.677 64.934H97.786V65.934H26.677zM26.677 46.117H97.786V47.117H26.677z" opacity=".2"/>
                    <path fill="#F08F45" fill-rule="nonzero" d="M26.677 46.386H97.786V47.386H26.677z" opacity=".2"/>
                    <path fill="#FFF" fill-rule="nonzero" d="M26.677 41.477H97.786V42.477H26.677z" opacity=".4"/>
                    <path fill="#F08F45" fill-rule="nonzero" d="M26.677 41.746H97.786V42.746H26.677z" opacity=".2"/>
                    <path fill="#FFF" fill-rule="nonzero" d="M26.677 55.391H97.786V56.391H26.677z" opacity=".4"/>
                    <path fill="#F08F45" fill-rule="nonzero" d="M26.677 55.66H97.786V56.66H26.677z" opacity=".2"/>
                    <path fill="#FFF" fill-rule="nonzero" d="M26.677 50.751H97.786V51.751H26.677z" opacity=".4"/>
                    <path fill="#F08F45" fill-rule="nonzero" d="M26.677 51.02H97.786V52.02H26.677zM26.677 36.838H97.786V37.838H26.677z" opacity=".2"/>
                    <path fill="#F08F45" fill-rule="nonzero" d="M26.677 37.107H97.786V38.107H26.677zM48.565 17.931H75.893V18.931H48.565z" opacity=".2"/>
                    <path fill="#F08F45" fill-rule="nonzero" d="M48.565 18.2H75.893V19.2H48.565zM51.35 13.42H73.10900000000001V14.42H51.35z" opacity=".2"/>
                    <path fill="#F08F45" fill-rule="nonzero" d="M51.35 13.689H73.10900000000001V14.689H51.35zM26.677 32.198H97.786V33.198H26.677z" opacity=".2"/>
                    <path fill="#F08F45" fill-rule="nonzero" d="M26.677 32.467H97.786V33.467H26.677z" opacity=".2"/>
                    <path fill="#F08F45" fill-rule="nonzero" d="M26.677 32.209H97.786V33.209H26.677z" opacity=".2"/>
                    <path fill="#F08F45" fill-rule="nonzero" d="M26.677 32.478H97.786V33.478H26.677zM35.761 27.564H88.703V28.564H35.761z" opacity=".2"/>
                    <path fill="#F08F45" fill-rule="nonzero" d="M35.761 27.833H88.703V28.833H35.761zM39.218 22.734H85.24000000000001V23.734H39.218z" opacity=".2"/>
                    <path fill="#FCE4B3" fill-rule="nonzero" d="M39.218 23.003H85.24000000000001V24.003H39.218z"/>
                    <path fill="url(#mj4rttnr6l)" fill-rule="nonzero" style="mix-blend-mode:multiply" d="M100.358 41.41L108.736 41.41 62.243 2.617 15.7 41.36 24.083 41.365 26.666 41.365 26.677 41.477z"/>
                    <path fill="url(#l870i603nm)" fill-rule="nonzero" style="mix-blend-mode:multiply" d="M24.083 41.41L15.7 41.41 62.198 2.617 108.736 41.36 100.358 41.365 97.77 41.365 97.764 41.477z"/>
                    <path fill="#ED1C24" fill-rule="nonzero" d="M62.232 10.876L100.37 41.388 108.747 41.388 62.232 2.617 15.711 41.388 24.094 41.388z"/>
                    <path fill="#ED1C24" fill-rule="nonzero" d="M62.232 10.876L100.37 41.388 108.747 41.388 62.232 2.617 15.711 41.388 24.094 41.388z"/>
                    <path fill="#D92A27" fill-rule="nonzero" d="M62.232 10.876L100.37 41.388 108.747 41.388 62.232 2.617 15.711 41.388 24.094 41.388z"/>
                    <path fill="url(#izgx6pojbn)" fill-rule="nonzero" style="mix-blend-mode:overlay" d="M62.232 10.876L100.37 41.388 108.747 41.388 62.232 2.617 15.711 41.388 24.094 41.388z"/>
                    <path fill="#D92A27" fill-rule="nonzero" d="M24.329 84.154H100.13400000000001V89.72399999999999H24.329z"/>
                    <path fill="url(#zdu1kzxrjo)" fill-rule="nonzero" style="mix-blend-mode:overlay" d="M24.329 87.606H100.13400000000001V88.951H24.329z"/>
                    <path fill="#80D8DB" fill-rule="nonzero" d="M54.297 23.826H69.42699999999999V40.009H54.297z"/>
                    <g>
                        <path fill="#FFD93B" fill-rule="nonzero" d="M1.058 13.76L3.437 24.344 16.65 24.344 19.052 13.76z" transform="translate(91.908 66.682)"/>
                        <path fill="#47C068" fill-rule="nonzero" d="M9.757 6.16c.648-3.977 4.307-6.683 8.21-6.075.348 4.575-2.785 8.662-7.218 9.417-1.938.353-.992-3.343-.992-3.343zM5.242 10.972C1.766 9.51.136 5.557 1.59 2.117c4.2.728 7.162 4.473 6.856 8.67-.047 1.812-3.204.185-3.204.185z" transform="translate(91.908 66.682)"/>
                        <path fill="#009A8C" fill-rule="nonzero" d="M7.444 11.224C5.267 7.35 6.441 2.35 10.08 0c3.338 3.664 3.51 9.401.398 13.281-1.284 1.8-3.033-2.057-3.033-2.057z" transform="translate(91.908 66.682)"/>
                        <path fill="#71BF59" fill-rule="nonzero" d="M15.29 14.772c3.334-2.406 5.15-6.417 4.771-10.535-9.61-.186-9.84 7.605-10.325 8.256-.156.764-.226 1.545-.207 2.325l5.761-.046z" transform="translate(91.908 66.682)"/>
                        <path fill="#71BF59" fill-rule="nonzero" d="M3.883 14.818h6.702C9.815 9.883 5.375 6.261.203 6.352c-.773 3.291.706 6.692 3.68 8.466z" transform="translate(91.908 66.682)"/>
                        <path fill="#1A3E6F" fill-rule="nonzero" d="M18.36 17.068l-1.649 7.276H3.375l-1.624-7.276h16.61zm.692-3.308l-.624 2.646H1.659l-.6-2.646h17.993z" transform="translate(91.908 66.682)"/>
                        <path fill="#D92A27" fill-rule="nonzero" d="M19.052 25.403c0 .584-.535 1.058-1.195 1.058H2.23c-.315 0-.617-.112-.837-.311-.22-.2-.34-.468-.334-.747 0-.577.52-1.047 1.17-1.059h15.628c.655.012 1.182.479 1.195 1.059z" transform="translate(91.908 66.682)"/>
                        <path stroke="#FFF" stroke-linecap="round" stroke-linejoin="round" stroke-width=".5" d="M12.701 13.76c.668-2.551 2.08-4.668 4.234-6.35M6.35 13.76c-.5-1.7-1.558-3.112-3.175-4.234" transform="translate(91.908 66.682)"/>
                    </g>
                    <path fill="#EDF4F9" fill-rule="nonzero" d="M70.172 30.007L62.585 30.007 62.585 23.395 61.139 23.395 61.139 30.007 53.546 30.007 53.546 31.027 61.139 31.027 61.139 40.02 62.585 40.02 62.585 31.027 70.172 31.027z"/>
                    <path fill="#F4F8FB" fill-rule="nonzero" d="M52.913 22.347v19.12h17.892v-19.12H52.913zm16.194 17.32h-14.49V24.168h14.49v15.5z"/>
                    <path fill="#E4EAEF" fill-rule="nonzero" d="M50.554 41.483H73.904V43.214H50.554zM50.7 57.066L32.539 57.066 32.393 57.066 32.393 72.566 32.393 83.728 50.845 83.728 50.845 72.835 50.845 57.066z"/>
                    <path fill="#F4F8FB" fill-rule="nonzero" d="M34.752 59.173H48.458V84.57900000000001H34.752z"/>
                    <path fill="#80D8DB" fill-rule="nonzero" d="M36.646 73.748H40.753V82.674H36.646zM42.457 73.748H46.564V82.674H42.457zM37.033 61.549H46.184V71.103H37.033z"/>
                    <path fill="#E4EAEF" fill-rule="nonzero" d="M30.247 87.723H52.992000000000004V89.723H30.247z"/>
                    <path fill="#F4F8FB" fill-rule="nonzero" d="M30.247 87.723H52.992000000000004V88.723H30.247z"/>
                    <path fill="#E4EAEF" fill-rule="nonzero" d="M31.418 85.723H51.826V87.723H31.418z"/>
                    <path fill="#F4F8FB" fill-rule="nonzero" d="M31.418 85.723H51.826V86.723H31.418z"/>
                    <path fill="#E4EAEF" fill-rule="nonzero" d="M32.393 83.728H50.845V85.728H32.393z"/>
                    <path fill="#F4F8FB" fill-rule="nonzero" d="M32.393 83.728H50.845V84.728H32.393z"/>
                    <path fill="#80D8DB" fill-rule="nonzero" d="M60.982 53.592H87.492V74.46H60.982z"/>
                    <path fill="#F4F8FB" fill-rule="nonzero" d="M59.01 51.906v24.24h30.45v-24.24H59.01zm28.477 7.676h-7.385v-5.99h7.385v5.99zm-19.108 8.546h-7.397v-8.204h7.397v8.204zm1.053-8.204h9.633v8.204H69.42l.011-8.204zm9.633 8.551v5.985H69.42v-5.985h9.644zm-9.633-8.893v-5.99h9.633v5.99h-9.633zm10.68.342h7.375v8.204h-7.385l.01-8.204zM68.38 53.592v5.99h-7.397v-5.99h7.397zm-7.397 14.883h7.397v5.985h-7.397v-5.985zm19.12 5.985v-5.985h7.385v5.985h-7.385zM24.481 45.467H98.57300000000001V47.583999999999996H24.481z"/>
                </g>
                <g>
                    <path fill="#F6B0AC" fill-rule="nonzero" d="M0 29.337s8.942-1.719 11.394-4.433c2.45-2.719 4.546-5.366 7.22-8.875 1.75-2.295 3.302-4.843 4.605-7.405 2.587-5.086 8.205-6.58 13.445-6.92 0 0 17.952-3.076 20.577-.963 0 0 1.26 2.752-2.114 4.524l3.356.102s3.1 4.641-3.985 6.38c0 0 2.282.31 1.194 2.388 0 0-1.894 3.732-5.4 4.779 0 0 1.466 3.837-2.403 4.955 0 0-5.925.016-7.51 1.444-1.582 1.426-3.028 3.577-4.257 4.936-1.226 1.358-5.758 4.848-11.886 3.782 0 0-5.602 11.554-7.271 14.494" transform="translate(188.05 212.999)"/>
                    <path stroke="#0B264B" stroke-linecap="round" stroke-linejoin="round" d="M35.128 8.61s18.475-2.929 20.381-3.296M36.646 14.681s16.205-2.495 18.113-2.863M38.133 21.254s10.253-1.97 12.158-2.34" transform="translate(188.05 212.999)"/>
                </g>
                <path fill="#45C1C5" fill-rule="nonzero" d="M482.419 153.59c7.934-1.805 6.787-.333 25.317-5.794 7.537-2.222 22.8-3.433 33.173 5.794 10.373 9.227 26.882 46.44 29.566 55.023 4.523 14.469 21.373 50.082 22.88 80.276 0 0-16.909 30.241-52.446 17.937-12.357-4.278-47.667-21.954-91.397-57.113l16.97-31.374 64.654 30.024s-49.35-86.117-49.35-87.72c0-1.605.633-7.053.633-7.053z"/>
                <path fill="#E53F3D" fill-rule="nonzero" d="M146.623 255.173s4.353-2.282 14.556-5.482c2.47-.775 41.016-18.93 41.016-18.93l16.255 21.033s-81.877 69.465-113.556 38.503c-2.665-2.604-1.232-11.74-1.14-14.93.286-10.002 1.284-20.009 2.593-29.923 2.76-20.896 4.987-44.011 16.708-62.194 3.364-5.22 7.729-10.106 13.335-12.85.558-.272 9.07-4.916 11.677-1.143 1.6 2.315 3.951 20.335 4.168 40.57.782 14.868-5.612 45.346-5.612 45.346z"/>
                <path stroke="#FFF" stroke-linecap="round" stroke-linejoin="round" stroke-width=".5" d="M494.164 324.433c0-40.307 1.352-98.858-1.615-130.281-1.646-17.456-2.05-24.118-2.077-41.719M475.78 171.433c0 33.746-1.353 82.765 1.614 109.073 1.646 14.614 2.05 20.192 2.078 34.927M460.78 180.433c0 35.621-1.353 87.363 1.614 115.133 1.646 15.426 2.05 21.313 2.078 36.867M440.78 180.433c0 35.621-1.353 87.363 1.614 115.133 1.646 15.426 2.05 21.313 2.078 36.867M426.78 165.433c0 39.136-1.353 95.985 1.614 126.494 1.646 16.949 2.05 23.417 2.078 40.506M409.78 167.433c0 7.03-1.353 17.243 1.614 22.724 1.646 3.044 2.05 4.206 2.078 7.276" opacity=".6"/>
                <g>
                    <path fill="#FACCC8" fill-rule="nonzero" d="M55.787 10.344S32.214 2.111 28.442 1.373c-3.77-.737-11.504-3.722-15.15 2.426L.002 21.784s-.172 3.399 4.817 2.904l-2.99 5.296c3.872 4.227 8.657 1.668 11.3-2.086.22 3.78 2.486 2.05 3.637 2.504 1.219.482 7.235-1.323 6.432-2.12.017.017 3.697 3.656 6.874-.124l3.4-2.86s7.353 6.966 13 6.558c0 0 1.041 1.02 5.547-2.02l3.77-19.492z" transform="rotate(20 -344.742 1275.278)"/>
                    <path stroke="#231F20" stroke-linecap="round" stroke-linejoin="round" d="M4.818 24.687L16.711 10.105M23.366 13.613L13.967 27.946M29.176 17.69L23.196 28.283" transform="rotate(20 -344.742 1275.278)"/>
                </g>
                <path stroke="#1A3E6F" stroke-linecap="round" stroke-linejoin="round" d="M458.769 255.231L476.304 223.296"/>
                <path stroke="#0B264B" stroke-linecap="round" stroke-linejoin="round" d="M139.103 258.86l63.21-28.115 16.145 21.476s-81.364 66.925-112.646 38.876c-2.664-2.388-2.577-10.846-2.489-13.925.277-9.656 1.224-19.707 2.489-29.279 2.67-20.175 3.718-40.184 15.246-61.309 2.905-5.324 9.632-13.432 15.054-16.082.54-.262 6.585-2.877 8.383-3.22"/>
                <path stroke="#80D8DB" stroke-linecap="round" d="M208.088 266.446c1.632 20.258 12.922 29.332 33.87 27.221"/>
                <path stroke="#80D8DB" stroke-linecap="round" d="M352.612 293.52c-2.47 18.75 19.635 35.766 41.148 27.8" transform="rotate(-50 373.09 308.426)"/>
                <path stroke="#80D8DB" stroke-linecap="round" d="M361.08 162.272c-2.47 18.75 19.634 35.766 41.147 27.8" transform="rotate(180 381.558 177.178)"/>
                <path stroke="#80D8DB" stroke-linecap="round" d="M259.468 174.973c-2.47 18.75 19.635 35.767 41.148 27.8" transform="matrix(1 0 0 -1 0 379.758)"/>
                <path fill="#8420F5" fill-rule="nonzero" d="M436.454 262.988L432.378 269.788 440.56 268.201z" transform="matrix(1 0 0 -1 0 532.775)"/>
                <path fill="#FF9715" fill-rule="nonzero" d="M282.144 200.03l1.883-1c.217-.102.457.089.407.324l-.561 2.05c-.02.094.006.19.072.26l1.307 1.391c.165.175.057.462-.182.487l-1.898.193c-.094.01-.178.065-.224.148l-.98 2.02c-.124.378-.38.315-.476.095l-.75-2.21c-.038-.087-.117-.15-.211-.168l-2.215-.306c-.236-.045-.209-.244-.03-.404l1.654-1.42c.071-.063.106-.157.094-.252l-.457-2.145c-.03-.238.225-.408.433-.287l1.865 1.212c.082.048.183.052.269.011M401.749 233.9l1.883-.999c.217-.102.457.088.407.323l-.561 2.05c-.02.094.006.19.072.26l1.307 1.391c.165.175.057.463-.182.487l-1.897.193c-.095.01-.18.065-.225.149l-.98 2.02c-.124.378-.38.314-.476.095l-.75-2.21c-.038-.088-.117-.15-.21-.168l-2.216-.307c-.236-.044-.209-.244-.03-.404l1.654-1.419c.071-.063.106-.158.094-.252l-.457-2.146c-.03-.238.225-.408.433-.287l1.865 1.212c.082.048.183.053.269.012"/>
                <g>
                    <path fill="#71BF59" fill-rule="nonzero" d="M30.233 40.726s10.956-2.029 7.459 6.831C32.286 62.002.686 56.262.012 53.267-.661 50.275 25.367 21.63 35.44 30.005c4.287 3.733-5.207 10.722-5.207 10.722z" transform="translate(558.472 310.433)"/>
                    <path fill="#71BF59" fill-rule="nonzero" d="M30.23 41.053s-7.943.61-30.23 12.29c.673 2.933 32.284 8.557 37.692-5.596 3.498-8.681-7.462-6.694-7.462-6.694" transform="translate(558.472 310.433)"/>
                    <path fill="#35685E" fill-rule="nonzero" d="M10.164 48.286l-.26-.499c23.66-10.732 38.657-10.889 44.572-.467l-.525.26c-5.736-10.108-20.468-9.87-43.787.706M1.548 53.238l-.31-.56c2.017-1.117 4.001-2.178 5.897-3.154l.294.569c-1.891.973-3.87 2.031-5.881 3.145" transform="translate(558.472 310.433)"/>
                    <g>
                        <g transform="translate(558.472 310.433) translate(40.043 46.295)">
                            <mask id="urudlh8csq" fill="#fff">
                                <use xlink:href="#11wgaqrltp"/>
                            </mask>
                            <path fill="#FFE163" fill-rule="nonzero" d="M26.222 0H10.096S-.923 46.089.062 52.673c.986 6.584 5.018 10.102 5.018 10.102h26.159s4.032-3.518 5.017-10.102C37.24 46.089 26.222 0 26.222 0" mask="url(#urudlh8csq)"/>
                        </g>
                    </g>
                    <path fill="#1A3E6F" fill-rule="nonzero" stroke="#1A3E6F" stroke-width=".5" d="M49.524 48.913L66.857 48.913 66.857 48.286 49.524 48.286z" transform="translate(558.472 310.433)"/>
                    <path stroke="#1A3E6F" stroke-linejoin="round" stroke-width=".5" d="M39.619 98.437L75.524 98.437 75.524 97.81 39.619 97.81z" transform="translate(558.472 310.433)"/>
                    <path fill="#71BF59" fill-rule="nonzero" d="M87.977 50.984s-9.44-6.91-11.812-1.88c-5.19 11.703 22.76 32.758 25.451 31.3 2.691-1.457 6.266-37.225-9.188-38.261-9.53-.804-4.451 8.841-4.451 8.841" transform="translate(558.472 310.433)"/>
                    <path fill="#71BF59" fill-rule="nonzero" d="M87.933 50.787s-9.406-6.956-11.77-1.893c-5.173 11.782 22.68 32.977 25.36 31.51-.77-6.918-8.795-26.77-13.59-29.617M51.678 20.13s.452 9.168-7.04 8.287c-7.493-.882-1.535-27.179-1.535-27.179S67.295 15.016 60.796 21.01c-4.615 4.838-9.118-.88-9.118-.88" transform="translate(558.472 310.433)"/>
                    <path fill="#71BF59" fill-rule="nonzero" d="M51.804 20.625l-8.47-19.387s23.895 14.14 17.475 20.292c-4.558 4.964-9.005-.905-9.005-.905M68.095 28.435c6.487-8.752 17.809-14.004 30.953-18.53 0 0-6.145 21.36-14.191 24.34-7.87 2.338-16.762-5.81-16.762-5.81M39.619 20.695S28.19 7.548 19.809 1.238c0 0 1.602 15.485 6.686 19.495 5.101 3.515 13.124-.038 13.124-.038" transform="translate(558.472 310.433)"/>
                    <path fill="#35685E" fill-rule="nonzero" d="M64.886 33.429l-.505-.308c7.195-11.729 21.412-18.09 35.704-23.216l.2.554c-14.189 5.09-28.3 11.396-35.4 22.97M60.02 45.81l-.591-.079c.491-3.954 1.561-7.676 3.18-11.064l.534.27c-1.589 3.327-2.64 6.986-3.123 10.873M57.613 45.81C56.238 28.354 49.762 12.757 44.57 2.747l.513-.27C50.3 12.533 56.808 28.208 58.19 45.762l-.577.047zM100.8 78c-.512-2.063-1.102-4.09-1.752-6.027l.711-.163c.656 1.95 1.25 3.992 1.765 6.068L100.8 78z" transform="translate(558.472 310.433)"/>
                    <path fill="#1A3E6F" fill-rule="nonzero" d="M97.257 68.095c-5.261-15.101-14.695-25.532-24.036-26.573-4.515-.503-8.362 1.39-10.82 5.33l-.496-.308c2.584-4.142 6.621-6.134 11.381-5.602 9.563 1.066 19.188 11.65 24.524 26.962l-.553.191z" transform="translate(558.472 310.433)"/>
                    <path fill="#71BF59" fill-rule="nonzero" d="M44.489 56.253s1.926-7.792-3.013-6.607c-11.316 2.996-5.682 32.136-3.162 33.247 2.519 1.111 24.683-13.648 17.045-25.465-4.59-7.382-10.87-1.175-10.87-1.175" transform="translate(558.472 310.433)"/>
                    <path fill="#71BF59" fill-rule="nonzero" d="M44.534 56.861S39.55 72.927 38.38 82.895c2.51 1.085 24.594-13.338 16.984-24.885-4.574-7.214-10.831-1.149-10.831-1.149" transform="translate(558.472 310.433)"/>
                    <path fill="#1A3E6F" fill-rule="nonzero" d="M55.174 45.81C50.407 34.127 43.507 23.43 34.667 14.02l.424-.401c8.89 9.463 15.829 20.219 20.623 31.969l-.54.222zM31.78 11.143C28.128 7.427 24.1 3.84 19.81.48L20.163 0c4.31 3.375 8.356 6.98 12.027 10.713l-.41.43z" transform="translate(558.472 310.433)"/>
                    <path fill="#1A3E6F" fill-rule="nonzero" d="M38.963 80.476l-.582-.102c.263-1.468 6.553-35.972 15.492-38.22 1.482-.195 2.696.098 3.645.856 1.687 1.35 1.902 3.681 1.91 3.78l-.589.05c-.002-.022-.206-2.186-1.696-3.376-.816-.651-1.88-.9-3.16-.735-8.537 2.15-14.956 37.392-15.02 37.747" transform="translate(558.472 310.433)"/>
                </g>
                <ellipse cx="397.671" cy="285.44" fill="#71BF59" fill-rule="nonzero" rx="2.117" ry="2.119"/>
                <ellipse cx="370.151" cy="183.828" fill="#F5CF0E" fill-rule="nonzero" rx="2.644" ry="2.646"/>
                <ellipse cx="265.364" cy="252.628" fill="#71BF59" fill-rule="nonzero" rx="2.646" ry="2.649"/>
                <path fill="#FFD93B" fill-rule="nonzero" d="M397.973 137.588s.419 4.278-2.462 5.78c0 0 4.333-.212 5.56 3.743 0 0-.529-3.823 2.01-5.958 0 0-3.83.076-5.108-3.565" transform="scale(-1 1) rotate(50 0 -713.944)"/>
                <path fill="#FFD93B" fill-rule="nonzero" d="M254.023 157.283s.42 4.278-2.462 5.78c0 0 4.333-.212 5.56 3.743 0 0-.528-3.823 2.011-5.958 0 0-3.83.076-5.109-3.565" transform="scale(-1 1) rotate(50 0 -385.548)"/>
                <path fill="#FFD93B" fill-rule="nonzero" d="M286.835 304.408s.42 4.277-2.461 5.78c0 0 4.332-.212 5.56 3.743 0 0-.529-3.823 2.01-5.958 0 0-3.83.076-5.109-3.565" transform="scale(-1 1) rotate(50 0 -308.79)"/>
                <path fill="#FFD93B" fill-rule="nonzero" d="M326.83 107.6s.418 4.278-2.463 5.781c0 0 4.333-.212 5.56 3.742 0 0-.528-3.822 2.01-5.957 0 0-3.83.076-5.108-3.565" transform="scale(-1 1) rotate(50 0 -591.363)"/>
                <path fill="#8420F5" fill-rule="nonzero" d="M231.115 262.988L227.039 269.788 235.22 268.201z"/>
                <path stroke="#FFF" stroke-linecap="round" stroke-linejoin="round" stroke-width=".5" d="M552.163 168.433c0 38.668-3.042 94.835 3.633 124.98 3.706 16.745 4.615 23.136 4.676 40.02M510.78 147.433c0 43.589 1.437-19.348 1.437 126.69 0 20.618 5.735 39.7 5.675 58.732M532.163 148.433c0 43.354-3.042 106.33 3.633 140.129 3.706 18.775 4.615 25.94 4.676 44.871M572.163 215.433c0 20.154-3.042 49.43 3.633 65.141 3.706 8.728 4.615 12.059 4.676 20.86" opacity=".6"/>
                <path stroke="#FFF" stroke-linecap="round" stroke-linejoin="round" stroke-width=".5" d="M404.25 196.99c13.614 5.18 25.571-.326 39.637 2.176 13.19 2.345 25.996 3.193 39.138 4.974 15.56 2.114 65.961-3.458 81.55-6.707M594.47 287.99c-13.613 5.18-25.57-.326-39.635 2.176-13.19 2.345-25.996 3.193-39.138 4.974-15.56 2.114-65.962-3.458-81.55-6.707M427.25 310.99c13.614 5.18 25.571-.326 39.637 2.176 13.19 2.345 25.996 3.193 39.138 4.974 15.56 2.114 65.961-3.458 81.55-6.707M561.47 177.99c-13.613 5.18-25.57-.326-39.635 2.176-13.19 2.345-25.996 3.193-39.138 4.974-15.56 2.114-65.962-3.458-81.55-6.707M561.541 158.391c-7.071 2.14-12.953.73-20.166 2.01-6.764 1.199-13.285 1.895-20.006 2.908-7.958 1.2-33.33 1.028-41.126.475M461.22 221.337c13.434 5.148 25.256-.381 39.142 2.09 13.021 2.315 25.668 3.134 38.643 4.886 15.364 2.079 31.987-1.607 47.39-4.889 5.96-1.27 9.876-3.304 15.972-2.565 5.58.678 11.34 3.77 16.43-.574M452.25 244.99c13.614 5.18 25.571-.326 39.637 2.176 13.19 2.345 25.996 3.193 39.138 4.974 15.56 2.114 32.383-1.537 47.972-4.786 6.03-1.258 9.991-3.284 16.166-2.531 5.65.69 11.489 3.797 16.634-.538M461.25 268.99c13.614 5.18 25.571-.326 39.637 2.176 13.19 2.345 25.996 3.193 39.138 4.974 15.56 2.114 32.383-1.537 47.972-4.786 6.03-1.258 9.991-3.284 16.166-2.531 5.65.69 11.489 3.797 16.634-.538" opacity=".6"/>
                <path stroke="#1A3E6F" stroke-linecap="round" stroke-linejoin="round" d="M489.642 152.774c0 7.58-.285 14.867-3.426 21.304-4.96 10.166-17.484 23.146-17.484 23.146l-14.875-10.156-21.732 7.12s-2.489-9.89-2.79-14.83c-.3-4.909 0-10.11.988-14.716h7.504s-4.815 19.32 9.739 19.32c16.584.75 34.853-11.472 34.853-30.372l7.223-.816z"/>
                <path stroke="#1A3E6F" stroke-linecap="round" stroke-linejoin="round" d="M506.449 194.395c5.946 10.306 30.323 49.449 39.359 61.506-7.96-3.434-78.953-37.515-78.953-37.515l-17.177 30.669s26.069 20.864 47.795 33.546c21.726 12.683 32.57 20.998 44.455 24.313 8.3 2.599 23.18 4.662 34.193-1.956 11.014-6.617 18.445-14.748 17.381-22.357-3.617-25.867-19.226-67.998-40.399-110.924-10.7-21.696-17.943-23.514-29.2-25.065-11.256-1.551-29.278 4.94-29.278 4.94s-2.174.682-4.684 1.2"/>
            </g>
        </g>
    </g>
</svg>
