<svg xmlns="http://www.w3.org/2000/svg" width="13" height="16" viewBox="0 0 13 16">
    <g fill="none" fill-rule="evenodd">
        <g fill="#45C1C5" fill-rule="nonzero">
            <path d="M29.4 17h-8c-1.36 0-2.4 1.04-2.4 2.4v4.8h6.88l-1.84-1.84c-.32-.32-.32-.8 0-1.12.32-.32.8-.32 1.12 0l3.2 3.2c.32.32.32.8 0 1.12l-3.2 3.2c-.32.32-.8.32-1.12 0-.32-.32-.32-.8 0-1.12l1.84-1.84H19v4.8c0 1.36 1.04 2.4 2.4 2.4h8c1.36 0 2.4-1.04 2.4-2.4V19.4c0-1.36-1.04-2.4-2.4-2.4z" transform="translate(-19 -17)"/>
        </g>
    </g>
</svg>
