<svg xmlns="http://www.w3.org/2000/svg" width="35" height="35" viewBox="0 0 35 35">
    <g fill="none" fill-rule="evenodd">
        <g transform="translate(-8 -8)">
            <circle cx="25.5" cy="25.5" r="17.5" fill="#45C1C5"/>
            <g stroke="#FFF">
                <path stroke-linecap="round" stroke-linejoin="round" d="M10.296 0c-.159.719-.972 2.702-1.852 3.326h-3.07C4.748 2.656 3.837 1.28 3.581 0h6.714zM12.653 16c1.926-2.883 1.417-6.746-1.19-9.032-2.606-2.286-6.503-2.286-9.11 0C-.252 9.254-.761 13.118 1.165 16h11.489z" transform="translate(19 17)"/>
                <path fill="#FFF" fill-rule="nonzero" stroke-width=".5" d="M8.556 10.22h-.73c-.041-.396-.258-.763-.576-.989h1.306c.079 0 .143-.063.143-.141 0-.078-.064-.141-.143-.141h-3.04c-.078 0-.143.063-.143.141 0 .078.065.141.144.141h.87c.592 0 1.08.438 1.15.989h-2.02c-.08 0-.144.063-.144.14 0 .078.065.142.144.142h2.02c-.071.572-.565 1-1.15 1.002h-.869c-.08.002-.145.067-.143.146 0 .038.017.075.044.101l2.173 2.02c.058.054.148.052.203-.005.054-.058.051-.147-.006-.202l-1.912-1.777h.509c.75 0 1.368-.565 1.44-1.285h.73c.079 0 .143-.064.143-.141 0-.078-.064-.141-.143-.141z" transform="translate(19 17)"/>
            </g>
        </g>
    </g>
</svg>
