<svg xmlns="http://www.w3.org/2000/svg" width="35" height="35" viewBox="0 0 35 35">
    <g fill="none" fill-rule="evenodd">
        <g transform="translate(-8 -8)">
            <circle cx="25.5" cy="25.5" r="17.5" fill="transparent"/>
            <g>
                <path stroke="#FFF" stroke-linecap="round" stroke-linejoin="round" d="M13.601 0L13.601 5.302M10.703 9.279L10.703 14.581M16.5 1.657v2.32c-.062.69-.428 1.233-.892 1.325H3.815c-.397 0-.916-.722-.916-1.325h0" transform="translate(17 18)"/>
                <path stroke="#FFF" stroke-linecap="round" stroke-linejoin="round" d="M2.899 1.326C2.929.599 3.325.024 3.815 0h11.793c.464.092.83.635.892 1.326v2.65M13.601 10.936v2.32c-.062.69-.427 1.233-.892 1.325H.916C.52 14.581 0 13.86 0 13.256h0" transform="translate(17 18)"/>
                <path stroke="#FFF" stroke-linecap="round" stroke-linejoin="round" d="M0 10.605c0-.603.52-1.326.916-1.326H12.71c.465.093.83.635.892 1.326v2.65" transform="translate(17 18)"/>
                <path fill="#FFF" fill-rule="nonzero" d="M5.784 2.818c.32-.181.43-.582.244-.896-.184-.313-.593-.42-.913-.24-.32.182-.43.582-.245.896.185.313.594.42.914.24zM2.885 12.771c.32-.18.43-.582.245-.895-.185-.314-.594-.421-.914-.24-.32.18-.43.582-.245.895.185.314.594.421.914.24z" transform="translate(17 18)"/>
            </g>
        </g>
    </g>
</svg>
