<svg xmlns="http://www.w3.org/2000/svg" width="35" height="35" viewBox="0 0 35 35">
    <g fill="none" fill-rule="evenodd">
        <g transform="translate(-8 -8)">
            <circle cx="25.5" cy="25.5" r="17.5" fill="transparent"/>
            <g stroke="#FFF" stroke-linecap="round" stroke-linejoin="round">
                <path d="M16.665 13.61c1.506.254 2.607 1.56 2.604 3.088-.664.753-4.05 1.177-7.812 1.279-1.203.03-2.442.03-3.645 0C4.054 17.87.672 17.456 0 16.7c-.005-1.529 1.097-2.836 2.604-3.091M8.853 10.709L9.895 10.709M9.374 15.657L9.374 17.74M4.427 4.192v1.614c-.302.125-.505.411-.521.737v1.042c.018.323.22.608.52.731v.57c0 2.589 2.216 4.687 4.948 4.687 2.731 0 4.947-2.098 4.947-4.686v-.57c.521-.11.521-.397.521-.732V6.543c0-.338 0-.625-.52-.732V4.192C14.147 1.397 12.498 0 9.373 0 6.249 0 4.6 1.397 4.427 4.192zM8.853 10.709L9.895 10.709" transform="translate(16 16)"/>
                <path d="M7.483 17.904L4.427 13.573 6.249 12.532M11.525 17.904L14.582 13.573 12.759 12.532" transform="translate(16 16)"/>
            </g>
        </g>
    </g>
</svg>
