<svg xmlns="http://www.w3.org/2000/svg" width="35" height="35" viewBox="0 0 35 35">
  <g fill="none" fill-rule="evenodd">
    <g transform="translate(-8 -8)">
      <circle cx="25.5" cy="25.5" r="17.5" fill="trasparent"/>
      <g stroke="#FFF" stroke-linecap="round" stroke-linejoin="round">
        <path d="M0 15.754L17.213 15.754M15.983 4.918L15.983 11.312M12.786 4.918L12.786 13.279M4.426 4.918L4.426 13.279M1.229 11.312L1.229 4.918M15.983 13.279L1.229 13.279M1.721 4.672h14.842c.24-.005.443-.172.495-.406.052-.233-.062-.471-.276-.577L9.221.12c-.308-.161-.676-.161-.984 0L.677 3.689c-.215.106-.329.344-.277.577.052.234.256.401.495.406h.826M9.836 12.787V8.115c.014-.32-.103-.631-.323-.863-.22-.232-.525-.364-.845-.366h-.032c-.685-.002-1.244.545-1.26 1.229v3.197" transform="translate(17 17)"/>
      </g>
    </g>
  </g>
</svg>
