<svg xmlns="http://www.w3.org/2000/svg" width="18" height="18" viewBox="0 0 18 18">
    <g fill="none" fill-rule="evenodd">
        <g fill="#45C1C5" fill-rule="nonzero">
            <path d="M25 16c1.244 0 2.374.612 3.068 1.593 1.185-.203 2.416.163 3.296 1.043.88.88 1.246 2.111 1.043 3.296C33.388 22.626 34 23.756 34 25s-.612 2.374-1.593 3.068c.203 1.185-.163 2.416-1.043 3.296-.88.88-2.111 1.246-3.296 1.043C27.374 33.388 26.244 34 25 34s-2.374-.612-3.068-1.593c-1.185.203-2.416-.163-3.296-1.043-.88-.88-1.246-2.111-1.043-3.296C16.612 27.374 16 26.244 16 25s.612-2.374 1.593-3.068c-.203-1.185.163-2.416 1.043-3.296.88-.88 2.111-1.246 3.296-1.043C22.626 16.612 23.756 16 25 16zm2.901 6.881c-.305-.305-.8-.305-1.107 0l-2.577 2.577-1.011-1.011c-.306-.306-.802-.306-1.107 0-.306.305-.306.8 0 1.106l1.565 1.566c.306.305.801.305 1.107 0l3.13-3.13c.306-.306.306-.802 0-1.108z" transform="translate(-16 -16)"/>
        </g>
    </g>
</svg>
