<svg xmlns="http://www.w3.org/2000/svg" xmlns:xlink="http://www.w3.org/1999/xlink" width="718" height="593" viewBox="0 0 718 593">
    <defs>
        <linearGradient id="njxgqq046a" x1="6.791%" x2="112.449%" y1="46.665%" y2="55.66%">
            <stop offset="0%" stop-color="#FFF"/>
            <stop offset="52.23%" stop-color="#45C1C5"/>
            <stop offset="100%" stop-color="#F2FDFF"/>
        </linearGradient>
        <linearGradient id="qpu5i6kyfb" x1="6.791%" x2="100%" y1="46.714%" y2="53.8%">
            <stop offset="0%" stop-color="#FFF"/>
            <stop offset="52.23%" stop-color="#45C1C5"/>
            <stop offset="100%" stop-color="#F2FDFF"/>
        </linearGradient>
        <linearGradient id="dfidtcgq5c" x1="6.791%" x2="97.88%" y1="46.618%" y2="53.911%">
            <stop offset="0%" stop-color="#FFF"/>
            <stop offset="52.23%" stop-color="#45C1C5"/>
            <stop offset="100%" stop-color="#F2FDFF"/>
        </linearGradient>
        <linearGradient id="818er31s2d" x1="6.791%" x2="105.11%" y1="47.15%" y2="47.151%">
            <stop offset="0%" stop-color="#FFF"/>
            <stop offset="52.23%" stop-color="#45C1C5"/>
            <stop offset="100%" stop-color="#F2FDFF"/>
        </linearGradient>
        <linearGradient id="ae2itq7cee" x1="19.722%" x2="85.374%" y1="52.313%" y2="48.074%">
            <stop offset="0%" stop-color="#FFF"/>
            <stop offset="52.23%" stop-color="#45C1C5"/>
            <stop offset="100%" stop-color="#F2FDFF"/>
        </linearGradient>
        <linearGradient id="1gxi2dl6rf" x1="4.478%" x2="101.383%" y1="52.695%" y2="45.92%">
            <stop offset="0%" stop-color="#FFF"/>
            <stop offset="52.23%" stop-color="#45C1C5"/>
            <stop offset="100%" stop-color="#F2FDFF"/>
        </linearGradient>
        <linearGradient id="fh6koo4wrg" x1="4.061%" x2="121.713%" y1="53.111%" y2="45.409%">
            <stop offset="0%" stop-color="#FFF"/>
            <stop offset="52.23%" stop-color="#45C1C5"/>
            <stop offset="100%" stop-color="#F2FDFF"/>
        </linearGradient>
        <path id="wiv6sh98eh" d="M111.077 15.83s-4.789-12.26-16.27-14.199L84.779 0s.582 5.373.343 7.273c-.238 1.9-.858 8.267-11.169 8.852 0 0-9.553 1.27-11.333-9.895-.437-2.745-.398-4.21-.651-5.731-13.189 3.39-.075-.227-13.189 3.39C38.743 6.66 28.131 9.16 23.932 22.3c0 0-9.287 32.648-11.38 43.443-1.654 8.524-10.367 46.73-12.552 58.5 8.951 2.04 8.951 2.04 17.647 3.491 0 0 2.825-12.245 4.237-16.953 1.415-4.71 11.34-33.373 11.932-34.85.584-1.46 2.345-6.44 4.286-10.188.836 5.524.836 10.47.147 11.705-6.156 11.043-1.809 16.259-1.809 16.259s18.342.825 23.181.666c18.044-.591 44.693-3.243 46.083-5.44 2.027-3.2 1.174-8.96-2.657-22.421-.93-3.262-1.216-7.84-1.616-12.279 8.243 18.674 11.833 18.417 15.858 25.49 1.231 2.164 46.734 19.662 46.734 19.662l2.959-18.782s-35.087-20.46-38.454-24.839c-2.958-3.845-17.451-39.933-17.451-39.933z"/>
    </defs>
    <g fill="none" fill-rule="evenodd">
        <g>
            <g>
                <g>
                    <path stroke="url(#njxgqq046a)" d="M2.92 59.937L446.496 183.13" opacity=".505" transform="translate(9 -54) translate(-8 54) rotate(3 -6932.349 376.183) rotate(-3 224.708 121.533)"/>
                    <path stroke="url(#qpu5i6kyfb)" d="M92.041 34.992L518.36 152.521" transform="translate(9 -54) translate(-8 54) rotate(3 -6932.349 376.183) rotate(-3 305.2 93.756)"/>
                    <path stroke="url(#dfidtcgq5c)" d="M192.31 10.337L590.231 121.619" transform="translate(9 -54) translate(-8 54) rotate(3 -6932.349 376.183) rotate(-3 391.27 65.978)"/>
                    <path stroke="url(#818er31s2d)" d="M654.445 70.846L246.189 174.807" transform="translate(9 -54) translate(-8 54) rotate(3 -6932.349 376.183) rotate(-3 450.69 123.221)"/>
                    <path stroke="url(#ae2itq7cee)" d="M442.752 5.836L34.497 109.797" transform="translate(9 -54) translate(-8 54) rotate(3 -6932.349 376.183)"/>
                    <path stroke="url(#1gxi2dl6rf)" d="M546.492 61.737L188.069 144.943" transform="translate(9 -54) translate(-8 54) rotate(3 -6932.349 376.183) rotate(-3 367.28 103.34)"/>
                    <path stroke="url(#fh6koo4wrg)" d="M472.695 38.961L116.832 123.448" transform="translate(9 -54) translate(-8 54) rotate(3 -6932.349 376.183) rotate(-1 294.764 81.204)"/>
                </g>
                <path fill="#71BF59" d="M309.224 329.826s.24 1.499.255 3.794v.44c-.03 4.485-.955 11.618-5.849 16.773-.571 1.226-1.603 3.37-1.816 3.846-.19.427-.386.852-.585 1.275.733-.467 1.798-1.215 3.087-2.328 2.526-2.185 5.447-6.396 14.212-7.113-4.236 5.23-7.333 7.237-10.878 8.508-2.716.971-5.569 1.713-7.033 2.193-1.313 2.651-2.792 5.215-4.416 7.684 1.213-.176 3.423-.592 5.699-1.49 3.405-1.345 9.498-2.551 14.381-.975-4.802 4.005-10.365 4.343-11.972 4.284-2.445-.095-6.774-.72-8.874-.68-.566.83-1.15 1.648-1.75 2.454-1.512 2.034-3.128 3.99-4.839 5.857 1.863.24 4.05-.421 7.742-.455 2.497-.02 7.998 1.344 11.697 2.955-6.606 3.322-13.58 1.282-16.973-.22-1.504-.665-2.926-.878-3.723-.946-1.513 1.576-3.097 3.082-4.745 4.515-2.715 2.361-5.597 4.492-8.604 6.438.764-.032 1.913-.113 3.41-.313 2.915-.391 9.782-3.727 15.419.512-2.35 1.418-8.112 2.73-12.033 2.534-2.645-.133-6.764-1.138-8.58-1.61-1.169.719-2.356 1.411-3.558 2.08-1.35.753-2.715 1.48-4.087 2.192 1.687-.295 3.78-.6 5.12-.387 2.395.38 6.76.814 10.875 4.634-6.276 2.522-12.92-1.822-15.644-2.345-1.695-.327-2.77-.383-3.342-.378-2.966 1.491-5.954 2.943-8.915 4.447-1.76.893-3.514 1.81-5.245 2.77 10.263-.612 16.593 6.79 16.593 6.79-9.066 1.412-13.082-3.212-14.95-4.32-1.069-.637-2.671-1.015-3.846-1.221-2.735 1.596-5.397 3.316-7.922 5.23-.285.216-.732.075-.91-.209-.201-.326-.071-.692.21-.915.592-.462 1.19-.918 1.797-1.365 2.397-1.766 4.917-3.353 7.5-4.831.296-.728.609-1.919.355-3.354-.724-4.103-1.657-12.494-.27-16.191 2.778 2.167 3.782 10.644 3.068 13.119-.507 1.758-1.191 4.237-1.545 5.525 2.036-1.124 4.104-2.189 6.175-3.23 1.947-.98 3.904-1.943 5.856-2.915.058-.622.095-1.593.01-2.983-.168-2.78-3.602-9.962-.308-15.902 3.24 4.591 3.109 9.001 3.18 11.439.053 1.919-1.098 5.188-1.577 6.794 2.943-1.477 5.866-2.992 8.715-4.642.568-.329 1.132-.663 1.692-1.004-.08-1.142-.248-3.3-.555-6.23-.644-6.153.96-12.346 2.998-15.507 2.187 7.547 2.065 12.451.643 16.077-.837 2.138-1.374 3.762-1.686 4.788 3.35-2.128 6.543-4.491 9.516-7.133l.595-.537.013-.138c.066-.82.029-2.106-.703-3.794-1.27-2.938-5.64-7.859-4.921-15.538 4.684 4.545 6.59 9.202 7.073 11.597.358 1.767-.278 5.243-.598 7.075 2.652-2.493 5.124-5.186 7.383-8.046l.15-.194c-.068-.804-.41-2.199-1.678-4.193-2.136-3.354-5.692-8.994-5.125-15.987 4.55 4.368 6.268 10.149 6.62 13.47.239 2.235.754 4.393 1.065 5.566.46-.61.908-1.225 1.347-1.847 1.36-1.926 2.892-4.464 4.358-7.118-.297-.655-.93-1.796-2.261-3.767-2.784-4.119-5.118-6.512-4.882-16.815 4.936 6.546 6.067 10.422 7.194 15.7.243 1.776.424 3 .546 3.788 1.485-2.752 2.865-5.553 3.885-7.864-.158-1.741-.198-4.702.593-8.613 1.322-6.515 6.17-11.5 6.17-11.5z" transform="translate(9 -54) translate(-8 54) rotate(-104 277.528 368.826)"/>
                <path fill="#FFD93B" d="M246.525 254.276c17.606-15.916 34.944-50.718 33.204-85.176-1.8-35.646 12.22-59.033 30.892-79.436 9.948-10.87 31.388-17.568 46.375-20.226 41.609-7.38 77.406 45.326 116.137 29.268 38.732-16.057 56.293-18.818 83.04-5.197 26.746 13.621 35.99 61.75 37.59 86.684 1.971 30.712 16.264 57.154 32.889 82.335 12.705 19.242 42.843 27.29 45.77 54.573 2.682 25.014-9.896 54.195-58.205 63.101 0 0-237.561 27.432-328.97 27.432-24.072 0-122.083-77.999-38.722-153.358z" opacity=".15" transform="translate(9 -54) translate(-8 54) rotate(20 443.148 238.18)"/>
                <path fill="#FFE163" d="M656.894 256.14c-2.51-6.553-4.131-8.605-11.869-6.553-2.135.565-6.65.403-8.712-.39-4.84-1.856-4.844-8.085-5.858-13.173-1.016-5.086-1.552-10.623-4.947-14.544-3.794-4.383-10.508-5.48-15.97-3.546-5.485 1.94-9.649 6.353-14.075 10.13-4.43 3.775-9.899 7.185-15.668 6.429-4.241-.556-7.896-3.292-12.054-4.3-8.3-2.01-16.603 3.136-22.914 8.895-6.31 5.758-12.2 8.78-20.333 11.38-4.39 1.403-14.982 3.464-26.02 1.079-5.275-1.14-8.42-4.332-13.956-4.332-8.055 0-12.844 4.775-16.99 8.924h189.366z" transform="translate(9 -54) translate(-8 54) scale(-1 1) rotate(-9 0 7380.145)"/>
                <g>
                    <path fill="#71BF59" d="M42.044 2.736s6.086 24.795 8.294 39.28C52.545 56.504 52.5 78.598 43.98 91.95c-8.522 13.354-12.653 17.53-16.22 20.45-3.562 2.92-11.27 7.21-11.27 7.21s-4.987-4.407-6.367-19.414c-1.383-15.012 2.492-28.121 4.29-32.278 4.25-9.833 9.61-20.038 13.64-30.032 4.402-10.908 13.991-35.15 13.991-35.15" transform="translate(9 -54) translate(-8 54) rotate(-60 413.853 -21.47) rotate(10 30.697 61.172)"/>
                    <path stroke="#1A3E6F" stroke-linecap="round" stroke-linejoin="round" d="M37.146 39.777c-1.11 9.678-3.458 19.567-7.087 28.94C24.584 82.854 13.98 95.71 10.54 110.334c-.706 3.002-1.334 6.171-.522 9.196 0 0 1.53 7.597 4.59 10.246" transform="translate(9 -54) translate(-8 54) rotate(-60 413.853 -21.47) rotate(6 23.392 84.777)"/>
                </g>
                <path fill="#FFE163" d="M399.49 59.14c-1.868-4.878-3.075-6.406-8.835-4.878-1.59.42-4.95.3-6.485-.29-3.602-1.382-3.606-6.02-4.36-9.806-.757-3.787-1.156-7.908-3.683-10.827-2.824-3.262-7.822-4.079-11.887-2.64-4.084 1.445-7.183 4.73-10.478 7.54-3.298 2.811-7.369 5.35-11.663 4.787-3.158-.414-5.878-2.45-8.974-3.2-6.177-1.497-12.358 2.333-17.056 6.62s-9.082 6.537-15.136 8.471c-3.268 1.045-11.152 2.58-19.37.804-3.926-.85-6.267-3.225-10.388-3.225-5.996 0-9.56 3.555-12.647 6.643H399.49z" transform="translate(9 -54) translate(-8 54) scale(-1 1) rotate(-9 0 4225.036)"/>
                <g>
                    <path fill="#1A3E6F" d="M146.457 15.063C123.859 12.246 31.667.222 31.667.222 17.255-1.398 1.25 5.98 1.25 18.16l8.718 390.326c-.009 11.546 1.136 17.103 15.55 21.455l126.03 41.092c18.059 4.902 32.46-9.66 32.46-25.011V45.148c0-22.51-14.955-27.268-37.552-30.085z" transform="translate(9 -54) translate(-8 54) translate(324.528)"/>
                    <path fill="#FFF" stroke="#1A3E6F" d="M136.488 18.23C113.891 15.412 21.698 3.388 21.698 3.388 7.287 1.77.001 11.37.001 23.55v388.103c-.01 11.546 1.136 17.104 15.55 21.456l130.675 36.619c18.057 4.902 27.814-5.188 27.814-20.538V48.315c0-22.51-14.955-27.268-37.552-30.085z" transform="translate(9 -54) translate(-8 54) translate(324.528)"/>
                    <path fill="#1A3E6F" d="M89.647 433.105c.578 3.468-1.766 6.28-5.233 6.28-3.468 0-6.746-2.812-7.326-6.28-.579-3.468 1.765-6.279 5.231-6.279 3.47 0 6.75 2.811 7.328 6.28" transform="translate(9 -54) translate(-8 54) translate(324.528) rotate(8 83.367 433.105)"/>
                    <path stroke="#12406A" stroke-linecap="round" stroke-linejoin="round" stroke-width="3" d="M74.096 29.49L98.903 32.591" transform="translate(9 -54) translate(-8 54) translate(324.528)"/>
                    <path stroke="#12406A" stroke-linecap="round" stroke-linejoin="round" d="M.096 31.49L174.5 56.326M.096 394.49L174.5 433.326" transform="translate(9 -54) translate(-8 54) translate(324.528)"/>
                </g>
                <path fill="#71BF59" d="M545.926 346.082s6.086 24.795 8.294 39.28c2.207 14.487 2.162 36.581-6.358 49.933-8.522 13.354-12.653 17.53-16.219 20.45-3.562 2.92-11.271 7.21-11.271 7.21s-4.987-4.407-6.367-19.414c-1.383-15.012 2.492-28.121 4.29-32.278 4.25-9.834 9.61-20.039 13.64-30.032 4.402-10.908 13.991-35.15 13.991-35.15" transform="translate(9 -54) translate(-8 54) rotate(10 534.58 404.518)"/>
                <path fill="#71BF59" d="M586.224 398.826s.24 1.499.255 3.794v.44c-.03 4.485-.955 11.618-5.849 16.773-.571 1.226-1.603 3.37-1.816 3.846-.19.427-.386.852-.585 1.275.733-.467 1.798-1.215 3.087-2.328 2.526-2.185 5.447-6.396 14.212-7.113-4.236 5.23-7.333 7.237-10.878 8.508-2.716.971-5.569 1.713-7.033 2.193-1.313 2.651-2.792 5.215-4.416 7.684 1.213-.176 3.423-.592 5.699-1.49 3.405-1.345 9.498-2.551 14.381-.975-4.802 4.005-10.365 4.343-11.972 4.284-2.445-.095-6.774-.72-8.874-.68-.566.83-1.15 1.648-1.75 2.454-1.512 2.034-3.128 3.99-4.839 5.857 1.863.24 4.05-.421 7.742-.455 2.497-.02 7.998 1.344 11.697 2.955-6.606 3.322-13.58 1.282-16.973-.22-1.504-.665-2.926-.878-3.723-.946-1.513 1.576-3.097 3.082-4.745 4.515-2.715 2.361-5.597 4.492-8.604 6.438.764-.032 1.913-.113 3.41-.313 2.915-.391 9.782-3.727 15.419.512-2.35 1.418-8.112 2.73-12.033 2.534-2.645-.133-6.764-1.138-8.58-1.61-1.169.719-2.356 1.411-3.558 2.08-1.35.753-2.715 1.48-4.087 2.192 1.687-.295 3.78-.6 5.12-.387 2.395.38 6.76.814 10.875 4.634-6.276 2.522-12.92-1.822-15.644-2.345-1.695-.327-2.77-.383-3.342-.378-2.966 1.491-5.954 2.943-8.915 4.447-1.76.893-3.514 1.81-5.245 2.77 10.263-.612 16.593 6.79 16.593 6.79-9.066 1.412-13.082-3.212-14.95-4.32-1.069-.637-2.671-1.015-3.846-1.221-2.735 1.596-5.397 3.316-7.922 5.23-.285.216-.732.075-.91-.209-.201-.326-.071-.692.21-.915.592-.462 1.19-.918 1.797-1.365 2.397-1.766 4.917-3.353 7.5-4.831.296-.728.609-1.919.355-3.354-.724-4.103-1.657-12.494-.27-16.191 2.778 2.167 3.782 10.644 3.068 13.119-.507 1.758-1.191 4.237-1.545 5.525 2.036-1.124 4.104-2.189 6.175-3.23 1.947-.98 3.904-1.943 5.856-2.915.058-.622.095-1.593.01-2.983-.168-2.78-3.602-9.962-.308-15.902 3.24 4.591 3.109 9.001 3.18 11.439.053 1.919-1.098 5.188-1.577 6.794 2.943-1.477 5.866-2.992 8.715-4.642.568-.329 1.132-.663 1.692-1.004-.08-1.142-.248-3.3-.555-6.23-.644-6.153.96-12.346 2.998-15.507 2.187 7.547 2.065 12.451.643 16.077-.837 2.138-1.374 3.762-1.686 4.788 3.35-2.128 6.543-4.491 9.516-7.133l.595-.537.013-.138c.066-.82.029-2.106-.703-3.794-1.27-2.938-5.64-7.859-4.921-15.538 4.684 4.545 6.59 9.202 7.073 11.597.358 1.767-.278 5.243-.598 7.075 2.652-2.493 5.124-5.186 7.383-8.046l.15-.194c-.068-.804-.41-2.199-1.678-4.193-2.136-3.354-5.692-8.994-5.125-15.987 4.55 4.368 6.268 10.149 6.62 13.47.239 2.235.754 4.393 1.065 5.566.46-.61.908-1.225 1.347-1.847 1.36-1.926 2.892-4.464 4.358-7.118-.297-.655-.93-1.796-2.261-3.767-2.784-4.119-5.118-6.512-4.882-16.815 4.936 6.546 6.067 10.422 7.194 15.7.243 1.776.424 3 .546 3.788 1.485-2.752 2.865-5.553 3.885-7.864-.158-1.741-.198-4.702.593-8.613 1.322-6.515 6.17-11.5 6.17-11.5z" transform="translate(9 -54) translate(-8 54) rotate(-10 554.528 437.826)"/>
                <path stroke="#1A3E6F" stroke-linecap="round" stroke-linejoin="round" d="M541.029 383.123c-1.11 9.678-3.46 19.567-7.088 28.939-5.475 14.14-16.078 26.995-19.518 41.619-.706 3.002-1.334 6.171-.522 9.196 0 0 1.53 7.597 4.59 10.246" transform="translate(9 -54) translate(-8 54) rotate(6 527.274 428.123)"/>
                <path fill="#71BF59" d="M576.404 432.082s3.125 12.729 4.258 20.166c1.133 7.436 1.11 18.779-3.264 25.633-4.375 6.856-6.495 9-8.326 10.499-1.83 1.499-5.787 3.702-5.787 3.702s-2.56-2.263-3.268-9.967c-.71-7.707 1.28-14.437 2.202-16.57 2.182-5.05 4.934-10.288 7.003-15.419 2.26-5.6 7.182-18.044 7.182-18.044" transform="translate(9 -54) translate(-8 54) scale(1 -1) rotate(86 1066.1 0)"/>
                <path stroke="#1A3E6F" stroke-linecap="round" stroke-linejoin="round" d="M557.797 442.094c-.605 4.946-1.886 10-3.864 14.79-2.986 7.228-8.767 13.798-10.642 21.273-.386 1.534-.728 3.154-.285 4.7 0 0 .834 3.883 2.503 5.237" transform="translate(9 -54) translate(-8 54) scale(1 -1) rotate(88 1031.916 0)"/>
                <g>
                    <path fill="#1A3E6F" d="M32.025 12.555c.666-1.018 1.028-2.246.963-3.554-.17-3.283-2.97-5.806-6.252-5.637-.278.014-.547.052-.812.105C22.711 1.415 20.333-.966 15.418.405c-.926.259-4.005 2.116-7.013 4.245-.092.067-.187.132-.28.2-3.053 2.181-5.96 4.6-6.381 5.858-.375 1.12-.37 2.326-.244 3.508-1.592 1.69-1.958 4.325-.9 6.508l2.734 5.64c.377-.156.778-.273 1.2-.334l1.822-.316c.174.049 1.083.31 1.263.544.932 1.205 1.145 4.06 1.636 4.182 1.678.195 17.444-5.795 20.732-6.272 3.288-.476 5.566-3.528 5.09-6.815-.287-1.992-1.523-3.608-3.181-4.47.056-.104.102-.213.13-.328z" transform="translate(9 -54) translate(-8 54) translate(299.927 75.74)"/>
                    <path fill="#FACCC9" d="M18.251 14.645c-1.738-.003-3.093 1.655-4.82 1.858-1.244.145-2.543-.578-3.07-1.712 1.771 5.075 1.36 10.874-1.106 15.649 0-2.844-.85-3.788-1.921-4.449-1.258-.775-3.722-.157-4.1 0-2.12.87-3.374 3.476-3.032 5.84l.073.496c.403 2.785 2.663 4.18 4.367 4.497 1.704.318 2.786-.362 2.786-.362l-.795 22.04c.321 5.003 8.973 21.618 13.977 21.296l1.997-3.548c.135-.24 2.162-1.137 2.591-1.579 1.119-1.154 1.72-2.97 2.244-4.445 1.203-3.403 2.803-6.958 2.948-10.564.067-1.704-.543-4.235-.872-6.046-.302-1.642-.644-3.16-1.044-5.13-.714-2.34 5.63-.153 6.112-4.019.39-3.127-.892-9.329-1.244-12.476-.573-5.097-1.479-10.178-2.213-15.255-.127-.861-.386-1.668-.745-2.411-.364.3-.757.562-1.173.775-2.723 1.398-6.042 1.103-8.92.064-.664-.239-1.333-.518-2.04-.52z" transform="translate(9 -54) translate(-8 54) translate(299.927 75.74)"/>
                    <path fill="#E53F3E" fill-opacity=".2" d="M28.411 48.031c-.99 0-8.9 1.454-11.72-1.956 0 0 3.137 5.162 12.495 5.996l-.775-4.04z" transform="translate(9 -54) translate(-8 54) translate(299.927 75.74)"/>
                    <path stroke="#1A3E6F" stroke-linecap="round" stroke-linejoin="round" stroke-width=".5" d="M4.366 29.818s1.67-.465 2.063 1.212c.393 1.677-1.481 1.972-1.481 1.972M25.848 29.745l1.6 4.859c.177.532.108 1.112-.187 1.59-.295.476-.784.796-1.339.877l-1.48.148" transform="translate(9 -54) translate(-8 54) translate(299.927 75.74)"/>
                    <path fill="#1A3E6F" d="M21.059 28.457c.042.628-.431 1.175-1.06 1.219-.628.042-1.174-.432-1.215-1.062-.045-.628.43-1.174 1.058-1.216.627-.043 1.173.432 1.217 1.059zm10.783-3.195c.183.546-.11 1.138-.656 1.32-.546.182-1.137-.11-1.321-.657-.182-.548.112-1.138.657-1.321.547-.182 1.137.11 1.32.658zm-11.555-5.468c.781.386.847.967.515 1.336-.34.39-.932.6-1.489.836-.565.225-1.129.466-1.611.691-.385.181-.811.396-1.24.623l-.322.173-.402.21c-.402.207-.803.389-1.196.401-.501.02-.92-.394-.737-1.233.16-.806 1.038-2.015 2.632-2.766 1.599-.745 3.108-.657 3.85-.271zm7.903-1.562c1.288.17 2.17.894 2.46 1.494.308.617.103 1.06-.255 1.179-.373.13-.823.02-1.26-.055-.443-.088-.888-.163-1.276-.213-.388-.05-.84-.09-1.287-.117-.445-.037-.91-.045-1.232-.263-.315-.205-.396-.685.07-1.203.44-.506 1.49-.982 2.78-.822z" transform="translate(9 -54) translate(-8 54) translate(299.927 75.74)"/>
                    <path stroke="#1A3E6F" stroke-linecap="round" stroke-linejoin="round" stroke-width=".5" d="M23.054 40.683c2.797.91 6.435.34 7.987-2.367M23.509 29.002c0 2.208-1.79 4-4 4-2.208 0-4-1.792-4-4 0-2.21 1.792-4 4-4 2.21 0 4 1.79 4 4zM34.488 25.674c0 2.208-1.79 4-3.998 4-2.21 0-4.002-1.792-4.002-4s1.792-4 4.002-4c2.208 0 3.998 1.792 3.998 4zM10.222 29.162L15.222 29.162M23.46 27.835L26.61 26.881" transform="translate(9 -54) translate(-8 54) translate(299.927 75.74)"/>
                    <path stroke="#FFF" stroke-linecap="round" stroke-width=".5" d="M28.758 10.132c-1.759 1.004-3.033-1.92-.817-3.1 2.217-1.18 3.1 1.47 3.1 1.47.642 2.231-.303 3.731-1.741 4.689-2.656 1.768-7.367 2.276-10.885 1.695M9.222 19.526c.557 1.644.394 3.738 0 5.324M2.39 15.905c-1.068.963-1.286 2.149-.493 3.226M31.842 14.218c1.554 1.397 1.96 3.929 1.28 5.76" transform="translate(9 -54) translate(-8 54) translate(299.927 75.74)"/>
                    <path fill="#E53F3E" fill-opacity=".2" d="M6.633 58.501l.795-22.04c.333-.074.931-.732 1.794-1.973-.548 4.917-1.41 12.922-2.589 24.013z" transform="translate(9 -54) translate(-8 54) translate(299.927 75.74)"/>
                </g>
                <g>
                    <path fill="#F6B0AC" d="M15.179 109.967c2.967-6.505-.588-4.46-4.47-.762 1.86-2.618 1.314-3.341.398-3.52-1.109-.22-5.292 3.95-5.49 5.48-.186 1.419 3.588 3.046 5.187 3.046.894.188 2.14.264 3.228.545 2.428.626 2.816 1.156 4.636 1.385 1.526.188 2.357-1.46 3.54-3.604 1.271-3.076-.616-4.332-3.649-.451.196-.44 2.148-4.358 1.187-5.13-.924-.736-2.129.471-4.567 3.011" transform="translate(9 -54) translate(-8 54) translate(240.478 168.826)"/>
                    <path fill="#FACCC9" d="M47.206 14.906S34.196 38.139 31.583 46.68c-2.612 8.544-11.795 49.897-11.92 51.15-.126 1.254 3.589 7.076 0 9.073-3.59 1.996-1.6 9.31-4.048 8.665-2.504-.66-5.08-1.095-8.671-.877-3.591.218-7.765-1.783-6.804-5.917.762-3.261 2.346-7.008 4.733-13.607 2.386-6.604 8.4-41.64 12.15-55.616C20.773 25.572 28.551 0 28.551 0l18.654 14.906zM191.059 70.032l9.222-9.196s5.516 4.926 6.409 5.545c.892.619 3.744-.08 2.663-1.616-1.08-1.536-5.05-5.84-5.775-6.646-3.648-4.054-8.931-6.434-13.752-7.942-2.568-.802-27.526-12.603-28.835-12.651-7.896-.291-12.067 9.244-6.491 14.844 1.18.91 2.451 1.682 3.789 2.304 1.808.842 19.536 4.707 20.112 4.894.812.26 1.344.924 1.82 1.627.307.455.588.928.906 1.326 2.16 2.703 6.385 7.637 9.932 7.511z" transform="translate(9 -54) translate(-8 54) translate(240.478 168.826)"/>
                    <path fill="#F6B0AC" d="M196.96 57.488l4.801 4.68c.846.822.875 2.256.253 2.913-.622.656-1.97.818-2.812 0 .743.726.938 1.679.276 2.397-.663.719-1.873.723-2.617 0 .32.628.236 1.43-.271 1.977l-.01.014c-.634.681-1.703.711-2.374.064l-.444-.432c.414.655.383 1.522-.106 2.15l-.109.127-.04.046c-.337.356-.791.56-1.283.575-.492.012-.956-.166-1.309-.504l-1.295-1.247c-.138-.133-.253-.283-.344-.449-.14-.254-.218-.546-.226-.851-.013-.496.164-.966.5-1.323l.04-.046c.337-.36.793-.564 1.283-.578.359-.01.703.085 1 .268l-.302-.293c-.67-.65-.699-1.744-.061-2.43l.008-.01c.515-.557 1.313-.682 1.955-.364l-.842-.82c-.746-.723-.813-2.05-.072-2.707.735-.651 1.537-.55 2.273.157l-.544-.532c-.844-.822-1.041-2.004-.238-2.87.802-.867 2.067-.735 2.91.088z" transform="translate(9 -54) translate(-8 54) translate(240.478 168.826)"/>
                </g>
                <path fill="#065080" d="M350.64 217.918s.476 2.303.97 4.635l.124.582c.453 2.127.888 4.12.954 4.225 18.199 29.41 35.125 70.468 35.125 70.468l.134 1.074.085.68c1.443 11.496 9.563 76.167 11.983 94.03l-31.32 6.01s-3.974-18.372-8.106-37.31l-.744-3.41c-3.889-17.805-7.715-35.167-8.309-37.296-2.832-10.155-2.832-12.41-14.522-28.424-1.752-2.4-3.328-4.548-4.766-6.504l-7.72 43.555L302.736 416l-35.636-4.154c7.1-36.678 19.59-90.257 13.052-125.704-7.05-38.23 1.456-63.029 1.456-63.029l56.718-2.748 12.314-2.447z" transform="translate(9 -54) translate(-8 54)"/>
                <path fill="#0B264B" d="M373.989 405.223l30.573 7.198 21.814-5.6s-2.573-15.437-15.45-12.715c-12.876 2.723-13.58 0-13.58 0l-25.321 4.671 1.964 6.446zM264.32 431.145l49.096 6.602s4.534-12.998-7.228-16.23c-11.76-3.229-7.585-5.802-7.585-5.802l-30.155-3.302-4.128 18.732z" transform="translate(9 -54) translate(-8 54)"/>
                <g transform="translate(9 -54) translate(-8 54) translate(244.666 129.356)">
                    <mask id="sbs138191i" fill="#fff">
                        <use xlink:href="#wiv6sh98eh"/>
                    </mask>
                    <use fill="#45C1C5" xlink:href="#wiv6sh98eh"/>
                    <path stroke="#FFF" stroke-linecap="round" stroke-linejoin="round" stroke-width=".5" d="M19.078 22.74c8.215 1.28 14.427-2.23 22.63-2.219 7.692.01 15.018-.641 22.626-.888 9.01-.29 18.158-3.341 26.65-6.106 3.284-1.07 5.322-2.326 8.888-2.481 3.264-.141 6.875.816 9.352-1.6M14.64 44.819c3.603-3.4 10.428-1.947 15.002-2.197 4.686-.254 9.296-1.427 13.85-2.586 8.11-2.065 16.115-1.843 24.395-2.663 9.297-.92 17.597-5.969 26.62-7.543 6.908-1.206 15.155-1.205 21.273-4.536M9.492 62.347c11.58-.122 22.676-1.15 33.942-3.748 10.792-2.488 21.389-2.858 32.34-4.028 8.457-.903 18.884-1.159 26.718-4.203M5.766 79.209c5.155 0 10.18.715 15.174.896 3.97.146 9.072-1.657 12.875-2.175M38.6 77.876c11.844.799 22.793-7.063 34.641-7.57 9.387-.402 21.55 2.97 29.696-3.522M34.804 91.235c13.585-1.702 27.796.143 41.24-1.873 4.964-.744 29.35-2.106 30.193-6.739M3.437 95.667c4.293-.46 8.514 2.448 13.032 1.789 2.036-.296 11.442-2.235 12.036-3.934M.662 113.867c5.912.02 16.641 3.725 21.298-.887M116.841 79.729c4.055.434 7.618-2.464 10.945-4.198 2.898-1.51 6.495-2.11 9.25-3.72 2.582-1.506 4.051-4.736 7.07-5.56M106.024 65.33c5.184-2.318 7.811-1.387 13.315-2.456 4.624-.899 9.971-4.42 14.36-4.518M102.529 50.75c3.55.909 16.786-2.522 21-6.853" mask="url(#sbs138191i)" opacity=".6"/>
                    <path stroke="#FFF" stroke-linecap="round" stroke-linejoin="round" stroke-width=".5" d="M4.324 97.645c2.447 6.314 2.414 13.613 3.105 20.377.55 5.394-.875 11.845 1.269 16.352" mask="url(#sbs138191i)" opacity=".6" transform="rotate(-20 6.51 116.01)"/>
                    <path stroke="#FFF" stroke-linecap="round" stroke-linejoin="round" stroke-width=".5" d="M8.978 63.91c4.625 9.285 6.563 22.163 8.096 32.437.844 5.653 3.757 13.046 2.997 18.589" mask="url(#sbs138191i)" opacity=".6" transform="rotate(-5 14.587 89.423)"/>
                    <path stroke="#FFF" stroke-linecap="round" stroke-linejoin="round" stroke-width=".5" d="M31.724 82.533c0-3.43.625-5.825-.51-9.344-1.214-3.749-3.185-7.2-5.091-10.63-2.166-3.892-2.924-8.217-3.275-12.633-.523-6.623-2.154-14.098-5.765-19.75M31.058 9.447c5.03 11.035 6 25.365 7 37.262" mask="url(#sbs138191i)" opacity=".6"/>
                    <path stroke="#FFF" stroke-linecap="round" stroke-linejoin="round" stroke-width=".5" d="M50.977 3.055c.05 10.968.05 41.964.609 45.437.582 3.607-.3 7.426-.609 11.016-.388 4.495-.774 8.997-1.178 13.492-.263 2.9-1.221 5.405-1.72 8.215-1.06 5.973.705 7.218-2.299 12.84" mask="url(#sbs138191i)" opacity=".6" transform="matrix(-1 0 0 1 97.56 0)"/>
                    <path stroke="#FFF" stroke-linecap="round" stroke-linejoin="round" stroke-width=".5" d="M66.756 7.413c0 20.622 1.425 50.578-1.702 66.655-1.736 8.931-2.162 12.34-2.19 21.345" mask="url(#sbs138191i)" opacity=".6" transform="matrix(-1 0 0 1 129.944 0)"/>
                    <path stroke="#FFF" stroke-linecap="round" stroke-linejoin="round" stroke-width=".5" d="M95.543 2.485c1.494 3.52 1.664 4.819 2.039 7.182.381 2.4.653 4.824.922 7.241.787 7.098 1.231 14.368 2.23 21.437.79 5.585 1.64 11.293 2.569 16.96 1.003 6.124 1.16 11.02.88 17.267-.242 5.407-2.405 12.662-.64 17.92" mask="url(#sbs138191i)" opacity=".6" transform="scale(-1 1) rotate(8 0 -1382.502)"/>
                    <path stroke="#FFF" stroke-linecap="round" stroke-linejoin="round" stroke-width=".5" d="M117.289 27.366c0 8.605-1.141 16.78-2.087 25.3-.456 4.106-1.071 6.855.142 10.913.908 3.027.051 9.755-.68 12.787M130.572 54.213c1.66 5.862-.516 25.22-1.387 31.239" mask="url(#sbs138191i)" opacity=".6"/>
                    <path stroke="#FFF" stroke-linecap="round" stroke-linejoin="round" stroke-width=".5" d="M158.427 67.97c1.66 8.638-2.01 22.254-2.88 31.123" mask="url(#sbs138191i)" opacity=".6" transform="rotate(-12 157.2 83.532)"/>
                    <path stroke="#FFF" stroke-linecap="round" stroke-linejoin="round" stroke-width=".5" d="M142.026 63.01c1.66 5.862 3.11 22.463 2.24 28.482M137.906 89.012c3.706-3.923 24.516-5.67 24.001-13.121" mask="url(#sbs138191i)" opacity=".6"/>
                    <path stroke="#FFF" stroke-linecap="round" stroke-linejoin="round" stroke-width=".5" d="M81.457 12.098c3.232 14.161 3.475 31.815 2.257 46.622-.534 6.481-.544 12.806-.265 19.386.235 5.57 1.144 11.321-.072 15.992" mask="url(#sbs138191i)" opacity=".6" transform="scale(-1 1) rotate(5 0 -1846.168)"/>
                </g>
                <path stroke="#45C1C5" stroke-linecap="round" stroke-linejoin="round" d="M425.028 402.326L397.028 410.326" transform="translate(9 -54) translate(-8 54)"/>
                <path fill="#71BF59" d="M503.22 391.363c2.207 14.486 2.162 36.58-6.358 49.932-8.522 13.354-12.653 17.53-16.219 20.45-3.562 2.92-11.271 7.21-11.271 7.21s-4.987-4.407-6.367-19.414c-1.383-15.012 2.492-28.121 4.29-32.278 4.25-9.834 9.61-20.039 13.64-30.032 4.402-10.908 13.991-35.15 13.991-35.15s6.086 24.796 8.294 39.282z" transform="translate(9 -54) translate(-8 54) matrix(-1 0 0 1 967.158 0)"/>
                <path stroke="#1A3E6F" stroke-linecap="round" stroke-linejoin="round" d="M500.761 393.148c-1.11 7.42-3.459 15.002-7.088 22.187-5.475 10.84-16.078 20.696-19.517 31.908-.707 2.301-1.334 4.731-.522 7.05 0 0 1.53 5.824 4.59 7.855" transform="translate(9 -54) translate(-8 54) scale(-1 1) rotate(-4 0 14373.678)"/>
                <g>
                    <path fill="#009A8C" d="M43.575 8.281C46.86 3.083 50.795-1.894 62.518.717c8.949 2.399 15.79 10.57 17.972 19.621 1.936-2.481 5.358-3.698 8.424-2.996 3.069.702 5.623 3.29 6.286 6.367.819-6.737 8.853-11.517 15.162-9.02 6.311 2.495 8.904 11.476 4.895 16.95 3.705-.79 8.914.918 12.708 5.204 1.13 1.277 2.022 3.241 3.096 5.406l.233.467c.226.45.461.908.71 1.368 2.776-.844 5.726-.997 8.518-.249 7.767 2.441 8.13 6.762 8.273 10.918 5.806 1.193 8.592 5.557 9.186 10.553 15.148 6.252 7.97 25.133-3.32 23.729L66.855 65.507s-.223-.165-.56-.47L9.247 49.75C-8.1 42.42-.883 7.28 29.572 17.342c7.444 1.016 10.265-3.072 13.049-7.532L43 9.2l.19-.307z" transform="translate(9 -54) translate(-8 54) rotate(-1 24487.708 -23758.944)"/>
                    <path stroke="#1A3E6F" stroke-linecap="round" d="M10.22 25.342c-5.2 4.044-7.404 13.384-1.192 17.279M105.592 18.34c4.571.274 8.388 4.817 5.956 8.937" transform="translate(9 -54) translate(-8 54) rotate(-1 24487.708 -23758.944)"/>
                    <path stroke="#1A3E6F" stroke-linecap="round" d="M55.592 30.277c8.171.522 14.995 9.163 10.647 17" transform="translate(9 -54) translate(-8 54) rotate(-1 24487.708 -23758.944) scale(-1 1) rotate(-50 0 170.862)"/>
                    <path stroke="#1A3E6F" stroke-linecap="round" d="M160.6 72.604c1.22 3.613.349 11.121-4.84 10.998M120.6 52.604c1.22 3.613.349 11.121-4.84 10.998" transform="translate(9 -54) translate(-8 54) rotate(-1 24487.708 -23758.944)"/>
                </g>
                <path fill="#0B264B" d="M336.521 264.996c18.2 29.41 23.636 45.187 23.636 45.187s14.106 68.204 16.765 87.834l-8.227 1.604s-16.79-77.075-18.053-81.606c-2.833-10.155-10.051-20.496-18.017-31.729 0 0 3.754-21.521 3.896-21.29zM281.566 222.877s-8.463 31.034-1.414 69.265c6.537 35.447-5.952 83.026-13.052 119.704l7.804 1.082s16.098-76.236 17.525-95.969c1.427-19.732-3.102-20.372-1.983-46.015 1.12-25.642 6-47.533 6-47.533l-14.88-.534z" opacity=".2" transform="translate(9 -54) translate(-8 54)"/>
                <path stroke="#0B264B" stroke-linecap="round" stroke-linejoin="round" d="M281.364 223.41s-6.646 17.034-3.415 46.046c3.23 29.011 4.85 31.32 4.292 46.838-.558 15.518-11.145 75.496-12.483 83.327-1.337 7.832-2.658 12.225-2.658 12.225l35.575 3.869 18.423-74.035s4.68-14.229 4.68-17.594c0-3.366 12.459-69.726 12.459-69.726" transform="translate(9 -54) translate(-8 54)"/>
                <path stroke="#0B264B" stroke-linecap="round" stroke-linejoin="round" d="M280.566 227.249s25.294 2.986 40.826 1.28c0 0 20.412-2.987 30.174-5.975" transform="translate(9 -54) translate(-8 54)"/>
                <g>
                    <path fill="#1A3E6F" d="M14.334 125.004c-.829 0-1.5-.673-1.5-1.502 0-.828.671-1.498 1.5-1.498.83 0 1.502.67 1.502 1.498 0 .829-.671 1.502-1.502 1.502zM161.334 84.004c-.829 0-1.5-.673-1.5-1.502 0-.828.671-1.498 1.5-1.498.83 0 1.502.67 1.502 1.498 0 .829-.671 1.502-1.502 1.502z" transform="translate(9 -54) translate(-8 54) translate(244.666 129.356)"/>
                    <path stroke="#1A3E6F" stroke-linecap="round" stroke-linejoin="round" d="M1.54 116.415s4.246 1.188 9.103 2.085c2.76.51 6.763 1.703 8.84.88M153.398 95.126s1.682-4.822 2.68-9.674c1.45-7.057 1.45-9.015 1.122-10.446M0 124.241s7.37 2.576 17.923 3.492M42.669 51.984s-.624 8.806-4.24 15M103.429 44.946s-.294 4.154-2 7.076" transform="translate(9 -54) translate(-8 54) translate(244.666 129.356)"/>
                    <path stroke="#1A3E6F" stroke-linecap="round" stroke-linejoin="round" d="M128.82 48.984s-.373 5.283-2.543 9" transform="translate(9 -54) translate(-8 54) translate(244.666 129.356) scale(-1 1) rotate(16 0 -854.073)"/>
                    <path stroke="#1A3E6F" stroke-linecap="round" stroke-linejoin="round" d="M100.441 38.58s-.192 2.965-.192 5.966c0 3.882.914 6.614 1.112 10.425M37.523 46.01c2.998 8.358 1.723 17.974.443 20.774-3.162 4.837-6.908 16.88-6.908 16.88s-12.295 33.102-13.135 44.126M24.881 20.445c-3.161 4.837-14.74 57.485-14.74 57.485S1.539 113.169 0 124.241" transform="translate(9 -54) translate(-8 54) translate(244.666 129.356)"/>
                    <path stroke="#1A3E6F" stroke-linecap="round" stroke-linejoin="round" d="M166.982 80.602l-3.093 18.494s-13.673-5.07-25.983-10.084c-8.971-3.653-17.113-7.44-19.233-8.41-5.03-2.302-17.312-25.631-17.312-25.631s.428 6.555 2.32 13.437c1.891 6.882 1.59 6.817 2.243 10.416.654 3.6.978 6.876.637 8.48-.34 1.603-2.13 2.298-3.558 2.738-1.428.44-23.182 4.143-37.856 4.143-14.674 0-28.205-.428-28.205-.428s-3.934-2.67-1.077-10.551c.78-2.155 1.672-3.865 2.126-5.276.454-1.411 1.602-6.41.15-11.146" transform="translate(9 -54) translate(-8 54) translate(244.666 129.356)"/>
                    <path stroke="#1A3E6F" stroke-linecap="round" d="M61.969.499c-.265 9.219 2.741 14.344 9.018 15.375 9.416 1.546 13.151-3.752 13.762-5.924.611-2.172.946-3.031.03-9.95" transform="translate(9 -54) translate(-8 54) translate(244.666 129.356)"/>
                </g>
                <g>
                    <path fill="#FFD93B" stroke="#1A3E6F" stroke-linecap="round" stroke-linejoin="round" d="M66.818 119.203s.051 10.887-7.28 14.879c-1.783.968-4.656 4.504-4.092 6.452.542 1.85 3.627 5.396 3.627 5.396s6.085-.63 4.9 4.269c0 0-7.388.555-9.309 0-1.624-.47-2.57-2.468-3.409-3.883-1.457-2.466-2.914-4.931-4.374-7.396l.455-7.104 4.361-11.054 8.336-1.327 6.785-.232z" transform="translate(9 -54) translate(-8 54) translate(93.67 279.858)"/>
                    <path fill="#F5CF0E" stroke="#1A3E6F" stroke-linecap="round" stroke-linejoin="round" d="M42.489 101.235c-3.974 5.17-16.2 7.882-21.06 5.132-1.072-.607-4.423-1.635-6.065-5.837-2.755-7.048-.679-14.463-4.996-13.902-1.923.25-3.408 4.16-1.95 12.301 3.043 16.984 23.361 16.853 29.759 11.943l1.234-6.49 3.078-3.147z" transform="translate(9 -54) translate(-8 54) translate(93.67 279.858)"/>
                    <path fill="#F5CF0E" stroke="#1A3E6F" stroke-linejoin="round" d="M101.671 113.343s6.909 11.724 9.236 14.755c2.278 2.967 1.664 5.248 1.664 5.248s-.784 5.372-1.664 6.25c-.134.14-4.046-1.17-4.046-4.633 0-1.062.685-1.996.525-2.338-.525-1.117-2.158-1.95-2.158-1.95l-9.28-4.735-9.958-5.099 15.681-7.498z" transform="translate(9 -54) translate(-8 54) translate(93.67 279.858)"/>
                    <path fill="#FFD93B" d="M92.345 116.219l-1.8 14.23 1.801 15.236s3.51.854 4.549 2.655c2.255 3.886-2.922 2.631-5.475 2.639-2.778.01-4.436-.817-5.429-3.347-.767-1.952-1.591-3.882-2.366-5.83-1.069-2.692-3.297-6.435-3.299-9.404 0-1.8-1.8-11.844-1.8-13.173 0-1.327 3.4-7.273 7.377-7.745 3.98-.476 6.442 4.739 6.442 4.739" transform="translate(9 -54) translate(-8 54) translate(93.67 279.858)"/>
                    <path fill="#FFE163" d="M105.095 70.202s-7.847-2.24-11.21 1.123c-1.076 1.072-2.284 2.634-2.76 4.693-.25 1.07-.294 3.254-.276 5.201.024 2.18-.419 3.62-1.29 5.585-2.728 4.162-11.358 8.503-16.177 9.476-3.285.665-7.193.866-10.487.998-7.422.293-14.022-2.656-20.31 2.73-5.06 4.33-7.462 9.596-6.264 16.117 1.208 6.567-5.29 6.95-7.46 11.197-2.045 4.007 3.572 20.248 3.572 20.248 1.423 1.734 2.062 2.147 4.451 2.483 2.518.35 8.304.402 7.025-3.851-.484-1.623-1.567-2.58-3.174-3.112-4.448-1.472-2.679-6.728-2.679-6.728 5.378.022 7.955-2.303 13.504-7.976.312-.322 11.85 7.374 32.319 4.072 5.009-.808 10.784-4.52 14.32-7.923 4.633-4.46 7.442-10.447 7.281-16.937-.145-5.863.518-16.812.518-16.812s12.5 1.842 14.212.928c9.272-4.943 6.49-16.84 6.49-16.84l-21.605-4.672z" transform="translate(9 -54) translate(-8 54) translate(93.67 279.858)"/>
                    <path stroke="#1A3E6F" stroke-linecap="round" stroke-linejoin="round" d="M51.086 97.194s2.208 5.665-2.535 13.2c-4.742 7.536-12.958 7.339-12.958 7.339" transform="translate(9 -54) translate(-8 54) translate(93.67 279.858) rotate(180 43.69 107.466)"/>
                    <path stroke="#1A3E6F" stroke-linecap="round" stroke-linejoin="round" d="M105.04 104.448s.594 6.198-2.107 13.895c-2.7 7.697-11.763 11.47-11.763 11.47" transform="translate(9 -54) translate(-8 54) translate(93.67 279.858)"/>
                    <path stroke="#1A3E6F" stroke-linecap="round" stroke-linejoin="round" d="M98.434 110.746c2.745 1.817.91 6.774-3.645 4.981 3.324 3.064-.457 7.622-3.86 5.217" transform="translate(9 -54) translate(-8 54) translate(93.67 279.858)"/>
                    <path stroke="#1A3E6F" stroke-linecap="round" stroke-linejoin="round" d="M48.898 103.496c2.745 1.818.91 6.775-3.645 4.982 3.324 3.064-.457 7.621-3.86 5.217" transform="translate(9 -54) translate(-8 54) translate(93.67 279.858) rotate(180 45.79 108.933)"/>
                    <path stroke="#1A3E6F" stroke-linecap="round" stroke-linejoin="round" d="M73.81 126.087s.593 6.198-2.107 13.895" transform="translate(9 -54) translate(-8 54) translate(93.67 279.858) rotate(83 72.81 133.034)"/>
                    <path fill="#45C1C5" d="M87.39 89.1s4.78 9.555 18.529 7.278l.252-5.648s-10.604 2.591-15.815-5.99L87.39 89.1z" transform="translate(9 -54) translate(-8 54) translate(93.67 279.858)"/>
                    <path stroke="#1A3E6F" stroke-linecap="round" d="M17.248 92.642c0 3.035 6.782 9.268 13.564 3.707" transform="translate(9 -54) translate(-8 54) translate(93.67 279.858)"/>
                    <path fill="#FFD93B" d="M86.58 81.925c-.138 3.43-1.875 9.975 2.536 11.562 1.078.388 1.75-1.599 3.257-1.599 6.155 0 8.117-2.812 7.554-4.897-2.969-10.995-1.914-17.52-1.914-17.52-5.267-1.393-9.8-1.214-11.126 3.275-1.327 4.488-.224 7.117-.307 9.179z" transform="translate(9 -54) translate(-8 54) translate(93.67 279.858)"/>
                    <path stroke="#1A3E6F" stroke-linecap="round" d="M20.872 91.607c0 1.622 3.625 4.953 7.25 1.981M5.423 90.787c-.87 3.51-1.366 8.049.617 11.123" transform="translate(9 -54) translate(-8 54) translate(93.67 279.858)"/>
                    <path stroke="#1A3E6F" stroke-linecap="round" d="M1.79 87.163C.93 90.634.44 95.12 2.4 98.162" transform="translate(9 -54) translate(-8 54) translate(93.67 279.858) rotate(11 1.718 92.662)"/>
                    <path fill="#1A3E6F" d="M122.644 74.178s-.115 5.33 4.16 5.643c0 0 1.508-3.936.673-4.896-.832-.958-4.833-.747-4.833-.747M105.302 75.03c0 .81-.656 1.467-1.466 1.467-.812 0-1.468-.657-1.468-1.468 0-.81.656-1.469 1.468-1.469.81 0 1.466.659 1.466 1.47" transform="translate(9 -54) translate(-8 54) translate(93.67 279.858)"/>
                    <path stroke="#1A3E6F" stroke-linecap="round" d="M114.418 86.229c1.607 2.263 6.719 4.572 9.039 2.782" transform="translate(9 -54) translate(-8 54) translate(93.67 279.858)"/>
                    <path stroke="#1A3E6F" stroke-linecap="round" stroke-linejoin="round" d="M53.372 124.439S47.522 135.6 41.16 135.6c-6.362 0-3.512 5.032-3.512 5.032M79.576 129.82s4.637 12.84 7.25 19.331c.742 1.284 8.413 3.465 10.839 1.048.239-3.848-4.645-4.248-4.645-4.248l-2.584-17.513" transform="translate(9 -54) translate(-8 54) translate(93.67 279.858)"/>
                    <path stroke="#1A3E6F" stroke-linecap="round" d="M93.676 148.526c2.793 1.027 1.76-.043 3.35 1.673M40.289 145.398c1.23.198 1.986.669 3.577 2.384M37.872 146.606c1.23.198 1.987.67 3.577 2.384M98.101 69.82c-3.332-1.084-5.987-1.274-7.966-.57-.935.57-4.006 1.473-4.006 9.338 0 7.866-.695 9.335.814 12.146 1.508 2.811 3.192 2.25 4.888 1.243 1.697-1.008 5.55.446 6.993-1.476.962-1.28 1.055-3.27.278-5.966" transform="translate(9 -54) translate(-8 54) translate(93.67 279.858)"/>
                </g>
                <path stroke="#0B264B" stroke-linecap="round" d="M335.028 274.326L342.028 257.326" transform="translate(9 -54) translate(-8 54)"/>
                <path stroke="#45C1C5" stroke-linecap="round" stroke-linejoin="round" d="M265.559 425.789L314.275 433.326" transform="translate(9 -54) translate(-8 54)"/>
            </g>
        </g>
    </g>
</svg>
