<svg xmlns="http://www.w3.org/2000/svg" width="451" height="550" viewBox="0 0 451 550">
    <defs>
        <linearGradient id="l44auq8d6a" x1="0%" x2="100%" y1="50.007%" y2="49.995%">
            <stop offset="0%" stop-color="#45C1C5"/>
            <stop offset="100%" stop-color="#FFF"/>
        </linearGradient>
    </defs>
    <g fill="none" fill-rule="evenodd">
        <g>
            <g transform="translate(-125 -75) translate(125 75)">
                <path fill="#FFE163" d="M214.718 102.593c-56.82 0-142.563 9.13-150.705 87.398-2.194 21.098 13.647 56.45-16.346 80.4-29.994 23.95-46.156 61.095-34.113 92.486C34.7 418 100.17 430.737 146.02 442.685c21.197 5.523 42.039 19.24 64.07 20.115 28.307 1.122 69.741 3.27 85.154-27.533 6.986-13.96 10.168-29.81 18.438-43.05 18.083-28.953 51.39-35.302 71.264-66.545 58.304-91.658 3.024-135.625-41.012-196.273-38.232-52.654-129.217-26.806-129.217-26.806z" opacity=".148"/>
                <g transform="translate(82.734 150.634)">
                    <path fill="#0B264B" d="M154.277 354.609c2.03-3.647 8.958-30.05 8.958-30.05s-4.72-1.979-7.66-.117c-2.801 1.773-18.092 10.125-21.245 11.751l1.165 2.09 9.173-3.383s-4.965 8.996-5.583 14.02c-.615 5.021 6.574 16.832 8.572 19.513 1.999 2.682 4.594-10.18 6.62-13.824" transform="rotate(-10 148.782 346.221)"/>
                    <path fill="#F6B0AC" d="M167.646 315.247l-5.518 6.067s-2.758.27-5.505 3.063c-2.744 2.792-5.916 9.349-7.837 14.99-1.661 4.866-1.393 13.17.55 14.617 1.941 1.448 5.487-7.861 8.047-11.439 2.562-3.575 5.528-6.104 8.15-8.292 2.677-2.235 9.834-6.687 9.834-6.687l-7.72-12.32z" transform="rotate(-10 161.53 334.691)"/>
                    <path fill="#0B264B" d="M185.517 268.778c6.345-7.145 11.71-10.188 11.71-10.188s-37.13-13.868-44.918-56.026l42.777-19.89c20.442 31.758 44.62 67.413 41.749 89.258-2.87 21.844-78.655 53.997-78.655 53.997l-10.231-16.472s3.479-2.29 37.568-40.679" transform="rotate(-10 192.508 254.302)"/>
                    <path fill="#0B264B" d="M17.426 307.654c4.129-.596 29.323-11.101 29.323-11.101s-1.287-4.953-4.55-6.162c-3.11-1.152-19.022-8.247-22.227-9.766l-.956 2.191 8.252 5.243s-10.163 1.508-14.533 4.063c-4.368 2.557-9.4 15.436-10.32 18.65-.92 3.217 10.883-2.521 15.01-3.118" transform="rotate(-10 24.557 296.185)"/>
                    <path fill="#F6B0AC" d="M56.954 295.885l-8.17-.71s-1.886-2.027-5.774-2.519c-3.884-.486-11.02.965-16.672 2.86-4.877 1.629-11.316 6.878-11.29 9.3.027 2.422 9.58-.406 13.977-.538 4.396-.13 8.205.694 11.534 1.453 3.401.774 11.283 3.766 11.283 3.766l5.112-13.612z" transform="rotate(-10 36.001 301.029)"/>
                    <path fill="#0B264B" d="M117.958 283.212s-21.261-63.23 13.007-86.882l38.432 26.962c-7.933 36.926-15.97 79.247-33.42 92.697-17.454 13.45-93.833-17.259-93.833-17.259l3.294-18.683c14.433.63 28.677-2.168 48.938-.993 20.262 1.174 18.755 3.307 23.582 4.158z" transform="rotate(-10 105.77 257.863)"/>
                    <path fill="#F6B0AC" d="M170.536 10.437s2.287-10.958 6.59-9.403c1.098.396 3.34 2.212 4.443 3.952 1.105 1.742-2.275 8.35-2.275 8.35l-8.758-2.9z" transform="rotate(-10 176.163 7.11)"/>
                    <path fill="#F6B0AC" d="M33.135 48.78c-4.075-4.057-4.727-.445-5.507 4.064-.2 1.151.268 3.996 1.235 5.819.964 1.821 6.33-.185 6.33-.185l-2.058-9.698z" transform="rotate(-10 31.387 53.222)"/>
                    <path fill="#F6B0AC" d="M191.171 21.598c-.394 2.213-2.476 3.877-5.107 5.326-4.137 2.276-9.308-2.747-7.922-16.035.05-.485.529-3.193.529-3.193s.099-.128.276-.333c.847-.97 3.515-3.68 5.991-2.54 2.997 1.376 5.448 11.505 5.448 11.505s1.18 3.057.785 5.27z" transform="rotate(-10 184.582 16)"/>
                    <path fill="#F6B0AC" d="M27.978 68.774s2.84 7.283 8.683 7.455c4.717.138 7.027-6.69-.267-17.883-.268-.408-1.93-2.599-1.93-2.599s-.144-.069-.396-.17c-1.198-.478-4.806-1.672-6.492.473-2.036 2.59.402 12.724.402 12.724" transform="rotate(-10 33.914 65.522)"/>
                    <path fill="#E53F3D" d="M194.725 16.442s1.236 2.156 3.045 5.321l.396.693c1.416 2.478 3.128 5.478 4.855 8.516l.494.869c3.867 6.806 7.68 13.575 8.304 14.884 12.396 26.062 4.318 31.926-7.347 45.37-1.846 2.127-7.755 7.05-13.764 11.874l.016.077s-7.759 6.55-15.35 12.398l-.77.592c-5.004 3.828-9.817 7.243-12.15 8.148-5.983 2.323-10.012-10.858-10.012-10.858L141.894 98.37c5.213-.432 10.279-2.781 15.344-6.276 1.67-1.17 7.841-5.07 13.913-8.873l.774-.485c6.442-4.032 12.55-7.821 12.787-7.968.007-.005.116-.069.31-.191l.188-.119c2.112-1.351 10.277-7.006 9.515-13.22-.098-.795-3.338-8.568-6.809-16.732l-.454-1.067c-3.94-9.253-8.013-18.64-8.013-18.64l15.276-8.357z"/>
                    <path fill="#E53F3D" d="M104.213 112.574l-11.13 1.458c-10.9 2.715-14.177 4.455-16.29 4.206-2.115-.255-4.22-.499-6.305-.77-2.082-.267-4.147-.563-6.159-.879-2.008-.307-3.987-.645-5.768-1.027-.883-.187-1.718-.392-2.375-.575l-.434-.124c-.214-.064-.222-.061-.248-.064-.262 0-.297.041-.378.025-.08-.009-.209-.097-.376-.316-.337-.433-.755-1.44-1.019-2.778-.267-1.335-.387-2.968-.373-4.702.02-1.74-3.741-40.891-2.443-44.84 1.299-3.95-16.731.064-16.731.064s-3.947 47.559-4.255 50.191c-.31 2.636-.469 5.405-.254 8.43.113 1.51.313 3.089.694 4.735.38 1.645.923 3.362 1.73 5.11.804 1.743 1.876 3.513 3.255 5.14 1.368 1.63 3.03 3.094 4.813 4.247 1.783 1.154 1.808 1.09 2.73 1.523l1.273.556c.204.085.943.372 1.113.433.17.061 2.693.922 3.93 1.286 1.238.364 4.777 1.275 7.074 1.797 2.292.508 4.55.951 6.795 1.374 2.246.419 4.476.814 6.705 1.163 2.228.357 4.448.7 6.665 1.017 2.219.309 6.65.885 6.65.885s4.432.53 6.651.766c2.22.237 3.332.338 3.332.338l1.674.152s1.106.097 1.71.144l7.744-38.965z" transform="rotate(-10 66.895 105.994)"/>
                    <path stroke="#1A3E6F" stroke-linecap="round" stroke-linejoin="round" d="M27.793 72.288L42.977 67.765M27.308 69.047s4.183-2.01 7.835-2.982c3.65-.973 7.834-2.005 7.834-2.005"/>
                    <path fill="#100D19" d="M103.907 65.909c-5.121-4.061-11.474-4.092-14.445.566-3.243 5.09-1.288 13.215 3.385 16.499 8.376 5.886 23.258-7.217 14.813-15.437-1.508-1.465-3.58-1.873-5.736-1.628" transform="rotate(-10 99.015 73.683)"/>
                    <path fill="#100D19" d="M97.725 76.902c-1.872-10.427-.392-27.646 19.706-28.926.2-.014.4-.024.597-.033 13.175-.647 23.834 10.605 22.619 23.741-.634 6.837-6.269 11.556-5.585 15.777.662 4.093-19.888 9.175-31.155.283-3.109-2.454-5.86-9.052-6.182-10.842" transform="rotate(-10 118.933 70.291)"/>
                    <path fill="#0B264B" d="M185.49 219.193c-11.182 6.44-38.223 9.755-55.864 2.75-6.47-2.569-7.604-4.15-7.115-15.766.018-.433.037-.866.06-1.297.048-.913.108-1.825.172-2.73l.104-1.308c.133-1.622.29-3.212.459-4.74.048-.421.094-.837.143-1.25.405-3.403 1.048-6.46 1.644-8.822.106-.428.214-.832.317-1.213.624-2.32 1.13-3.712 1.13-3.712 2.846.458 5.775.727 8.72.845.416.018.832.033 1.25.043 15.253.402 30.777-3.052 37.97-4.922.435-.113.837-.219 1.208-.32 1.87-.503 2.924-.83 2.924-.83s.66 1.155 1.588 3.06c.169.352.349.73.535 1.13 1.465 3.142 3.386 6.042 6.597 11.33.49.807 2.252 4.473 2.265 4.53.089.41-2.712 5.338-2.259 8.801v.001c.06.446.112.889.165 1.326.883 7.596 1.015 11.351-2.012 13.094" transform="rotate(-10 156.005 200.889)"/>
                    <path fill="#FEFEFE" d="M125.162 176.598l3.855 16.164c9.631-.768 21.027-2.163 29.608-6.6 0 0 11.433 3.847 17.23 2.054l-4.244-11.618h-46.449z" transform="rotate(-10 150.509 184.68)"/>
                    <path fill="#E73C3A" d="M167.235 159.907c-.18-1.097-.323-2.065-.422-2.879-.029-.215-.051-.418-.07-.608-.008-.076.17-.248.472-.571 1.31-1.407 6.742-7.976 6.747-12.837.006-5.139-3.331-7.415-6.036-15.901-.444-1.382-.24-4.621-.62-6.058-.338-1.283-.637-2.583-.89-3.898l-.102-.531c-1.434-7.728-1.305-13.943-5.927-15.31-1.969-.58-3.138-.477-5.069-.902-2.195-.484-5.67-.391-8.947-.757l-2.232-.186-23.464-1.944-.336.082c-1.226.295-5.632 1.393-10.918 3.065-.778.246-1.578.506-2.391.776-11.176 3.724-14.703 16.336-10.057 27.163 1.068 2.48 2.084 5.057 3.032 7.639.13.349.257.695.383 1.046.191.535.381 1.066.568 1.604 2.881 8.259 4.217 8.144 7.217 27.701 0 0 3.108 19.987-8.976 28.294 0 0 36.065 5.854 47.582-9.63 4.673-6.28 15.482 13.03 34.365 6.044 0 0-12.084-15.723-12.274-20.323-.652-3.297-1.23-6.997-1.635-11.079z" transform="rotate(-10 138.062 146.753)"/>
                    <path stroke="#1A3E6F" stroke-linecap="square" d="M49.658 93.77s4.55 18.753 6.564 22.703c2.169.936 13.894 1.182 22.793-.532 8.9-1.714 13.952-7.327 22.777-9.373"/>
                    <path fill="#DA2726" d="M100.056 145.452s14.295 8.979 17.166 25.498c3.66 19.21-8.29 29.71-8.29 29.71s6.034-15.23 4.122-26.228c-6.009-20.795-12.998-28.98-12.998-28.98z"/>
                    <path stroke="#1A3E6F" stroke-linecap="round" stroke-linejoin="round" d="M27.33 69.155l4.632 51.881s-.938 20.695 19.823 24.513c20.761 3.818 48.092 0 48.092 0s11.235 16.47 13.013 30.999c.034.282.066.56.096.836 1.507 13.904-2.847 19.234-4.445 23.465 4.349 0 36.511-1.067 45.453-18.309"/>
                    <path fill="#1A3E6F" d="M145.514 128.448c0 .727-.59 1.317-1.316 1.317-.727 0-1.316-.59-1.316-1.317 0-.728.589-1.316 1.316-1.316.726 0 1.316.588 1.316 1.316" transform="rotate(-10 144.198 128.448)"/>
                    <path fill="#1A3E6F" d="M149.22 139.566c0 .728-.589 1.316-1.316 1.316-.728 0-1.317-.588-1.317-1.316 0-.729.59-1.317 1.317-1.317s1.316.588 1.316 1.317" transform="rotate(-10 147.904 139.566)"/>
                    <path fill="#1A3E6F" d="M152.926 150.683c0 .727-.59 1.317-1.316 1.317-.729 0-1.317-.59-1.317-1.317 0-.728.588-1.316 1.317-1.316.726 0 1.316.588 1.316 1.316" transform="rotate(-10 151.61 150.683)"/>
                    <path fill="#1A3E6F" d="M155.705 162.727c0 .727-.59 1.318-1.316 1.318-.727 0-1.316-.59-1.316-1.318 0-.727.589-1.316 1.316-1.316.726 0 1.316.589 1.316 1.316" transform="rotate(-10 154.389 162.728)"/>
                    <path fill="#1A3E6F" d="M157.56 174.77c0 .728-.59 1.317-1.317 1.317-.729 0-1.318-.589-1.318-1.316 0-.727.59-1.317 1.318-1.317.726 0 1.316.59 1.316 1.317" transform="rotate(-10 156.242 174.77)"/>
                    <path fill="#FEFEFE" d="M116.104 100.072s5.356 11.4 23.868 26.859c0 0-.992-12.159-4.719-25.194 0 0-10.894 3.795-19.15-1.665" transform="rotate(-10 128.038 113.501)"/>
                    <path fill="#F6B0AC" d="M133.815 101.57l.25 3.16c.468 5.888-3.72 7.56-9.817 4.439-4.817-2.465-8.907-6.148-9.577-8.428l19.144.828z" transform="rotate(-10 124.386 105.727)"/>
                    <path fill="#100D19" d="M136.894 59.618s2.709 10.624.973 12.477c-1.734 1.854-4.296-2.125-4.296-2.125s1.263-9.925 3.323-10.352" transform="rotate(-10 136.01 66.102)"/>
                    <path fill="#DC9490" d="M136.134 73.164s2.798-3.306 4.38 0c1.581 3.305.364 9.996-3.893 8.9l-.487-8.9z" transform="rotate(-10 138.656 76.94)"/>
                    <path fill="#F6B0AC" d="M132.59 93.56v9.116s-4.806 7.87-19.15-1.664c2.716-3.035 2.799-8.898 1.7-12.393 0 0 1.05.708 2.791 1.482.355.158.736.325 1.14.496 3.587 1.504 8.98 3.316 13.519 2.963" transform="rotate(-10 123.015 97.173)"/>
                    <path stroke="#1A3E6F" stroke-linecap="round" stroke-linejoin="round" d="M165.352 123.818s15.654-11.392 31.117-24.484c15.464-13.091 27.856-26.73 17.39-47.786C203.396 30.49 194.6 16.52 194.6 16.52l-10.687 6.006"/>
                    <path fill="#F19893" d="M131.95 93.613v4.268c-3.899-.87-10.736-2.996-14.658-7.728.355.159.736.325 1.14.496 3.586 1.505 8.98 3.316 13.519 2.964" transform="rotate(-10 124.621 94.017)"/>
                    <path fill="#DA2726" stroke="#1A3E6F" stroke-linecap="round" stroke-linejoin="round" d="M104.983 102.638l10.946 14.55 8.206-.654-2.876 6.275 18.538 5.228s-21.038-20.44-22.757-27.812c0 0-2.28-.66-5.697.076-3.418.735-6.36 2.337-6.36 2.337z" transform="rotate(-10 122.39 113.975)"/>
                    <path fill="#F6B0AC" d="M137.032 92.416c-7.66 7.923-24.164-1.706-24.709-2.013-.007-.005-1.218-2.559-1.218-2.559-.157-.71-.297-1.413-.425-2.109-1.084-5.893-1.149-11.366-.55-16.568-.287-5.483 2.978-10.59 8.137-12.47 5.346-1.948 8.319.607 11.2 1.495 1.368.421 4.13 1.709 4.957 3.21 2.912 5.278 4.23 7.382 4.555 12.853.857 14.372-1.947 18.161-1.947 18.161z" transform="rotate(-10 124.466 75.759)"/>
                    <path fill="#0B264B" d="M124.88 65.359s1.59.156 1.03 1.613c-.557 1.457-3.745-.149-6.026 2.535 0 0-.972-3.494 4.996-4.148" transform="rotate(-10 122.927 67.433)"/>
                    <path fill="#0B264B" d="M132.092 63.506s-1.589.156-1.031 1.613 3.747-.148 6.028 2.535c0 0 .97-3.493-4.997-4.148" transform="rotate(-10 134.045 65.58)"/>
                    <path fill="#0B264B" d="M126.51 72.177c0 .842-.681 1.525-1.524 1.525-.845 0-1.527-.683-1.527-1.525 0-.842.682-1.525 1.527-1.525.843 0 1.523.683 1.523 1.525" transform="rotate(-10 124.984 72.177)"/>
                    <path fill="#0B264B" d="M136.7 69.397c0 .843-.68 1.525-1.523 1.525-.845 0-1.527-.682-1.527-1.525 0-.842.682-1.525 1.527-1.525.843 0 1.523.683 1.523 1.525" transform="rotate(-10 135.175 69.397)"/>
                    <path stroke="#1A3E6F" stroke-linecap="round" stroke-linejoin="round" d="M130.166 71.008l2.427 4.668s-1.585.396-2.95 0"/>
                    <path fill="#F19893" d="M116.184 85.528c-.049.114-1.388 3.22-3.314 4.131-.001 0-.001.002-.003.002l-.01-.01c-.158-.709-.297-1.412-.426-2.109.073-.01 2.017-.35 3.753-2.014" transform="rotate(-10 114.307 87.594)"/>
                    <path fill="#100D19" d="M129.842 57.267s-4.248 16.569-17.985 19.967l-5.24-.566-2.69-7.506s-1.7-6.23-.85-7.08c.85-.85 9.913-6.798 9.913-6.798l7.93-1.982 8.78 1.133 2.266.85-2.124 1.982z" transform="rotate(-10 117.403 65.268)"/>
                    <path fill="#FEFEFE" d="M131.728 71.515l-1.95.366.067.69h.005l1.955-.367c.076-.013.12-.18.098-.37-.02-.19-.097-.34-.175-.319" transform="rotate(-10 130.843 72.042)"/>
                    <circle cx="124.144" cy="75.042" r="5.559" stroke="#FFF"/>
                    <circle cx="137.114" cy="69.484" r="5.559" stroke="#FFF"/>
                    <path stroke="#1A3E6F" stroke-linecap="round" stroke-linejoin="round" d="M125.997 83.38s1.848 1.85 5.54 1.85 4.65-1.85 4.65-1.85"/>
                    <path fill="#FEFEFE" d="M110.95 79.698c-.041.01-.082.014-.126.009-.19-.024-.326-.197-.305-.386.516-4.294 8.753-3.45 8.816-3.444.191.018.334.184.317.376-.016.189-.183.33-.376.316-.059-.006-7.632-.793-8.067 2.836-.018.145-.124.259-.26.293" transform="rotate(-10 115.085 77.757)"/>
                    <path fill="#F6B0AC" d="M113.4 79.377s-4.073-5.47-7.057-1.172c-2.456 3.542 2.172 12.974 7.15 9.528l-.093-8.356z" transform="rotate(-10 109.578 82.518)"/>
                    <path stroke="#1A3E6F" stroke-linecap="round" stroke-linejoin="round" d="M108.394 79.675s1.516.153 3.185 1.873c1.67 1.72 1.973 3.132 1.973 3.132"/>
                    <path stroke="#1A3E6F" d="M184.608 26.374L197.637 22.409" transform="rotate(-10 191.123 24.392)"/>
                    <path stroke="#1A3E6F" d="M104.229 125.577s-6.16 7.912-6.886 12.035" transform="rotate(-10 100.786 131.594)"/>
                    <path stroke="#1A3E6F" d="M161.984 107.939c.998 5.987 2.405 11.698 4.689 17.268 2.765 6.747 6.863 12.54 2.43 19.716 0 0-1.086 2.284-3.846 4.824" transform="rotate(-10 166.522 128.843)"/>
                    <path stroke="#1A3E6F" d="M167.98 153.738c-2.602 3.69-11.864.931-15.484.566-5.193-.523-12.406-1.09-16.238 3.022" transform="rotate(-10 152.119 155.532)"/>
                    <path stroke="#1A3E6F" stroke-linecap="round" stroke-linejoin="round" d="M199.245 66.084c1.85 1.177 4.639.652 6.231-.566" transform="rotate(-10 202.36 66.131)"/>
                    <path stroke="#1A3E6F" stroke-linecap="round" stroke-linejoin="round" d="M204.077 70.668c-1.808.079-4.147-3.163-4.532-4.531" transform="rotate(-10 201.811 68.403)"/>
                    <g stroke="#1A3E6F" stroke-linecap="round" stroke-linejoin="round">
                        <path d="M.778 1.208c1.85 1.177 4.639.652 6.231-.566" transform="scale(-1 1) rotate(50 -154.3 .632) rotate(-10 3.894 1.255)"/>
                        <path d="M5.271 6.266C3.463 6.344 1.123 3.103.739 1.735" transform="scale(-1 1) rotate(50 -154.3 .632) rotate(-10 3.005 4.001)"/>
                    </g>
                    <path stroke="#1A3E6F" stroke-linecap="round" stroke-linejoin="round" d="M109.32 84.307s.425-.599 1.183-1.226c.757-.627 1.597-.627 1.597-.627"/>
                    <path stroke="#1A3E6F" stroke-linecap="square" d="M133.408 198.26s0 4.13-3.404 8.421c-3.405 4.292-7.713 3.623-7.713 3.623"/>
                    <path stroke="#1A3E6F" stroke-linecap="square" d="M189.922 189.079c-3.405 4.291-7.713 3.622-7.713 3.622" transform="matrix(-1 0 0 1 372.13 0)"/>
                    <path stroke="#1A3E6F" stroke-linecap="round" stroke-linejoin="round" d="M113.927 211.23s-4.26 15.214 0 35.234c4.26 20.02 13.486 39.111 13.486 39.111s-5.53-4.678-24.027-3.127c-18.498 1.55-49.694 9.777-49.694 9.777l-.08 15.473M154.254 189.459L161.665 219.105M158.617 187.274l5.862 23.03s-1.666 4.084-6.983 2.042"/>
                    <path stroke="#1A3E6F" stroke-linecap="square" d="M194.188 201.966s12.68 12.355 22.456 25.477 16.454 25.477 16.454 25.477 4.06 7.406 2.03 13.78-25.103 33.757-60.956 57.546"/>
                    <path stroke="#1A3E6F" stroke-linecap="round" stroke-linejoin="round" d="M169.636 155.988s-.196 3.247 3.862 10.587 10.619 13.98 14.687 16.589c-11.055 6.154-22.369 1.928-30.235-1.381-2.776-1.167-3.912.739-3.912.739"/>
                </g>
                <path fill="#F5CF0E" d="M365.666 347.852s-3.906-.17-6.216 3.503c-2.31 3.672-6.924 12.195-8.326 12.662-1.402.467-3.204 1.515-4.046.955-.841-.56-8.619-10.45-8.619-10.45l3.401 22.334s12.792 1.991 14.288.964c1.496-1.027 6.63-19.77 6.63-19.77s1.903-.939 4.763-5.048c2.86-4.108-1.875-5.15-1.875-5.15z" transform="scale(-1 1) rotate(20 0 -1642.034)"/>
                <path fill="#FFE163" stroke="#1A3E6F" stroke-linecap="round" stroke-linejoin="round" d="M416.514 407.406s5.143-1.044 7.484-4.625c3.973-6.079 2.051-10.737 3.973-11.135 1.65-.341 3.275 8.992.733 14.36-3.182 6.715-10.934 9.822-10.934 9.822l-1.256-8.422z"/>
                <path fill="#F5CF0E" d="M406.706 426.851c-.963.962-6.577 10.485-7.994 12.299-1.418 1.813-3.513.619-3.513.619l-13.474-3.607 2.613 16.676s13.606 4.208 17.163 2.134c3.558-2.074 8.975-22.264 8.975-22.264s3.795-1.45 6.24-3.77c2.444-2.32-1.15-6.52-1.15-6.52s-7.898 3.471-8.86 4.433z" transform="rotate(100 399.647 438.983)"/>
                <path fill="#FFE163" d="M362.887 360.822s-3.906-.169-6.216 3.503-6.924 12.195-8.326 12.662c-1.402.467-3.205 1.515-4.046.955-.841-.56-8.62-10.45-8.62-10.45l3.402 22.334s12.792 1.991 14.288.964c1.495-1.027 6.63-19.77 6.63-19.77s1.902-.939 4.762-5.047c2.86-4.11-1.874-5.151-1.874-5.151z" transform="scale(-1 1) rotate(20 0 -1613.302)"/>
                <path fill="#FFE163" d="M432.093 418.452c-.555.555-2.607 6.395-6.009 10.299-3.401 3.904-5.275 5.48-10.238 2.949-4.683-2.39-9.136-3.111-12.767-2.615-3.631.497-8.811 3.529-8.811 3.529l12.264 14.579s4.828-.185 9.787 0c4.959.184 7.918.803 9.765 0 4.182-1.818 10.245-22.047 10.245-22.047s1.818-1.942 5.185-4.318c3.368-2.376 0-6.308 0-6.308s-8.444 2.956-9.421 3.932z" transform="rotate(90 418.64 431.057)"/>
                <path fill="#FFE163" d="M401.616 366.362c1.121 3.437 8.487 12.605 3.567 30.651-4.921 18.046-14.56 28.286-14.56 28.286s-12.825 12.663-21.79 4.67c-.601-.536-1.242-.909-1.85-1.352-.45-.328-8.445-6.672-7.124-11.306 1.322-4.634 1.454-5.155 3.438-7.463 0 0 10.825-29.887 8.778-45.892-1.135-8.877-4.014-13.49-.339-21.573 2.002-4.403 5.955-6.895 9.914-7.085 3.96-.19 6.878 1.676 6.878 1.676s5.603-2.538 8.501-3.797c2.899-1.258 1.487-.54 1.487-.54s2.96-.208 3.58.737c.467.71 1.505 2.476 1.374 4.664-.007.113-.833 2.03-1.9 2.988-1.067.959-5.723 3.925-5.511 4.265.124.2 1.921-.7 5.533-2.014 3.612-1.315 3.608-2.1 3.462-1.78-.094.207.797 2.256-.117 3.737-.914 1.482-4.431 3.903-8.987 5.562 0 0 4.544 12.129 5.666 15.566z" transform="scale(-1 1) rotate(20 0 -1791.002)"/>
                <path stroke="#1A3E6F" stroke-linecap="round" d="M349.551 347.807c1.489 2.096 6.224 4.236 8.374 2.578"/>
                <path fill="#1A3E6F" d="M352.459 340.823l-3.893 2.967.31-1.614c.165-.85.994-1.5 1.863-1.451l1.72.098z"/>
                <path stroke="#1A3E6F" stroke-linecap="round" stroke-linejoin="round" d="M393.213 408.42c2.543 1.683.843 6.276-3.377 4.615 3.08 2.838-.423 7.06-3.575 4.833" transform="rotate(90 390.334 413.457)"/>
                <g stroke="#1A3E6F" stroke-linecap="round">
                    <path d="M.23 1.85c0 2.811 6.283 8.587 12.566 3.434M3.587.891c0 1.503 3.358 4.59 6.716 1.835" transform="rotate(-60 577.758 -159.474)"/>
                </g>
                <g stroke="#1A3E6F" stroke-linecap="round">
                    <path d="M2.78 0c1.139.184 1.84.62 3.313 2.209M.808 1.817c1.14.183 1.84.62 3.314 2.209" transform="rotate(-13 1718.059 -1290.542)"/>
                </g>
                <g stroke="#1A3E6F" stroke-linecap="round">
                    <path d="M2.78 0c1.139.184 1.84.62 3.313 2.209M.808 1.817c1.14.183 1.84.62 3.314 2.209" transform="rotate(-163 240.721 198.779)"/>
                </g>
                <g stroke="#1A3E6F" stroke-linecap="round">
                    <path d="M2.78 0c1.139.184 1.84.62 3.313 2.209M.808 1.817c1.14.183 1.84.62 3.314 2.209" transform="rotate(-163 251.562 195.265)"/>
                </g>
                <g stroke="#1A3E6F" stroke-linecap="round">
                    <path d="M2.78 0c1.139.184 1.84.62 3.313 2.209M.808 1.817c1.14.183 1.84.62 3.314 2.209" transform="rotate(-13 1777.654 -1271.397)"/>
                </g>
                <path fill="#1A3E6F" d="M384.568 357.268c3.956 10.867 7.011 11.672 7.292 16.155.28 4.483-9.768 13.947-15.986 8.406-6.218-5.542-5.328-11.868-7.151-14.97-1.823-3.102-2.69-13.62-.862-17.537 0 0 12.752-2.922 16.707 7.946z" transform="scale(-1 1) rotate(20 0 -1785.2)"/>
                <path stroke="#1A3E6F" stroke-linecap="round" stroke-linejoin="round" d="M360.746 386.686s1.889 13.024 14.648 26.387c12.76 13.362 27.042 15.303 27.042 15.303s-1.19 5.91.215 9.31c1.405 3.4 4.8 5.105 7.745 5.944 2.945.838 12.686 3.96 13.977 5.521 1.29 1.56 4.5 6.01 6.764 6.01 2.264 0 4.096-.218 4.17-1.775-.958-3.735-3.66-8.856-3.66-8.856s-9.883-4.326-12.067-7.204c-2.184-2.88-3.96-4.824-1.98-8.104 1.98-3.28 8.15-15.842-4.143-26.655-1.333-1.172-3.602-3.061-3.602-3.061"/>
                <path stroke="#1A3E6F" stroke-linecap="round" stroke-linejoin="round" d="M387.492 423.413l-3.657 11.452s-1.304 4.566 2.432 6.212c3.736 1.646 17.645 9.689 17.645 9.689s.88 7.78 4.82 7.78"/>
                <circle cx="371.4" cy="344.532" r="1" fill="#1A3E6F"/>
                <path stroke="#1A3E6F" stroke-linecap="round" stroke-linejoin="round" d="M360.746 388.538l-7.411 1.853s-8.33-7.543-12.013-14.997c-5.024-1.14-9.31-4.85-8.687-7.514.624-2.664 6.225-3.303 9.836 0 3.611 3.303 8.22 6.542 8.914 6.913 1.122.6 2.28 1.85 4.339 1.967 1.216.07 2.662-2.06 3.052-3.343"/>
                <g transform="rotate(-19 180.133 -157.144)">
                    <path fill="#FFF" stroke="#1A3E6F" d="M148.656.5c1.243 0 2.369.505 3.184 1.32.817.814 1.323 1.94 1.324 3.18h0l.168 183.88c0 1.243-.501 2.368-1.315 3.182-.813.814-1.936 1.317-3.18 1.317h0H5.971c-1.242 0-2.37-.505-3.188-1.32-.82-.815-1.33-1.94-1.336-3.182h0L.525 5.014c-.006-1.243.49-2.368 1.301-3.182.81-.813 1.932-1.315 3.177-1.316h0z"/>
                    <text fill="#1A3E6F" font-family="AvenirNext-Bold, Avenir Next" font-size="11" font-weight="bold">
                        <tspan x="33.596" y="79.277">Eligible for Loan</tspan>
                    </text>
                    <path stroke="#1A3E6F" stroke-linecap="square" d="M4.546 169.646L151.294 169.537"/>
                    <rect width="117.659" height="7.715" x="18.519" y="87.967" fill="#EDF1F7" rx="3.858"/>
                    <rect width="135.229" height="7.715" x="9.634" y="177.102" fill="#EDF1F7" rx="3.858"/>
                    <text fill="#1A3E6F" font-family="AvenirNext-DemiBold, Avenir Next" font-size="8" font-weight="500">
                        <tspan x="17.084" y="153.76">Processing Loan</tspan>
                    </text>
                    <path stroke="url(#l44auq8d6a)" stroke-linecap="round" stroke-linejoin="round" stroke-width="5" d="M19.53 140.229L136.512 139.068"/>
                    <path stroke="#EDF1F7" stroke-linecap="round" stroke-linejoin="round" stroke-width="3" d="M18.367 107.299L135.094 106.14M18.697 118.317L135.679 117.156M18.152 128.606L135.134 127.445"/>
                </g>
                <path fill="#F6B0AC" d="M116.334 206.325s2.716 1.656 3.153 3.417c.437 1.761-.595.739-.916 1.424 0 0-.167 1.495-3.424.787 0 0-2.19-.146-4.14-1.56l.033-3.82.284-.709 5.01.461z" transform="rotate(-10 115.3 209.004)"/>
                <path stroke="#242633" stroke-linecap="round" stroke-linejoin="round" d="M112.38 211.13s3.97.854 5.729.407c1.759-.448 2.684-3.845-1.714-5.182-4.398-1.337-6.86.706-6.86.706"/>
                <path fill="#F6B0AC" d="M259.55 160.424s-2.707 3.319.061 5.624c0 0 2.72 1.1 5.2-3.3l-2.242-3.267-3.02.943z" transform="rotate(-10 261.588 162.825)"/>
                <path stroke="#242633" stroke-linecap="round" stroke-linejoin="round" d="M259.019 164.135s3.75 1.197 5.51.749c1.759-.448 3.248-3.608-1.15-4.945-.506-.154-6.01-1.609-6.01-1.609" transform="scale(-1 1) rotate(36 0 -644.12)"/>
                <path fill="#00B1AE" d="M284.187 71.966l3.54-1.875c.408-.193.86.165.764.606l-1.054 3.852c-.038.175.012.356.135.487l2.458 2.612c.31.328.107.869-.342.915l-3.568.362c-.178.018-.336.122-.422.279l-1.843 3.793c-.232.71-.713.592-.894.18l-1.41-4.15c-.072-.166-.22-.283-.397-.317l-4.164-.575c-.443-.084-.392-.459-.056-.759l3.109-2.665c.134-.12.2-.297.177-.475l-.86-4.029c-.057-.447.424-.766.814-.539l3.507 2.276c.154.09.343.099.506.022"/>
                <path fill="#FF9715" d="M86.163 214.92l3.54-1.875c.409-.193.86.166.764.607l-1.054 3.851c-.038.175.012.357.135.488l2.458 2.612c.31.328.108.868-.342.915l-3.567.362c-.178.017-.337.122-.423.279l-1.843 3.793c-.231.71-.712.592-.894.18l-1.41-4.151c-.072-.165-.22-.283-.396-.316l-4.165-.575c-.442-.085-.392-.46-.055-.76l3.108-2.665c.134-.12.2-.296.178-.474l-.86-4.03c-.057-.447.424-.765.814-.538l3.506 2.276c.155.09.344.098.506.021M365.791 244.172l2.185-1.158c.252-.119.53.103.472.375l-.65 2.377c-.024.108.007.22.083.3l1.517 1.613c.19.203.066.536-.211.565l-2.202.223c-.11.011-.208.076-.261.173l-1.138 2.34c-.143.44-.44.366-.551.112l-.87-2.562c-.045-.102-.137-.175-.245-.195l-2.57-.355c-.274-.052-.243-.283-.035-.469l1.918-1.645c.083-.074.124-.183.11-.293l-.53-2.487c-.036-.276.26-.472.501-.332l2.165 1.405c.095.055.212.06.312.013M425.098 336.435l2.185-1.158c.252-.119.53.103.472.375l-.651 2.377c-.024.108.007.22.083.3l1.518 1.613c.19.203.066.536-.211.565l-2.203.223c-.11.011-.207.076-.26.173l-1.138 2.34c-.143.44-.44.366-.552.112l-.87-2.562c-.045-.102-.136-.175-.245-.195l-2.57-.355c-.274-.052-.242-.283-.034-.469l1.918-1.645c.083-.074.124-.183.11-.293l-.53-2.487c-.036-.276.26-.473.501-.332l2.165 1.405c.095.055.212.06.312.013"/>
                <circle cx="154.591" cy="335.469" r="2.779" fill="#71BF59"/>
                <circle cx="324.302" cy="184.12" r="4.632" fill="#71BF59"/>
                <circle cx="15.398" cy="362.058" r="4.632" fill="#71BF59"/>
                <circle cx="427.961" cy="210.84" r="4.632" fill="#71BF59"/>
                <path fill="#FFD93B" d="M390.057 118.487s.509 5.186-2.988 7.008c0 0 5.259-.257 6.748 4.537 0 0-.642-4.634 2.44-7.223 0 0-4.65.092-6.2-4.322" transform="rotate(50 391.663 124.26)"/>
                <path fill="#FFD93B" d="M8.6 245.038s.757 7.73-4.454 10.447c0 0 7.838-.384 10.057 6.763 0 0-.955-6.908 3.638-10.766 0 0-6.93.136-9.242-6.444" transform="scale(-1 1) rotate(50 0 230.068)"/>
                <path fill="#FFD93B" d="M160.904 392.122s.759 7.731-4.453 10.447c0 0 7.838-.383 10.057 6.763 0 0-.955-6.908 3.638-10.766 0 0-6.93.137-9.242-6.444" transform="scale(-1 1) rotate(50 0 50.533)"/>
                <path stroke="#45C1C5" stroke-linecap="round" stroke-linejoin="round" stroke-width="2" d="M384.39 306.588s4.374 2.722 4.633 5.559c.258 2.837-1.251 5.527-3.695 4.739-2.443-.789-3.882-6.178 1.466-5.041 5.348 1.137 5.733 6.195 3.98 10.046"/>
                <path stroke="#F5CF0E" stroke-linecap="round" stroke-linejoin="round" stroke-width="2" d="M73.98 406.38s-4.374 2.722-4.632 5.559c-.259 2.837 1.25 5.527 3.694 4.739 2.444-.789 3.882-6.178-1.466-5.041-5.347 1.137-5.733 6.195-3.98 10.046"/>
                <path stroke="#45C1C5" stroke-linecap="round" stroke-linejoin="round" stroke-width="2" d="M50.802 136.308s4.545-2.427 7.13-1.233c2.586 1.195 4.162 3.847 2.257 5.57-1.904 1.721-7.29.272-3.632-3.79 3.658-4.063 8.231-1.868 10.69 1.575"/>
                <path fill="#8420F5" d="M306.565 305.444L301.006 314.709 312.165 312.547z" transform="rotate(180 306.586 310.077)"/>
                <path fill="#8420F5" d="M86.573 317.72L81.014 326.984 92.172 324.823z" transform="matrix(1 0 0 -1 0 644.704)"/>
                <ellipse cx="422.74" cy="488.922" fill="#EDF1F7" rx="27.793" ry="5.559"/>
                <ellipse cx="224.032" cy="541.501" fill="#EDF1F7" rx="104.24" ry="8.499"/>
                <g transform="translate(129.056 45.153)">
                    <circle cx="18.529" cy="18.529" r="18.529" fill="#45C1C5"/>
                    <path stroke="#FFF" stroke-linecap="round" stroke-linejoin="round" stroke-width="2" d="M13.897 20.693L18.706 23.296 24.269 12.97"/>
                </g>
            </g>
        </g>
    </g>
</svg>
