<svg xmlns="http://www.w3.org/2000/svg" width="18" height="18" viewBox="0 0 18 18">
    <g fill="none" fill-rule="evenodd">
        <g fill="#47C068" fill-rule="nonzero">
            <path d="M24.996 16c4.968.011 8.993 4.034 9.004 9 0 2.695-1.209 5.248-3.292 6.957-2.084 1.71-4.824 2.396-7.468 1.87-4.538-.906-7.65-5.104-7.196-9.708.453-4.604 4.324-8.115 8.952-8.119zm4.722 6.386c-.304-.304-.796-.304-1.1 0L24.503 26.5l-2.042-2.042c-.304-.303-.796-.303-1.1 0-.303.304-.303.796 0 1.1l2.592 2.59c.304.304.796.304 1.1 0l4.665-4.663c.304-.304.304-.796 0-1.1z" transform="translate(-16 -16)"/>
        </g>
    </g>
</svg>
