<svg xmlns="http://www.w3.org/2000/svg" width="18" height="18" viewBox="0 0 18 18">
    <g fill="none" fill-rule="evenodd">
        <g fill="#45C1C5" fill-rule="nonzero">
            <path d="M25 16c-4.97 0-9 4.03-9 9s4.03 9 9 9 9-4.03 9-9c0-2.387-.948-4.676-2.636-6.364C29.676 16.948 27.387 16 25 16zm0 2.7c1.491 0 2.7 1.209 2.7 2.7s-1.209 2.7-2.7 2.7-2.7-1.209-2.7-2.7 1.209-2.7 2.7-2.7zm5.237 10.05c-1.23 1.604-3.174 2.55-5.238 2.55-2.065 0-4.008-.946-5.239-2.55-.187-.267-.212-.611-.065-.902l.196-.397c.46-.946 1.445-1.55 2.526-1.551h5.164c1.066.001 2.038.59 2.507 1.515l.214.424c.15.293.126.641-.065.911z" transform="translate(-16 -16)"/>
        </g>
    </g>
</svg>
